<svg xmlns="http://www.w3.org/2000/svg" width="24.789" height="26" viewBox="0 0 24.789 26">
  <path id="Account_Setting" data-name="Account Setting" d="M24.83,15.9s0,0,0,0l-1.666-1.531a10.911,10.911,0,0,0,0-2.728L24.83,10.1a1.645,1.645,0,0,0,.3-2.01L23.295,4.913a1.631,1.631,0,0,0-1.9-.739l-2.162.682a9.908,9.908,0,0,0-2.356-1.368l-.5-2.22A1.63,1.63,0,0,0,14.8,0H11.112a1.63,1.63,0,0,0-1.58,1.267l-.5,2.221A9.909,9.909,0,0,0,6.677,4.857L4.512,4.174a1.629,1.629,0,0,0-1.9.732L.77,8.1a1.643,1.643,0,0,0,.312,2.007l1.666,1.531A11.073,11.073,0,0,0,2.662,13a11.286,11.286,0,0,0,.086,1.364L1.077,15.9a1.644,1.644,0,0,0-.3,2.008l1.838,3.179a1.631,1.631,0,0,0,1.9.74l2.162-.682a9.909,9.909,0,0,0,2.356,1.368l.5,2.219A1.63,1.63,0,0,0,11.112,26H14.8a1.63,1.63,0,0,0,1.579-1.267l.5-2.221a9.872,9.872,0,0,0,2.356-1.368l2.164.682a1.627,1.627,0,0,0,1.9-.733L25.138,17.9a1.643,1.643,0,0,0-.308-2ZM12.953,18.417A5.417,5.417,0,1,1,18.37,13a5.423,5.423,0,0,1-5.417,5.417Z" transform="translate(-0.559)" fill="#4d463a"/>
</svg>