<svg xmlns="http://www.w3.org/2000/svg" width="22.852" height="26" viewBox="0 0 22.852 26">
  <g id="Account_Information" data-name="Account Information" transform="translate(-31)">
    <g id="Group_1208" data-name="Group 1208" transform="translate(35.57)">
      <g id="Group_1207" data-name="Group 1207">
        <path id="Path_404" data-name="Path 404" d="M127.855,0a6.855,6.855,0,1,0,6.855,6.855A6.863,6.863,0,0,0,127.855,0Z" transform="translate(-121)" fill="#4d463a"/>
      </g>
    </g>
    <g id="Group_1210" data-name="Group 1210" transform="translate(31 15.234)">
      <g id="Group_1209" data-name="Group 1209">
        <path id="Path_405" data-name="Path 405" d="M50.955,302.955A9.773,9.773,0,0,0,43.949,300H40.9a9.773,9.773,0,0,0-7.006,2.955A9.991,9.991,0,0,0,31,310a.762.762,0,0,0,.762.762H53.09a.762.762,0,0,0,.762-.762A9.991,9.991,0,0,0,50.955,302.955Z" transform="translate(-31 -300)" fill="#4d463a"/>
      </g>
    </g>
  </g>
</svg>