<svg width="24" height="24" viewBox="0 0 24 24" fill="none" xmlns="http://www.w3.org/2000/svg">
<path d="M14.4 3.60674C14.4 2.55914 13.152 2.01434 12.384 2.72714L7.73762 7.03874C7.62679 7.14191 7.48104 7.19935 7.32962 7.19954H4.20002C3.72263 7.19954 3.2648 7.38919 2.92723 7.72675C2.58967 8.06432 2.40002 8.52216 2.40002 8.99955V14.9995C2.40002 15.4769 2.58967 15.9348 2.92723 16.2723C3.2648 16.6099 3.72263 16.7995 4.20002 16.7995H7.32842C7.47968 16.7994 7.6254 16.8564 7.73642 16.9591L12.384 21.2719C13.152 21.9835 14.4 21.4399 14.4 20.3923V3.60674Z" fill="#362D1E"/>
<path d="M18.3048 5.55282C18.3636 5.50034 18.4321 5.45996 18.5065 5.43397C18.5809 5.40798 18.6597 5.39689 18.7384 5.40135C18.817 5.40581 18.8941 5.42572 18.965 5.45994C19.036 5.49417 19.0996 5.54204 19.152 5.60082C20.7261 7.36084 21.5963 9.63922 21.5963 12.0004C21.5963 14.3616 20.7261 16.64 19.152 18.4C19.0997 18.4596 19.0361 18.5081 18.9649 18.543C18.8937 18.5778 18.8163 18.5982 18.7372 18.6029C18.6581 18.6076 18.5788 18.5966 18.5039 18.5706C18.4291 18.5445 18.3602 18.5039 18.3011 18.451C18.242 18.3981 18.1941 18.3341 18.1599 18.2625C18.1257 18.191 18.1061 18.1134 18.1021 18.0343C18.0981 17.9551 18.1098 17.876 18.1366 17.8013C18.1633 17.7267 18.2046 17.6582 18.258 17.5996C19.6354 16.0596 20.3969 14.0659 20.3969 11.9998C20.3969 9.9337 19.6354 7.94006 18.258 6.40002C18.1519 6.28147 18.0972 6.12561 18.106 5.96673C18.1148 5.80785 18.1863 5.65896 18.3048 5.55282V5.55282Z" fill="#362D1E"/>
<path d="M16.8949 15.5184C16.8266 15.4791 16.7666 15.4268 16.7186 15.3643C16.6705 15.3018 16.6352 15.2305 16.6147 15.1544C16.5942 15.0783 16.5889 14.9989 16.5991 14.9207C16.6092 14.8425 16.6348 14.7671 16.6741 14.6988C17.1483 13.878 17.3979 12.9468 17.3979 11.9988C17.3979 11.0509 17.1483 10.1197 16.6741 9.29884C16.6307 9.23055 16.6015 9.15418 16.5884 9.07433C16.5753 8.99448 16.5784 8.9128 16.5977 8.83421C16.6169 8.75561 16.6519 8.68172 16.7004 8.61698C16.749 8.55224 16.8101 8.49799 16.8802 8.45749C16.9502 8.417 17.0278 8.39109 17.1081 8.38133C17.1884 8.37157 17.2699 8.37817 17.3476 8.40071C17.4253 8.42326 17.4977 8.46129 17.5603 8.51253C17.623 8.56376 17.6746 8.62714 17.7121 8.69884C18.2918 9.70198 18.5971 10.8401 18.5973 11.9987C18.5975 13.1573 18.2926 14.2955 17.7133 15.2988C17.6337 15.4363 17.5029 15.5366 17.3495 15.5778C17.1961 15.619 17.0326 15.5976 16.8949 15.5184Z" fill="#362D1E"/>
</svg>
