<svg xmlns="http://www.w3.org/2000/svg" width="23.957" height="27.973" viewBox="0 0 23.957 27.973">
  <g id="Group_2463" data-name="Group 2463" transform="translate(-1021 -132.013)">
    <path id="Polygon_21" data-name="Polygon 21" d="M18.683,0a4,4,0,0,1,3.454,1.983L26.8,9.962A4,4,0,0,1,26.8,14l-4.658,7.979a4,4,0,0,1-3.454,1.983H9.29a4,4,0,0,1-3.454-1.983L1.177,14a4,4,0,0,1,0-4.033L5.835,1.983A4,4,0,0,1,9.29,0Z" transform="translate(1044.958 132.013) rotate(90)" fill="#362d1e"/>
    <g id="Group_2463-2" data-name="Group 2463" transform="translate(1027.021 140.149)">
      <path id="Path_667" data-name="Path 667" d="M0,4.255,4.255,0,8.511,4.255" transform="translate(4.255 0) rotate(90)" fill="none" stroke="#fff" stroke-linecap="round" stroke-linejoin="round" stroke-width="2"/>
      <path id="Path_668" data-name="Path 668" d="M0,0,4.255,4.255" transform="matrix(-0.719, 0.695, -0.695, -0.719, 11.904, 8.563)" fill="none" stroke="#fff" stroke-linecap="round" stroke-linejoin="round" stroke-width="2"/>
    </g>
  </g>
</svg>
