<svg xmlns="http://www.w3.org/2000/svg" width="19" height="27" viewBox="0 0 19 27">
  <g id="icon-110-zip" transform="translate(-7 -3)">
    <path id="zip" d="M16,18.05V17H15V16h1V15H15V14h1V13H15V12h1V11H15V10h1V9H15V8h1V7H15V6h1V5H15V4h1V3H11.006A4,4,0,0,0,7,7V26a4,4,0,0,0,4.006,4H21.994A4,4,0,0,0,26,26V7a4,4,0,0,0-4.006-4H18V4H17V5h1V6H17V7h1V8H17V9h1v1H17v1h1v1H17v1h1v1H17v1h1v1H17v2.049a2.5,2.5,0,1,1-1,0Zm.5.95A1.5,1.5,0,1,0,18,20.5,1.5,1.5,0,0,0,16.5,19Z" fill="#362d1e" fill-rule="evenodd"/>
  </g>
</svg>
