<svg id="atm" xmlns="http://www.w3.org/2000/svg" width="26.51" height="26.511" viewBox="0 0 26.51 26.511">
  <path id="Path_283" data-name="Path 283" d="M197.433,177.985a3.383,3.383,0,1,1-3.383-3.383A3.383,3.383,0,0,1,197.433,177.985Zm0,0" transform="translate(-180.796 -165.562)" fill="#362d1e"/>
  <path id="Path_284" data-name="Path 284" d="M25.551.958A3.252,3.252,0,0,0,23.237,0H3.272A3.272,3.272,0,0,0,0,3.272V6.6A3.271,3.271,0,0,0,3.272,9.872h.166V4.159a.777.777,0,0,1,.777-.777h18.08a.777.777,0,0,1,.777.777V9.872h.166A3.272,3.272,0,0,0,26.509,6.6V3.272A3.253,3.253,0,0,0,25.551.958Zm0,0" transform="translate(0.001 0)" fill="#362d1e"/>
  <path id="Path_285" data-name="Path 285" d="M96.4,114.465a2.441,2.441,0,0,0,2.44,2.44h11.647a2.441,2.441,0,0,0,2.44-2.44V95.332H96.4Zm8.264-16.582a4.936,4.936,0,1,1-4.936,4.936A4.942,4.942,0,0,1,104.662,97.883Zm-4.159,13.31h8.319a.777.777,0,1,1,0,1.553H100.5a.777.777,0,0,1,0-1.553Zm0,0" transform="translate(-91.407 -90.396)" fill="#362d1e"/>
</svg>
