<svg id="paper-clip" xmlns="http://www.w3.org/2000/svg" width="24.96" height="26" viewBox="0 0 24.96 26">
  <path id="Path_543" data-name="Path 543" d="M17.182,0H3.1A3.1,3.1,0,0,0,0,3.1v18.59a3.1,3.1,0,0,0,3.1,3.1H14.816a8.348,8.348,0,0,1-.169-1.69V17.182a2.355,2.355,0,0,1,.011-.282H4.507a1.127,1.127,0,0,1,0-2.253H15.12a7.027,7.027,0,0,1,5.16-4.36V3.1A3.1,3.1,0,0,0,17.182,0ZM4.507,5.633H10.14a1.127,1.127,0,0,1,0,2.253H4.507a1.127,1.127,0,0,1,0-2.253Zm11.267,6.76H4.507a1.127,1.127,0,0,1,0-2.253H15.773a1.127,1.127,0,0,1,0,2.253Z" fill="#474747"/>
  <path id="Path_544" data-name="Path 544" d="M20.943,25.393A3.948,3.948,0,0,1,17,21.45V15.535a2.535,2.535,0,0,1,5.07,0v5.633a.845.845,0,1,1-1.69,0V15.535a.845.845,0,1,0-1.69,0V21.45a2.253,2.253,0,0,0,4.507,0v-7.6a.845.845,0,0,1,1.69,0v7.6A3.948,3.948,0,0,1,20.943,25.393Z" transform="translate(0.073 0.607)" fill="#474747"/>
</svg>
