<?xml version="1.0" encoding="iso-8859-1"?>
<!-- Generator: Adobe Illustrator 22.1.0, SVG Export Plug-In . SVG Version: 6.00 Build 0)  -->
<svg xmlns="http://www.w3.org/2000/svg" xmlns:xlink="http://www.w3.org/1999/xlink" version="1.1" id="Layer_1_1_" x="0px" y="0px" viewBox="0 0 64 64" style="enable-background:new 0 0 64 64;" xml:space="preserve" width="512" height="512">
<g>
	<g>
		<g>
			<path style="fill:#F0BC5E;" d="M31,39H5V13h26V39z"/>
		</g>
	</g>
	<g>
		<g>
			<path style="fill:#F0BC5E;" d="M59,39H33V13h26V39z"/>
		</g>
	</g>
	<g>
		<path d="M63,1H1v54h4.404c1.275,4.605,5.492,8,10.497,8c1.895,0,3.766-0.497,5.409-1.437L32,55.455l10.689,6.108    C44.333,62.503,46.204,63,48.099,63c5.005,0,9.222-3.395,10.497-8H63V1z M61,3v6H3V3H61z M57,52.099    C57,57.007,53.007,61,48.099,61c-1.547,0-3.074-0.405-4.417-1.173l-9.666-5.523l2.015-1.151l8.644,4.938    C45.714,58.686,46.898,59,48.099,59C51.904,59,55,55.904,55,52.099v-0.197C55,48.096,51.904,45,48.099,45    c-1.2,0-2.385,0.314-3.425,0.909L20.318,59.827C18.976,60.595,17.448,61,15.901,61C10.993,61,7,57.007,7,52.099v-0.197    C7,46.993,10.993,43,15.901,43c1.547,0,3.074,0.405,4.417,1.173l9.666,5.523l-2.015,1.152l-8.644-4.939    C18.286,45.314,17.102,45,15.901,45C12.096,45,9,48.096,9,51.901v0.197C9,55.904,12.096,59,15.901,59    c1.2,0,2.385-0.314,3.425-0.909l24.355-13.918C45.024,43.405,46.552,43,48.099,43C53.007,43,57,46.993,57,51.901V52.099z     M38.046,52l7.62-4.354C46.404,47.224,47.246,47,48.099,47C50.801,47,53,49.199,53,51.901v0.197C53,54.801,50.801,57,48.099,57    c-0.853,0-1.694-0.224-2.433-0.646L38.046,52z M25.954,52l-7.62,4.354C17.596,56.776,16.754,57,15.901,57    C13.199,57,11,54.801,11,52.099v-0.197C11,49.199,13.199,47,15.901,47c0.853,0,1.694,0.224,2.433,0.646L25.954,52z M58.954,53    C58.979,52.702,59,52.403,59,52.099v-0.197C59,45.891,54.109,41,48.099,41c-1.895,0-3.766,0.497-5.409,1.437L32,48.545    l-10.689-6.108C19.667,41.497,17.796,41,15.901,41C9.891,41,5,45.891,5,51.901v0.197C5,52.403,5.021,52.702,5.046,53H3V11h58v42    H58.954z"/>
		<rect x="9" y="17" width="18" height="2"/>
		<rect x="9" y="21" width="14" height="2"/>
		<rect x="25" y="21" width="2" height="2"/>
		<rect x="13" y="25" width="14" height="2"/>
		<rect x="9" y="25" width="2" height="2"/>
		<rect x="9" y="29" width="18" height="2"/>
		<rect x="9" y="33" width="14" height="2"/>
		<rect x="37" y="17" width="18" height="2"/>
		<rect x="37" y="21" width="2" height="2"/>
		<rect x="41" y="21" width="14" height="2"/>
		<rect x="37" y="25" width="18" height="2"/>
		<rect x="37" y="29" width="18" height="2"/>
		<rect x="37" y="33" width="14" height="2"/>
		<rect x="5" y="5" width="2" height="2"/>
		<rect x="9" y="5" width="2" height="2"/>
		<rect x="13" y="5" width="2" height="2"/>
		<rect x="53" y="33" width="2" height="2"/>
		<rect x="25" y="33" width="2" height="2"/>
	</g>
</g>
</svg>
