<svg id="Layer_5" enable-background="new 0 0 64 64" height="512" viewBox="0 0 64 64" width="512" xmlns="http://www.w3.org/2000/svg"><g><g><g><path d="m23 54h-6c-1.103 0-2-.897-2-2v-4c0-1.103.897-2 2-2h6c1.103 0 2 .897 2 2v4c0 1.103-.897 2-2 2z" fill="#f0bc5e"/></g></g><g><g><path d="m19 25h-5c-4.962 0-9-4.038-9-9v-1h5c4.962 0 9 4.038 9 9z" fill="#f0bc5e"/></g></g><g><path d="m13 9h8c0-4.418-3.582-8-8-8h-8c0 4.418 3.582 8 8 8z" fill="#f0bc5e"/></g><g><path d="m29 17h-8c0-4.418 3.582-8 8-8h8c0 4.418-3.582 8-8 8z" fill="#f0bc5e"/></g><g><g><path d="m60.614 21.028-10.642-10.642 13.303-2.661z" fill="#f0bc5e"/></g></g><path d="m59 19.414-2-2v38.586h-2v-38.413l1.035-1.138-1.416-1.416-8.653 9.518-6.939-6.94-14.42 13.389h-3.607v-22h-2v22h-6c-1.654 0-3 1.346-3 3v3h-6c-1.654 0-3 1.346-3 3v20c0 1.654 1.346 3 3 3h32c1.654 0 3-1.346 3-3v-2h20zm-47 14.586c0-.551.449-1 1-1h14c.551 0 1 .449 1 1v3h-16zm16 17c3.72 0 7.008-1.861 9-4.695v13.695c0 .551-.449 1-1 1h-32c-.551 0-1-.449-1-1v-13.695c1.992 2.834 5.28 4.695 9 4.695h3v-2h-3c-4.962 0-9-4.038-9-9 0-.551.449-1 1-1h32c.551 0 1 .449 1 1 0 4.962-4.038 9-9 9h-3v2zm13 5h-2v-16c0-1.654-1.346-3-3-3h-6v-3c0-1.485-1.088-2.713-2.507-2.95l11.481-10.661 2.026 2.025zm4 0h-2v-31.586l2 2zm4 0h-2v-29.613l2-2.2zm4 0h-2v-34.013l2-2.2z"/></g></svg>