<?xml version="1.0" encoding="utf-8"?>
<!-- Generator: Adobe Illustrator 26.0.0, SVG Export Plug-In . SVG Version: 6.00 Build 0)  -->
<svg version="1.1" id="Layer_1" xmlns="http://www.w3.org/2000/svg" xmlns:xlink="http://www.w3.org/1999/xlink" x="0px" y="0px"
	 viewBox="0 0 452.43 454.14" style="enable-background:new 0 0 452.43 454.14;" xml:space="preserve">
<style type="text/css">
	.st0{fill:#010101;}
	.st1{fill:#020202;}
	.st2{fill:#040404;}
</style>
<g>
	<path class="st0" d="M177.86,155.28c8.79-16.13,21.5-26.21,39.08-29.06c30.45-4.94,57.01,14.26,62.38,44.65
		c0.56,3.17,0.61,6.46,0.62,9.69c0.05,26.31-0.03,52.62,0.1,78.93c0.02,3.03-0.9,3.61-3.72,3.6c-33.54-0.1-67.08-0.1-100.63,0.01
		c-2.8,0.01-3.62-0.65-3.51-3.48c0.23-5.73,0.26-11.48-0.01-17.2c-0.14-2.97,0.92-3.42,3.58-3.4c16.46,0.12,32.92,0.08,49.38,0.05
		c4.35-0.01,6.74-2.03,6.92-5.65c0.19-3.89-2.23-6.28-6.59-6.29c-15.34-0.04-30.67-0.02-46.01-0.02c-7.19,0-7.19,0-7.19-7.14
		c0-4.84,0-4.84,4.99-4.84c15.96,0,31.92-0.01,47.88,0.01c3.12,0.01,5.68-0.77,6.76-4.07c1.41-4.32-1.24-7.86-6.1-7.89
		c-10.6-0.07-21.2-0.02-31.8-0.02c-6.36,0-12.72-0.09-19.08,0.05c-2.18,0.05-2.66-0.69-2.7-2.75c-0.18-9.28-0.25-9.27,8.83-9.27
		c14.71,0,29.43,0.02,44.14-0.02c4.47-0.01,6.92-2.26,6.89-6.06c-0.03-3.72-2.37-5.87-6.63-5.88c-16.21-0.03-32.42-0.14-48.63,0.08
		c-3.79,0.05-4.83-0.76-4.36-4.63c0.89-7.41,0.65-7.44,8.13-7.44c14.84,0,29.68,0.01,44.51-0.01c5-0.01,7.39-1.91,7.45-5.83
		c0.07-4.04-2.46-6.13-7.59-6.13C209.5,155.27,194.04,155.28,177.86,155.28z"/>
	<path class="st1" d="M225.83,406.69c-27.06,0-54.12,0-81.18,0c-6.42,0-8.31-1.84-8.34-8.16c-0.02-3.49-0.15-6.99,0.08-10.47
		c0.68-10.23,8.16-17.24,18.4-17.27c16.59-0.05,33.17-0.08,49.76,0.05c2.86,0.02,3.82-0.61,3.71-3.62
		c-0.25-6.6-0.16-13.22-0.03-19.82c0.04-2.15-0.68-2.97-2.74-3.55c-32.49-9.05-55.04-36.73-56.88-70.31
		c-0.62-11.32-0.3-22.69-0.26-34.03c0.01-3.98,2.39-6.36,5.81-6.43c3.6-0.07,5.89,2.35,6.1,6.54c0.07,1.37,0.01,2.74,0.02,4.11
		c0.09,10.1-0.24,20.22,0.35,30.29c1.75,30.31,25.64,55.91,55.61,60.05c35.05,4.84,66.45-16.81,74.24-51.14
		c1.25-5.51,1.46-11.1,1.47-16.72c0-8.6-0.04-17.21,0.02-25.81c0.03-4.59,2.16-7.1,5.82-7.2c3.8-0.11,6.19,2.53,6.11,7.24
		c-0.24,13.33,1.3,26.76-0.95,39.96c-5.44,31.89-23.95,52.83-54.59,62.93c-3.51,1.16-4.57,2.6-4.39,6.14
		c0.31,6.09,0.22,12.22,0.02,18.32c-0.09,2.57,0.81,3.04,3.15,3.02c16.46-0.09,32.92-0.06,49.38-0.04
		c11.79,0.01,19.17,7.23,19.37,18.97c0.06,3.12,0.04,6.24,0,9.35c-0.07,5.61-2.08,7.59-7.75,7.59
		C280.7,406.7,253.27,406.69,225.83,406.69z"/>
	<path class="st2" d="M64.5,209.16c-0.12-70.68,46.58-133.91,114.13-154.58c88.05-26.95,181.74,24.95,203.85,114.32
		c14.72,59.5-0.65,111.79-43.45,155.86c-2.3,2.37-4.85,3.6-7.97,1.67c-2.48-1.54-3.45-3.86-2.79-6.74c0.44-1.94,2.03-3.09,3.33-4.4
		c16.91-16.95,29.03-36.82,36.74-59.49c25.92-76.31-16.57-163.08-93.29-187.88c-60.3-19.49-113.96-6.36-158.06,39.22
		c-31.73,32.79-44.2,73.27-39.44,118.66c3.68,35.09,18.69,64.95,43.54,89.93c1.85,1.86,3.98,3.63,3.46,6.64
		c-0.41,2.35-1.79,4.14-4.09,4.94c-2.66,0.92-4.78-0.1-6.73-2c-11.5-11.21-21.23-23.78-28.98-37.84
		C71.33,263.1,64.59,236.99,64.5,209.16z"/>
	<path class="st2" d="M99,209.62c0.69-58.5,39.07-107.88,95.4-122.75C263,68.75,334.53,112.3,350.04,181.6
		c5.36,23.94,4,47.48-3.94,70.67c-0.97,2.82-2.22,5.36-5.72,5.56c-4.72,0.27-7.64-3.78-5.96-8.63c2.91-8.38,5.1-16.9,6.02-25.74
		c3.63-34.9-5.73-65.92-29.8-91.44c-30.61-32.45-68.66-44.21-111.95-33.57c-43.75,10.75-71.75,39.33-83.98,82.64
		c-6.17,21.86-4.96,43.89,2.2,65.51c0.39,1.18,0.83,2.34,1.17,3.54c1,3.55-0.36,6.42-3.54,7.54c-3.42,1.21-6.34-0.16-7.74-3.8
		c-2.64-6.87-4.5-13.97-5.83-21.19C99.57,225.07,98.96,217.37,99,209.62z"/>
	<path class="st0" d="M225.77,275c16.95,0,33.9,0.04,50.85-0.05c2.4-0.01,3.08,0.34,2.6,3.03c-4.68,25.86-26.71,44.77-52.56,44.91
		c-26.29,0.14-48.49-18.32-53.53-44.2c-0.69-3.53,0.3-3.77,3.29-3.75C192.87,275.07,209.32,275,225.77,275z"/>
</g>
</svg>
