<svg xmlns="http://www.w3.org/2000/svg" width="26" height="26" viewBox="0 0 26 26">
  <path id="_111111_calendar_icon" data-name="111111_calendar_icon" d="M31.949,55.782a2.166,2.166,0,0,0,2.167,2.167H55.782a2.166,2.166,0,0,0,2.167-2.167V36.824a2.166,2.166,0,0,0-2.167-2.167H53.616V33.3a1.354,1.354,0,0,0-2.708,0v1.354H48.741V33.3a1.354,1.354,0,0,0-2.708,0v1.354H43.866V33.3a1.354,1.354,0,0,0-2.708,0v1.354H38.991V33.3a1.354,1.354,0,0,0-2.708,0v1.354H34.116a2.166,2.166,0,0,0-2.167,2.167V55.782Zm3.9-18.417h.433v1.9a1.354,1.354,0,1,0,2.708,0v-1.9h2.167v1.9a1.354,1.354,0,1,0,2.708,0v-1.9h2.167v1.9a1.354,1.354,0,1,0,2.708,0v-1.9h2.167v1.9a1.354,1.354,0,1,0,2.708,0v-1.9h.433a1.189,1.189,0,0,1,1.192,1.192V44.3a1.189,1.189,0,0,1-1.192,1.192h-18.2A1.189,1.189,0,0,1,34.657,44.3V38.557A1.188,1.188,0,0,1,35.849,37.366Z" transform="translate(-31.949 -31.949)" fill="#858585" fill-rule="evenodd"/>
</svg>
