<svg xmlns="http://www.w3.org/2000/svg" width="20" height="20" viewBox="0 0 20 20">
  <g id="Group_1826" data-name="Group 1826" transform="translate(-493.152 -620)">
    <path id="Path_201" data-name="Path 201" d="M26.738,3.5H14.646A2.644,2.644,0,0,0,12,6.142V20.336l3.662-3.687H26.738a2.644,2.644,0,0,0,2.646-2.642V6.142A2.625,2.625,0,0,0,26.738,3.5Z" transform="translate(483.768 616.5)" fill="rgba(51,51,51,0.6)"/>
    <path id="Path_202" data-name="Path 202" d="M18.238,13.8H6.146A2.644,2.644,0,0,0,3.5,16.442V30.636l3.662-3.687H18.238a2.644,2.644,0,0,0,2.646-2.642v-7.9A2.658,2.658,0,0,0,18.238,13.8Z" transform="translate(489.652 609.364)" fill="#a4a3a3"/>
  </g>
</svg>
