<svg xmlns="http://www.w3.org/2000/svg" width="25.997" height="26" viewBox="0 0 25.997 26">
  <g id="customer" transform="translate(-0.024)">
    <g id="Group_1831" data-name="Group 1831" transform="translate(10.689)">
      <g id="Group_1830" data-name="Group 1830">
        <path id="Path_575" data-name="Path 575" d="M213.127,0a3.137,3.137,0,0,0-3.1,3.1,3.137,3.137,0,0,0,3.1,3.1,3.1,3.1,0,0,0,0-6.2Z" transform="translate(-210.029)" fill="#362D1E"/>
      </g>
    </g>
    <g id="Group_1833" data-name="Group 1833" transform="translate(9.165 6.195)">
      <g id="Group_1832" data-name="Group 1832">
        <path id="Path_576" data-name="Path 576" d="M188.032,122a4.543,4.543,0,0,1-3.382,1.523A4.654,4.654,0,0,1,181.218,122a4.535,4.535,0,0,0-1.189,3.047v.762a.761.761,0,0,0,.762.762h7.668a.761.761,0,0,0,.762-.762v-.762A4.535,4.535,0,0,0,188.032,122Z" transform="translate(-180.029 -122)" fill="#362D1E"/>
      </g>
    </g>
    <g id="Group_1835" data-name="Group 1835" transform="translate(0.024 14.754)">
      <g id="Group_1834" data-name="Group 1834" transform="translate(0)">
        <path id="Path_577" data-name="Path 577" d="M7.384,299.158,3.5,291.375a1.523,1.523,0,0,0-2.039-.685l-1.015.5A.762.762,0,0,0,.1,292.216l4.57,9.141a.763.763,0,0,0,1.02.342l1-.5A1.524,1.524,0,0,0,7.384,299.158Z" transform="translate(-0.024 -290.532)" fill="#362D1E"/>
      </g>
    </g>
    <g id="Group_1837" data-name="Group 1837" transform="translate(4.544 12.009)">
      <g id="Group_1836" data-name="Group 1836">
        <path id="Path_578" data-name="Path 578" d="M109.873,237.048a1.519,1.519,0,0,0-2.011.2l-4.164,5.119a1.841,1.841,0,0,1-1.127.488h-3.55a.762.762,0,0,1,0-1.523h3.047a1.523,1.523,0,1,0,0-3.047H98.076c-.38,0-.569-.241-.868-.5a5.3,5.3,0,0,0-4.729-1.158,5.557,5.557,0,0,0-2.339,1.168l-.023-.018-1.1.97,4.33,8.682h8.722a4.589,4.589,0,0,0,3.656-1.828l4.469-6.4A1.535,1.535,0,0,0,109.873,237.048Z" transform="translate(-89.016 -236.479)" fill="#362D1E"/>
      </g>
    </g>
  </g>
</svg>