<svg xmlns="http://www.w3.org/2000/svg" width="40.6" height="40.6" viewBox="0 0 40.6 40.6">
  <g id="Inbox" transform="translate(-3.5 -2.9)">
    <path id="Path_201" data-name="Path 201" d="M41.477,3.5H17.292A5.288,5.288,0,0,0,12,8.784V37.171L19.323,29.8H41.477a5.288,5.288,0,0,0,5.292-5.284V8.784A5.249,5.249,0,0,0,41.477,3.5Z" transform="translate(-3.269 0)" fill="none" stroke="#11110f" stroke-width="1.2"/>
    <path id="Path_202" data-name="Path 202" d="M32.977,13.8H8.792A5.288,5.288,0,0,0,3.5,19.084V47.471L10.823,40.1H32.977a5.288,5.288,0,0,0,5.292-5.284V19.023A5.315,5.315,0,0,0,32.977,13.8Z" transform="translate(0 -3.971)" fill="#11110f"/>
  </g>
</svg>
