<svg id="Layer_35" enable-background="new 0 0 64 64" height="512" viewBox="0 0 64 64" width="512" xmlns="http://www.w3.org/2000/svg"><path d="m37 32.414-10.414-10.414 4.414-4.414 6 6 18-18 4.414 4.414z" fill="#f0bc5e"/><path d="m35 39h10v5h10v4h-20z" fill="#f0bc5e"/><path d="m63 1h-35.414l-14.586 14.586v2.27c-.403.243-.786.516-1.121.851l-5.071 5.071c-2.456 2.455-3.808 5.721-3.808 9.193l.003 18.029h-2.003v12h20v-6h42zm-36 3.414v10.586h-10.586zm-22 28.557c0-2.938 1.144-5.701 3.222-7.779l4.778-4.778v17.586h-2v2h3.343c1.335 0 2.591-.521 3.535-1.465l4.793-4.793c.473-.471 1.126-.742 1.793-.742 1.398 0 2.536 1.138 2.536 2.535 0 .677-.264 1.313-.743 1.793l-7.793 7.793c-.944.944-1.464 2.2-1.464 3.536v2.343h-11.997zm14 28.029h-16v-8h16zm42-6h-40v-4h-2v-2.343c0-.802.312-1.556.878-2.122l7.793-7.793c.857-.856 1.329-1.996 1.329-3.207 0-2.501-2.035-4.535-4.536-4.535-1.211 0-2.35.472-3.207 1.328l-4.793 4.793c-.401.401-.915.674-1.464.799v-20.92h14v-14h32z"/><path d="m59 53v-18h-28v18zm-26-16h24v14h-24z"/><path d="m35 39h2v2h-2z"/><path d="m39 39h2v2h-2z"/><path d="m43 39h2v2h-2z"/><path d="m35 43h20v2h-20z"/><path d="m35 47h20v2h-20z"/><path d="m31 5h2v2h-2z"/><path d="m31 9h2v2h-2z"/><path d="m31 13h2v2h-2z"/><path d="m57 31h2v2h-2z"/><path d="m57 27h2v2h-2z"/><path d="m57 23h2v2h-2z"/></svg>