<?xml version="1.0"?>
<svg xmlns="http://www.w3.org/2000/svg" xmlns:xlink="http://www.w3.org/1999/xlink" xmlns:svgjs="http://svgjs.com/svgjs" version="1.1" width="512" height="512" x="0" y="0" viewBox="0 0 74 74" style="enable-background:new 0 0 512 512" xml:space="preserve" class=""><g><path xmlns="http://www.w3.org/2000/svg" d="m34.549 10.681a1 1 0 0 1 -.3-1.955l2.9-.91a1 1 0 0 1 .6 1.908l-2.9.91a.973.973 0 0 1 -.3.047z" fill="#ffffff" data-original="#000000" style="" class=""/><path xmlns="http://www.w3.org/2000/svg" d="m51.12 70.5h-28.24a1 1 0 0 1 -1-1v-56.18a1 1 0 0 1 .7-.955l4.669-1.46a1 1 0 0 1 .6 1.909l-3.969 1.241v54.445h26.24v-62.641l-5.372 1.676a1 1 0 0 1 -.6-1.91l6.67-2.08a1 1 0 0 1 1.3.955v65a1 1 0 0 1 -.998 1z" fill="#ffffff" data-original="#000000" style="" class=""/><path xmlns="http://www.w3.org/2000/svg" d="m67 70.5h-15.875a1 1 0 0 1 -1-1v-44.565a1 1 0 0 1 1.375-.927l15.876 6.446a1 1 0 0 1 .624.927v38.119a1 1 0 0 1 -1 1zm-14.875-2h13.875v-36.446l-13.875-5.634z" fill="#ffffff" data-original="#000000" style="" class=""/><path xmlns="http://www.w3.org/2000/svg" d="m22.875 70.5h-15.875a1 1 0 0 1 -1-1v-38.119a1 1 0 0 1 .624-.927l15.876-6.446a1 1 0 0 1 1.375.927v44.565a1 1 0 0 1 -1 1zm-14.875-2h13.875v-42.08l-13.875 5.634z" fill="#ffffff" data-original="#000000" style="" class=""/><path xmlns="http://www.w3.org/2000/svg" d="m71 70.5h-68a1 1 0 0 1 0-2h68a1 1 0 0 1 0 2z" fill="#ffffff" data-original="#000000" style="" class=""/><path xmlns="http://www.w3.org/2000/svg" d="m43.708 60.5h-1.833a1 1 0 0 1 0-2h1.833a1 1 0 0 1 0 2z" fill="#ffffff" data-original="#000000" style="" class=""/><path xmlns="http://www.w3.org/2000/svg" d="m32.125 60.5h-1.833a1 1 0 1 1 0-2h1.833a1 1 0 0 1 0 2z" fill="#ffffff" data-original="#000000" style="" class=""/><path xmlns="http://www.w3.org/2000/svg" d="m43.708 48.834h-1.833a1 1 0 0 1 0-2h1.833a1 1 0 0 1 0 2z" fill="#ffffff" data-original="#000000" style="" class=""/><path xmlns="http://www.w3.org/2000/svg" d="m32.125 48.834h-1.833a1 1 0 0 1 0-2h1.833a1 1 0 0 1 0 2z" fill="#ffffff" data-original="#000000" style="" class=""/><path xmlns="http://www.w3.org/2000/svg" d="m43.708 37.166h-1.833a1 1 0 0 1 0-2h1.833a1 1 0 0 1 0 2z" fill="#ffffff" data-original="#000000" style="" class=""/><path xmlns="http://www.w3.org/2000/svg" d="m32.125 37.166h-1.833a1 1 0 0 1 0-2h1.833a1 1 0 0 1 0 2z" fill="#ffffff" data-original="#000000" style="" class=""/><path xmlns="http://www.w3.org/2000/svg" d="m43.708 25.5h-1.833a1 1 0 0 1 0-2h1.833a1 1 0 0 1 0 2z" fill="#ffffff" data-original="#000000" style="" class=""/><path xmlns="http://www.w3.org/2000/svg" d="m32.125 25.5h-1.833a1 1 0 0 1 0-2h1.833a1 1 0 0 1 0 2z" fill="#ffffff" data-original="#000000" style="" class=""/><path xmlns="http://www.w3.org/2000/svg" d="m60.688 39.5h-2.438a1 1 0 0 1 0-2h2.438a1 1 0 0 1 0 2z" fill="#ffffff" data-original="#000000" style="" class=""/><path xmlns="http://www.w3.org/2000/svg" d="m60.688 47.217h-2.438a1 1 0 0 1 0-2h2.438a1 1 0 0 1 0 2z" fill="#ffffff" data-original="#000000" style="" class=""/><path xmlns="http://www.w3.org/2000/svg" d="m60.688 54.935h-2.438a1 1 0 0 1 0-2h2.438a1 1 0 0 1 0 2z" fill="#ffffff" data-original="#000000" style="" class=""/><path xmlns="http://www.w3.org/2000/svg" d="m60.688 62.652h-2.438a1 1 0 0 1 0-2h2.438a1 1 0 0 1 0 2z" fill="#ffffff" data-original="#000000" style="" class=""/><path xmlns="http://www.w3.org/2000/svg" d="m15.75 39.5h-2.438a1 1 0 1 1 0-2h2.438a1 1 0 0 1 0 2z" fill="#ffffff" data-original="#000000" style="" class=""/><path xmlns="http://www.w3.org/2000/svg" d="m15.75 47.217h-2.438a1 1 0 1 1 0-2h2.438a1 1 0 0 1 0 2z" fill="#ffffff" data-original="#000000" style="" class=""/><path xmlns="http://www.w3.org/2000/svg" d="m15.75 54.935h-2.438a1 1 0 1 1 0-2h2.438a1 1 0 0 1 0 2z" fill="#ffffff" data-original="#000000" style="" class=""/><path xmlns="http://www.w3.org/2000/svg" d="m15.75 62.652h-2.438a1 1 0 1 1 0-2h2.438a1 1 0 0 1 0 2z" fill="#ffffff" data-original="#000000" style="" class=""/></g></svg>
