<svg xmlns="http://www.w3.org/2000/svg" width="12.32" height="14" viewBox="0 0 12.32 14">
  <g id="_2639798_copy_icon" data-name="2639798_copy_icon" transform="translate(-4 -2)">
    <path id="Path_669" data-name="Path 669" d="M7.92,16.52a2.242,2.242,0,0,1-2.24-2.24V7H5.12A1.12,1.12,0,0,0,4,8.12v8.96A1.12,1.12,0,0,0,5.12,18.2H12.4a1.12,1.12,0,0,0,1.12-1.12v-.56Z" transform="translate(0 -2.2)" fill="#cfcfcf"/>
    <path id="Path_670" data-name="Path 670" d="M18.356,5.244l-3.08-3.08A.559.559,0,0,0,14.88,2H10.12A1.12,1.12,0,0,0,9,3.12v8.96a1.12,1.12,0,0,0,1.12,1.12H17.4a1.12,1.12,0,0,0,1.12-1.12V5.64A.559.559,0,0,0,18.356,5.244Zm-3.2.676a.56.56,0,0,1-.56-.56V3.066L17.454,5.92Z" transform="translate(-2.2)" fill="#cfcfcf"/>
  </g>
</svg>
