<svg xmlns="http://www.w3.org/2000/svg" width="35" height="21.001" viewBox="0 0 35 21.001">
  <g id="coupon" transform="translate(-13.9 -110.7)">
    <path id="Path_233" data-name="Path 233" d="M48.394,110.7h-34a.5.5,0,0,0-.5.5v5.1a.5.5,0,0,0,.4.491,4.5,4.5,0,0,1,0,8.817.5.5,0,0,0-.4.491v5.1a.5.5,0,0,0,.5.5h34a.5.5,0,0,0,.5-.5v-5.1a.5.5,0,0,0-.4-.491,4.5,4.5,0,0,1,0-8.817.5.5,0,0,0,.4-.491v-5.1A.5.5,0,0,0,48.394,110.7Zm-.5,5.211a5.5,5.5,0,0,0,0,10.587V130.7h-33V126.5a5.5,5.5,0,0,0,0-10.587V111.7h33Z" fill="#111"/>
    <path id="Path_234" data-name="Path 234" d="M353.4,113.519a.5.5,0,0,1-.5-.5V111.2a.5.5,0,1,1,1,0v1.821A.5.5,0,0,1,353.4,113.519Z" transform="translate(-314.501 0)" fill="#111"/>
    <path id="Path_235" data-name="Path 235" d="M353.4,176.419a.5.5,0,0,1-.5-.5V174.1a.5.5,0,0,1,1,0v1.821A.5.5,0,0,1,353.4,176.419Z" transform="translate(-314.501 -58.354)" fill="#111"/>
    <path id="Path_236" data-name="Path 236" d="M353.4,239.319a.5.5,0,0,1-.5-.5V237a.5.5,0,0,1,1,0v1.821A.5.5,0,0,1,353.4,239.319Z" transform="translate(-314.501 -116.709)" fill="#111"/>
    <path id="Path_237" data-name="Path 237" d="M353.4,302.219a.5.5,0,0,1-.5-.5V299.9a.5.5,0,0,1,1,0v1.821A.5.5,0,0,1,353.4,302.219Z" transform="translate(-314.501 -175.063)" fill="#111"/>
    <path id="Path_238" data-name="Path 238" d="M353.4,365.118a.5.5,0,0,1-.5-.5V362.8a.5.5,0,1,1,1,0v1.821A.5.5,0,0,1,353.4,365.118Z" transform="translate(-314.501 -233.417)" fill="#111"/>
    <path id="Path_239" data-name="Path 239" d="M138.4,196.987a.5.5,0,0,1-.354-.853l9.265-9.272a.5.5,0,0,1,.723.694l-.014.014-9.265,9.272a.5.5,0,0,1-.354.145Z" transform="translate(-115.039 -70.518)" fill="#111"/>
    <path id="Path_240" data-name="Path 240" d="M222.013,268.3a2.31,2.31,0,1,0,2.313,2.313A2.315,2.315,0,0,0,222.013,268.3Zm0,3.621a1.308,1.308,0,1,1,1.308-1.308A1.308,1.308,0,0,1,222.013,271.921Z" transform="translate(-190.927 -146.21)" fill="#111"/>
    <path id="Path_242" data-name="Path 242" d="M133.713,179.3a2.313,2.313,0,1,0,2.313,2.313A2.315,2.315,0,0,0,133.713,179.3Zm0,3.621a1.308,1.308,0,1,1,1.308-1.308A1.308,1.308,0,0,1,133.713,182.921Z" transform="translate(-109.008 -63.642)" fill="#111"/>
  </g>
</svg>
