<svg width="12" height="22" viewBox="0 0 12 22" fill="none" xmlns="http://www.w3.org/2000/svg">
<path d="M5.58083 0C4.49313 0.00024104 3.42993 0.322984 2.52565 0.927424C1.62137 1.53186 0.916594 2.39086 0.500464 3.3958C0.0843331 4.40075 -0.0244837 5.50651 0.187774 6.57329C0.400031 7.64008 0.923829 8.61997 1.69294 9.38909C2.46206 10.1582 3.44195 10.682 4.50874 10.8943C5.57552 11.1065 6.68129 10.9977 7.68623 10.5816C8.69118 10.1654 9.55018 9.46068 10.1546 8.55639C10.7591 7.65211 11.0818 6.58891 11.082 5.50122C11.0804 4.0427 10.5003 2.64438 9.46899 1.61305C8.43766 0.581722 7.03934 0.00161287 5.58083 0Z" fill="#362D1E"/>
<path d="M7.70575 12H3.46218C2.54433 12.0011 1.66443 12.3281 1.0154 12.9094C0.366381 13.4906 0.00122039 14.2786 0 15.1006V21.3795C0 21.5441 0.0729852 21.7019 0.202912 21.8183C0.332838 21.9346 0.509056 22 0.6928 22H10.4714C10.6552 22 10.8314 21.9346 10.9613 21.8183C11.0913 21.7019 11.1642 21.5441 11.1642 21.3795V15.1006C11.163 14.2792 10.7984 13.4917 10.1502 12.9105C9.50193 12.3294 8.62297 12.002 7.70575 12Z" fill="#362D1E"/>
</svg>
