<svg width="48" height="48" viewBox="0 0 48 48" fill="none" xmlns="http://www.w3.org/2000/svg">
<path fill-rule="evenodd" clip-rule="evenodd" d="M4 8C4 6.89543 4.89543 6 6 6H9V42H6C4.89543 42 4 41.1046 4 40V8ZM11 42H28C29.1046 42 30 41.1046 30 40V8C30 6.89543 29.1046 6 28 6H11V42Z" fill="#362D1E"/>
<path fill-rule="evenodd" clip-rule="evenodd" d="M36 7C36 6.44772 36.4477 6 37 6H43C43.5523 6 44 6.44772 44 7V9C44 9.55228 43.5523 10 43 10H37C36.4477 10 36 9.55228 36 9V7ZM37 12C36.4477 12 36 12.4477 36 13V37.5858C36 37.851 36.1054 38.1054 36.2929 38.2929L39.2929 41.2929C39.6834 41.6834 40.3166 41.6834 40.7071 41.2929L43.7071 38.2929C43.8946 38.1054 44 37.851 44 37.5858V13C44 12.4477 43.5523 12 43 12H37Z" fill="#362D1E"/>
</svg>
