<svg xmlns="http://www.w3.org/2000/svg" width="20" height="24.615" viewBox="0 0 20 24.615">
  <g id="trash_2_" data-name="trash (2)" transform="translate(-48)">
    <path id="Path_551" data-name="Path 551" d="M66.077,3.077H61.846V2.308A2.308,2.308,0,0,0,59.538,0H56.462a2.308,2.308,0,0,0-2.308,2.308v.769H49.923A1.923,1.923,0,0,0,48,5V6.538a.769.769,0,0,0,.769.769H67.231A.769.769,0,0,0,68,6.538V5A1.923,1.923,0,0,0,66.077,3.077ZM55.692,2.308a.77.77,0,0,1,.769-.769h3.077a.77.77,0,0,1,.769.769v.769H55.692Z" fill="#474747"/>
    <path id="Path_552" data-name="Path 552" d="M73.6,184a.24.24,0,0,0-.24.252L74,197.571a2.3,2.3,0,0,0,2.3,2.2H87.986a2.3,2.3,0,0,0,2.3-2.2l.635-13.319a.24.24,0,0,0-.24-.252Zm11.617,1.923a.769.769,0,0,1,1.538,0v10a.769.769,0,1,1-1.538,0Zm-3.846,0a.769.769,0,0,1,1.538,0v10a.769.769,0,1,1-1.538,0Zm-3.846,0a.769.769,0,0,1,1.538,0v10a.769.769,0,1,1-1.538,0Z" transform="translate(-24.145 -175.154)" fill="#474747"/>
  </g>
</svg>
