<?xml version="1.0" encoding="iso-8859-1"?>
<!-- Generator: Adobe Illustrator 19.0.0, SVG Export Plug-In . SVG Version: 6.00 Build 0)  -->
<svg version="1.1" id="Layer_1" xmlns="http://www.w3.org/2000/svg" xmlns:xlink="http://www.w3.org/1999/xlink" x="0px" y="0px"
	 viewBox="0 0 496.128 496.128" style="enable-background:new 0 0 496.128 496.128;" xml:space="preserve">
<g>
	<rect x="360.064" y="192.128" style="fill:#F9BA48;" width="136" height="112"/>
	<rect x="200.064" y="192.128" style="fill:#F9BA48;" width="96" height="112"/>
	<rect x="0.064" y="192.128" style="fill:#F9BA48;" width="136" height="112"/>
</g>
<g>
	<path style="fill:#333333;" d="M384.064,334.32c-5.024,4.504-8,10.984-8,17.808s2.976,13.296,8,17.808v38.192c0,4.416-3.584,8-8,8
		h-8V174.656c9.288-3.312,16-12.112,16-22.528c0-9.768-5.88-18.16-14.272-21.896l15.04-60.168L328.064,3.84l-56.768,66.216
		l15.04,60.168c-8.392,3.744-14.272,12.136-14.272,21.904c0,10.416,6.712,19.216,16,22.528v281.472c0,22.056,17.944,40,40,40
		s40-17.944,40-40v-24h8c13.232,0,24-10.768,24-24v-46.824l-3.976-2.312c-2.52-1.464-4.024-4.032-4.024-6.864s1.504-5.4,4.024-6.864
		l3.976-2.312v-22.824h-16V334.32z M352.064,384.128h-48v-208h48V384.128z M304.064,400.128h48v16h-48V400.128z M360.064,160.128
		h-64c-4.416,0-8-3.584-8-8c0-4.416,3.584-8,8-8h64c4.416,0,8,3.584,8,8C368.064,156.544,364.48,160.128,360.064,160.128z
		 M336.064,80.128c0,4.416-3.584,8-8,8s-8-3.584-8-8s3.584-8,8-8S336.064,75.712,336.064,80.128z M320.064,37.752V57.6
		c-9.288,3.312-16,12.112-16,22.528c0,13.232,10.768,24,24,24s24-10.768,24-24c0-10.416-6.712-19.216-16-22.528V37.752L367.296,74.2
		l-13.48,53.928h-51.504L288.824,74.2L320.064,37.752z M352.064,456.128c0,13.232-10.768,24-24,24s-24-10.768-24-24v-24h48V456.128z
		"/>
	<path style="fill:#333333;" d="M128.064,70v386.128c0,22.056,17.944,40,40,40s40-17.944,40-40V70l-40-70L128.064,70z
		 M186.28,64.128h-36.432l18.216-31.872L186.28,64.128z M160.064,80.128v312h-16v-312H160.064z M192.064,408.128v16h-48v-16H192.064
		z M176.064,392.128v-312h16v312H176.064z M168.064,480.128c-13.232,0-24-10.768-24-24v-16h48v16
		C192.064,469.36,181.296,480.128,168.064,480.128z"/>
	<rect x="32.064" y="200.128" style="fill:#333333;" width="16" height="32"/>
	<rect x="64.064" y="200.128" style="fill:#333333;" width="16" height="40"/>
	<rect x="96.064" y="200.128" style="fill:#333333;" width="16" height="32"/>
	<rect x="224.064" y="200.128" style="fill:#333333;" width="16" height="32"/>
	<rect x="256.064" y="200.128" style="fill:#333333;" width="16" height="40"/>
	<rect x="416.064" y="200.128" style="fill:#333333;" width="16" height="32"/>
	<rect x="448.064" y="200.128" style="fill:#333333;" width="16" height="40"/>
	<rect x="384.064" y="200.128" style="fill:#333333;" width="16" height="40"/>
</g>
<g>
</g>
<g>
</g>
<g>
</g>
<g>
</g>
<g>
</g>
<g>
</g>
<g>
</g>
<g>
</g>
<g>
</g>
<g>
</g>
<g>
</g>
<g>
</g>
<g>
</g>
<g>
</g>
<g>
</g>
</svg>
