<svg xmlns="http://www.w3.org/2000/svg" width="28.364" height="26" viewBox="0 0 28.364 26">
  <g id="details_2_" data-name="details (2)" transform="translate(0 -21.166)">
    <path id="Path_536" data-name="Path 536" d="M347.235,201.083h-7.682a.886.886,0,0,0,0,1.773h7.682a.886.886,0,0,0,0-1.773Z" transform="translate(-319.758 -169.871)" fill="#474747"/>
    <path id="Path_537" data-name="Path 537" d="M347.235,264.583h-7.682a.886.886,0,0,0,0,1.773h7.682a.886.886,0,0,0,0-1.773Z" transform="translate(-319.758 -229.825)" fill="#474747"/>
    <path id="Path_538" data-name="Path 538" d="M347.235,328.083h-7.682a.886.886,0,0,0,0,1.773h7.682a.886.886,0,0,0,0-1.773Z" transform="translate(-319.758 -289.78)" fill="#474747"/>
    <path id="Path_539" data-name="Path 539" d="M347.235,391.583h-7.682a.886.886,0,0,0,0,1.773h7.682a.886.886,0,0,0,0-1.773Z" transform="translate(-319.758 -349.734)" fill="#474747"/>
    <path id="Path_540" data-name="Path 540" d="M347.235,455.083h-7.682a.886.886,0,0,0,0,1.773h7.682a.886.886,0,0,0,0-1.773Z" transform="translate(-319.758 -409.689)" fill="#474747"/>
    <path id="Path_541" data-name="Path 541" d="M14.477,201.083H2.068A2.078,2.078,0,0,0,0,203.151v11.818a2.078,2.078,0,0,0,2.068,2.068H14.477a2.078,2.078,0,0,0,2.068-2.068V203.151A2.078,2.078,0,0,0,14.477,201.083Zm-6.2,4.136A1.773,1.773,0,1,1,6.5,206.992,1.77,1.77,0,0,1,8.273,205.219Zm3.545,7.386a.893.893,0,0,1-.886.886H5.614a.893.893,0,0,1-.886-.886v-.437a2.361,2.361,0,0,1,2.482-2.222H9.336a2.361,2.361,0,0,1,2.482,2.222Z" transform="translate(0 -169.871)" fill="#474747"/>
    <path id="Path_542" data-name="Path 542" d="M26.3,21.167H2.068A2.07,2.07,0,0,0,0,23.235V26.19a2.07,2.07,0,0,0,2.068,2.068H26.3a2.07,2.07,0,0,0,2.068-2.068V23.235A2.071,2.071,0,0,0,26.3,21.167Z" transform="translate(0 0)" fill="#474747"/>
  </g>
</svg>
