<svg xmlns="http://www.w3.org/2000/svg" width="30.8" height="35" viewBox="0 0 30.8 35">
  <g id="Permit" transform="translate(-5.2 -1)">
    <g id="Group_99" data-name="Group 99" transform="translate(5.2 1)">
      <path id="Path_140" data-name="Path 140" d="M35.5,6.8H33.1V4.4a.5.5,0,0,0-.5-.5H30.2V1.5a.5.5,0,0,0-.5-.5H8.45a.5.5,0,0,0-.5.5v23H5.7a.5.5,0,0,0-.5.5v1.25A3.958,3.958,0,0,0,9.15,30.2h1.7v2.4a.5.5,0,0,0,.5.5h2.4v2.4a.5.5,0,0,0,.5.5H29.6a.5.5,0,0,0,.5-.5.538.538,0,0,0-.5-.5H14.75V33.1H32.6a.5.5,0,0,0,.5-.5V24.5a.5.5,0,0,0-.5-.5.538.538,0,0,0-.5.5v7.55H11.85v-1.9H29.7a.5.5,0,0,0,.5-.5V4.95h1.9V29.8a.5.5,0,0,0,.5.5.538.538,0,0,0,.5-.5V7.85H35V35H26.85a.5.5,0,0,0-.5.5.538.538,0,0,0,.5.5H35.5a.5.5,0,0,0,.5-.5V7.3A.5.5,0,0,0,35.5,6.8ZM29.2,29.15H26.35a2.9,2.9,0,0,1-2.9-2.9V25a.5.5,0,0,0-.5-.5h-8.6a.5.5,0,0,0-.5.5.538.538,0,0,0,.5.5h8.1v.7a3.853,3.853,0,0,0,1.3,2.9H9.1a2.9,2.9,0,0,1-2.9-2.9v-.7H16.95a.5.5,0,0,0,.5-.5.538.538,0,0,0-.5-.5h-8V2H29.2Z" transform="translate(-5.2 -1)" fill="rgba(51,51,51,0.6)"/>
      <path id="Path_141" data-name="Path 141" d="M15.9,15.3h6.55a.5.5,0,0,0,.5-.5V8.2a.5.5,0,0,0-.5-.5H15.9a.5.5,0,0,0-.5.5v6.55A.548.548,0,0,0,15.9,15.3Zm.55-6.55H22V14.3H16.45Z" transform="translate(-10.3 -4.35)" fill="rgba(51,51,51,0.6)"/>
      <path id="Path_142" data-name="Path 142" d="M41.4,19H33.9a.5.5,0,0,0-.5.5.538.538,0,0,0,.5.5h7.5a.5.5,0,0,0,0-1Z" transform="translate(-19.3 -10)" fill="rgba(51,51,51,0.6)"/>
      <path id="Path_143" data-name="Path 143" d="M24.3,28.894a.5.5,0,0,0,.5.5h7.6a.5.5,0,0,0,.5-.5.538.538,0,0,0-.5-.5H24.8A.471.471,0,0,0,24.3,28.894Z" transform="translate(-14.75 -14.694)" fill="rgba(51,51,51,0.6)"/>
      <path id="Path_144" data-name="Path 144" d="M41.4,14.3H33.9a.5.5,0,0,0-.5.5.538.538,0,0,0,.5.5h7.5a.5.5,0,1,0,0-1Z" transform="translate(-19.3 -7.65)" fill="rgba(51,51,51,0.6)"/>
      <path id="Path_145" data-name="Path 145" d="M41.4,9.5H33.9a.5.5,0,0,0-.5.5.538.538,0,0,0,.5.5h7.5a.5.5,0,0,0,0-1Z" transform="translate(-19.3 -5.25)" fill="rgba(51,51,51,0.6)"/>
      <path id="Path_146" data-name="Path 146" d="M32.4,40.5H15.9a.5.5,0,0,0-.5.5.538.538,0,0,0,.5.5H32.35a.5.5,0,0,0,.5-.5A.46.46,0,0,0,32.4,40.5Z" transform="translate(-10.3 -20.75)" fill="rgba(51,51,51,0.6)"/>
      <path id="Path_147" data-name="Path 147" d="M39.95,34.4H31a.5.5,0,0,0-.5.5.538.538,0,0,0,.5.5h8.95a.5.5,0,0,0,0-1Z" transform="translate(-17.85 -17.7)" fill="rgba(51,51,51,0.6)"/>
      <path id="Path_148" data-name="Path 148" d="M15.9,35.4h5.15a.5.5,0,0,0,.5-.5.538.538,0,0,0-.5-.5H15.9a.5.5,0,1,0,0,1Z" transform="translate(-10.3 -17.7)" fill="rgba(51,51,51,0.6)"/>
    </g>
  </g>
</svg>
