<svg id="email" xmlns="http://www.w3.org/2000/svg" width="16.459" height="12.126" viewBox="0 0 16.459 12.126">
  <g id="Group_840" data-name="Group 840" transform="translate(0 3.42)">
    <g id="Group_839" data-name="Group 839" transform="translate(0 0)">
      <path id="Path_362" data-name="Path 362" d="M8.706,151.922a.935.935,0,0,1-.972,0L0,147.2v6.277a2.43,2.43,0,0,0,2.429,2.429h11.6a2.43,2.43,0,0,0,2.429-2.429V147.2Z" transform="translate(0 -147.2)" fill="#dbdad9"/>
    </g>
  </g>
  <g id="Group_842" data-name="Group 842" transform="translate(0.078 0)">
    <g id="Group_841" data-name="Group 841" transform="translate(0 0)">
      <path id="Path_363" data-name="Path 363" d="M16,57.088H4.4a2.415,2.415,0,0,0-2.351,1.9l8.162,4.975,8.142-4.975A2.415,2.415,0,0,0,16,57.088Z" transform="translate(-2.048 -57.088)" fill="#dbdad9"/>
    </g>
  </g>
</svg>
