<svg id="Group_403" data-name="Group 403" xmlns="http://www.w3.org/2000/svg" width="35" height="35" viewBox="0 0 35 35">
  <g id="transfer">
    <path id="Subtraction_3" data-name="Subtraction 3" d="M8.75,17.5A8.75,8.75,0,1,1,17.5,8.75,8.759,8.759,0,0,1,8.75,17.5ZM6.564,11.667a.729.729,0,1,0,0,1.458H8.022v.728a.729.729,0,0,0,1.458,0V13.1A2.552,2.552,0,0,0,9.116,8.02H8.388a1.093,1.093,0,1,1,0-2.187h2.552a.729.729,0,0,0,0-1.458H9.481v-.73a.729.729,0,0,0-1.458,0V4.4a2.552,2.552,0,0,0,.365,5.078h.728a1.094,1.094,0,0,1,0,2.189Z" transform="translate(8.749 7.292)" fill="#362d1e"/>
    <path id="Union_6" data-name="Union 6" d="M3.13,19.475.213,16.558a.73.73,0,0,1,0-1.031L3.13,12.611a.729.729,0,0,1,1.031,1.03L2.529,15.274A14.6,14.6,0,0,0,16.042.729a.729.729,0,0,1,1.458,0A16.062,16.062,0,0,1,2.459,16.74l1.7,1.7a.73.73,0,0,1,0,1.031.721.721,0,0,1-.515.214A.733.733,0,0,1,3.13,19.475Z" transform="translate(16.041 15.313)" fill="#362d1e"/>
    <path id="Union_5" data-name="Union 5" d="M24.4,12.442,20.61,10.254a.729.729,0,1,1,.729-1.263l2.226,1.285A14.57,14.57,0,0,0,10.18,1.459,14.214,14.214,0,0,0,1.186,4.607.729.729,0,1,1,.272,3.471,15.653,15.653,0,0,1,10.18,0,16.033,16.033,0,0,1,25,9.933l1.314-2.276a.729.729,0,0,1,1.264.729l-2.188,3.789a.73.73,0,0,1-1,.267Z" transform="translate(7.321)" fill="#362d1e"/>
    <path id="Union_7" data-name="Union 7" d="M12.154,25.167a16.023,16.023,0,0,1-10.7-15.111A15.783,15.783,0,0,1,3.765,1.8L.918,2.563A.729.729,0,0,1,.54,1.154L4.767.023A.734.734,0,0,1,5.66.538L6.791,4.762a.729.729,0,0,1-.515.894.766.766,0,0,1-.189.025.731.731,0,0,1-.7-.54l-.592-2.21a14.357,14.357,0,0,0-1.874,7.125A14.559,14.559,0,0,0,12.638,23.79a.73.73,0,0,1-.484,1.377Z" transform="translate(0 5.986)" fill="#362d1e"/>
  </g>
</svg>
