<svg id="Group_2254" data-name="Group 2254" xmlns="http://www.w3.org/2000/svg" width="18.333" height="20" viewBox="0 0 18.333 20">
  <path id="Path_302" data-name="Path 302" d="M3.5,5.625A3.963,3.963,0,0,1,7.458,1.667h7.611A2.287,2.287,0,0,0,12.875,0H3.292A2.294,2.294,0,0,0,1,2.292V15.208A2.294,2.294,0,0,0,3.292,17.5H3.5Z" transform="translate(-1)" fill="#4d463a"/>
  <path id="Path_303" data-name="Path 303" d="M17.875,4H8.292A2.294,2.294,0,0,0,6,6.292V18.375a2.294,2.294,0,0,0,2.292,2.292h9.583a2.294,2.294,0,0,0,2.292-2.292V6.292A2.294,2.294,0,0,0,17.875,4ZM16.208,18.167H9.958a.625.625,0,0,1,0-1.25h6.25a.625.625,0,1,1,0,1.25Zm0-3.333H9.958a.625.625,0,1,1,0-1.25h6.25a.625.625,0,1,1,0,1.25Zm0-2.917H9.958a.625.625,0,0,1,0-1.25h6.25a.625.625,0,1,1,0,1.25Zm0-3.333H9.958a.625.625,0,0,1,0-1.25h6.25a.625.625,0,1,1,0,1.25Z" transform="translate(-1.833 -0.667)" fill="#4d463a"/>
</svg>
