<svg xmlns="http://www.w3.org/2000/svg" xmlns:xlink="http://www.w3.org/1999/xlink" width="49.088" height="57.65" viewBox="0 0 49.088 57.65">
  <defs>
    <clipPath id="clip-path">
      <path id="Path_635" data-name="Path 635" d="M32.613,24.6,46.86,62.945a2.366,2.366,0,0,0,3.034,1.39L66.666,58.1a2.366,2.366,0,0,0,1.39-3.034L53.808,16.726a2.366,2.366,0,0,0-3.034-1.39L34,21.567A2.367,2.367,0,0,0,32.613,24.6Z" transform="translate(-32.466 -15.188)" fill="#00a083"/>
    </clipPath>
    <clipPath id="clip-path-2">
      <path id="Path_643" data-name="Path 643" d="M98.048,69.461H94.677v11.22h3.371a1.4,1.4,0,0,0,1.4-1.4V70.863A1.4,1.4,0,0,0,98.048,69.461Z" transform="translate(-94.677 -69.461)" fill="#372f1c"/>
    </clipPath>
  </defs>
  <g id="Group_2274" data-name="Group 2274" transform="translate(-28.158 -17.539)">
    <g id="Group_2264" data-name="Group 2264" transform="translate(30.613 17.539)">
      <path id="Path_630" data-name="Path 630" d="M46.851,18.724,29.874,55.941a2.366,2.366,0,0,0,1.167,3.126l16.278,7.426a2.366,2.366,0,0,0,3.126-1.167L67.423,28.109a2.366,2.366,0,0,0-1.168-3.126L49.978,17.557A2.368,2.368,0,0,0,46.851,18.724Z" transform="translate(-29.662 -16.073)" fill="#034e41"/>
      <path id="Path_631" data-name="Path 631" d="M42.889,20.522,40.708,61.37a2.367,2.367,0,0,0,2.231,2.482l17.866.954a2.367,2.367,0,0,0,2.482-2.231l2.182-40.848a2.367,2.367,0,0,0-2.231-2.482l-17.866-.954A2.368,2.368,0,0,0,42.889,20.522Z" transform="translate(-34.19 -16.46)" fill="#007863"/>
      <path id="Path_632" data-name="Path 632" d="M32.613,24.6,46.86,62.945a2.366,2.366,0,0,0,3.034,1.39L66.666,58.1a2.366,2.366,0,0,0,1.39-3.034L53.808,16.726a2.366,2.366,0,0,0-3.034-1.39L34,21.567A2.367,2.367,0,0,0,32.613,24.6Z" transform="translate(-30.812 -15.188)" fill="#89bc49"/>
      <path id="Path_633" data-name="Path 633" d="M32.613,24.6,46.86,62.945a2.366,2.366,0,0,0,3.034,1.39L66.666,58.1a2.366,2.366,0,0,0,1.39-3.034L53.808,16.726a2.366,2.366,0,0,0-3.034-1.39L34,21.567A2.367,2.367,0,0,0,32.613,24.6Z" transform="translate(-30.812 -15.188)" fill="#007863"/>
      <g id="Group_2263" data-name="Group 2263" transform="translate(1.654)">
        <g id="Group_2262" data-name="Group 2262" clip-path="url(#clip-path)">
          <path id="Path_634" data-name="Path 634" d="M36.8,18.753c.067.146.135.293.192.445h0l9.085-3.374v0c-.057-.153-.1-.308-.146-.463L52.56,12.9l2.405,6.474c-.169.082-.34.161-.518.229L65.841,50.265c.18-.064.36-.117.542-.165l2.743,7.383L62.631,59.9a6.5,6.5,0,0,1-.666-1.3h0l-9.085,3.374v0a6.443,6.443,0,0,1,.347,1.422l-6.283,2.334-2.749-7.4c.126-.056.249-.114.379-.163L33.186,27.5c-.13.048-.263.084-.393.124l-2.412-6.491ZM34.965,26.5,46.583,57.765a6.47,6.47,0,0,1,5.289,2.423l9.7-3.6a6.473,6.473,0,0,1,2.483-5.34l-11.6-31.22A6.474,6.474,0,0,1,47.086,17.6l-9.7,3.6A6.469,6.469,0,0,1,34.965,26.5Z" transform="translate(-31.611 -14.249)" fill="#00a083"/>
        </g>
      </g>
      <ellipse id="Ellipse_124" data-name="Ellipse 124" cx="5.451" cy="6.965" rx="5.451" ry="6.965" transform="translate(14.891 32.182) rotate(-110.383)" fill="#00a083"/>
      <path id="Path_636" data-name="Path 636" d="M48.795,31.767l1.474,3.967a2.7,2.7,0,0,0,3.477,1.593l.267-.1A2.7,2.7,0,0,0,55.6,33.751l-1.474-3.967a2.7,2.7,0,0,0-3.477-1.593l-.267.1A2.7,2.7,0,0,0,48.795,31.767Z" transform="translate(-37.438 -20.451)" fill="#00a083"/>
      <path id="Path_637" data-name="Path 637" d="M64.384,73.726l1.474,3.967a2.7,2.7,0,0,0,3.477,1.593l.267-.1a2.7,2.7,0,0,0,1.593-3.477L69.72,71.744a2.7,2.7,0,0,0-3.477-1.593l-.267.1A2.7,2.7,0,0,0,64.384,73.726Z" transform="translate(-43.83 -37.656)" fill="#3c9c36"/>
    </g>
    <path id="Path_638" data-name="Path 638" d="M73.179,86.979H30.823a2.665,2.665,0,0,1-2.665-2.665V53.178a2.665,2.665,0,0,1,2.665-2.665H73.179a2.665,2.665,0,0,1,2.665,2.665V84.314A2.665,2.665,0,0,1,73.179,86.979Z" transform="translate(0 -11.792)" fill="#615740"/>
    <path id="Path_639" data-name="Path 639" d="M88.435,50.513h-2.1a2.805,2.805,0,0,1,2.805,2.805v20.3L74.282,72.308,88.215,86.24a2.784,2.784,0,0,1-1.883.739h2.1a2.806,2.806,0,0,0,2.805-2.805V53.318A2.806,2.806,0,0,0,88.435,50.513Z" transform="translate(-15.396 -11.792)" fill="#2b261a" opacity="0.67"/>
    <path id="Path_640" data-name="Path 640" d="M69.471,85.61H68.063a.35.35,0,0,1,0-.7h1.408a.35.35,0,1,1,0,.7Zm-4.929,0H63.134a.35.35,0,1,1,0-.7h1.408a.35.35,0,0,1,0,.7Zm-4.928,0H58.206a.35.35,0,1,1,0-.7h1.408a.35.35,0,0,1,0,.7Zm-4.928,0H53.279a.35.35,0,1,1,0-.7h1.408a.35.35,0,0,1,0,.7Zm-4.928,0H48.349a.35.35,0,0,1,0-.7h1.409a.35.35,0,1,1,0,.7Zm-4.929,0H43.422a.35.35,0,1,1,0-.7h1.408a.35.35,0,1,1,0,.7Zm-4.928,0H38.494a.35.35,0,0,1,0-.7H39.9a.35.35,0,0,1,0,.7Zm-4.928,0h-.019A1.053,1.053,0,0,1,33.9,84.558v-.306a.35.35,0,1,1,.7,0v.306a.351.351,0,0,0,.35.35.358.358,0,0,1,.36.35A.341.341,0,0,1,34.974,85.61ZM72.989,85.6a.351.351,0,0,1-.053-.7.353.353,0,0,0,.3-.346v-.415a.35.35,0,0,1,.7,0v.415a1.047,1.047,0,0,1-.889,1.039A.365.365,0,0,1,72.989,85.6ZM34.254,81.082a.35.35,0,0,1-.35-.35V79.323a.35.35,0,0,1,.7,0v1.409A.35.35,0,0,1,34.254,81.082Zm39.329-.109a.35.35,0,0,1-.35-.35V79.214a.35.35,0,0,1,.7,0v1.409A.35.35,0,0,1,73.583,80.974Zm-39.329-4.82a.35.35,0,0,1-.35-.35V74.4a.35.35,0,0,1,.7,0V75.8A.35.35,0,0,1,34.254,76.154Zm0-4.928a.35.35,0,0,1-.35-.35V69.467a.35.35,0,0,1,.7,0v1.408A.351.351,0,0,1,34.254,71.226Zm0-4.928a.35.35,0,0,1-.35-.35V64.54a.35.35,0,0,1,.7,0v1.408A.351.351,0,0,1,34.254,66.3Zm0-4.929a.35.35,0,0,1-.35-.35V59.611a.35.35,0,1,1,.7,0v1.408A.35.35,0,0,1,34.254,61.369Zm39.329-.109a.35.35,0,0,1-.35-.35V59.5a.35.35,0,0,1,.7,0V60.91A.35.35,0,0,1,73.583,61.26ZM34.254,56.441a.35.35,0,0,1-.35-.35v-.406a1.058,1.058,0,0,1,.9-1.042.356.356,0,0,1,.4.3.35.35,0,0,1-.3.4.352.352,0,0,0-.3.347v.406A.352.352,0,0,1,34.254,56.441Zm39.329-.109a.35.35,0,0,1-.35-.35v-.3a.351.351,0,0,0-.35-.35.355.355,0,0,1-.356-.35.347.347,0,0,1,.346-.35h.009a1.053,1.053,0,0,1,1.052,1.052v.3A.35.35,0,0,1,73.583,56.332Zm-4.23-1H67.945a.35.35,0,0,1,0-.7h1.408a.35.35,0,1,1,0,.7Zm-4.929,0H63.016a.35.35,0,0,1,0-.7h1.408a.35.35,0,0,1,0,.7Zm-4.928,0H58.089a.35.35,0,0,1,0-.7H59.5a.35.35,0,0,1,0,.7Zm-4.928,0H53.159a.35.35,0,1,1,0-.7h1.409a.35.35,0,0,1,0,.7Zm-4.929,0H48.232a.35.35,0,1,1,0-.7H49.64a.35.35,0,0,1,0,.7Zm-4.929,0H43.3a.35.35,0,0,1,0-.7h1.408a.35.35,0,0,1,0,.7Zm-4.928,0H38.375a.35.35,0,0,1,0-.7h1.409a.35.35,0,0,1,0,.7Z" transform="translate(-1.918 -13.167)" fill="#edc773"/>
    <path id="Path_641" data-name="Path 641" d="M30.262,84.173V53.318a2.805,2.805,0,0,1,2.805-2.805h-2.1a2.805,2.805,0,0,0-2.805,2.805V84.174a2.805,2.805,0,0,0,2.805,2.805h2.1A2.806,2.806,0,0,1,30.262,84.173Z" transform="translate(0 -11.792)" fill="#fffad1" opacity="0.2"/>
    <path id="Path_642" data-name="Path 642" d="M90.671,80.681H77.7a5.33,5.33,0,0,1-5.33-5.33v-.561a5.33,5.33,0,0,1,5.33-5.33H90.671A1.332,1.332,0,0,1,92,70.793v8.555A1.332,1.332,0,0,1,90.671,80.681Z" transform="translate(-14.757 -18.116)" fill="#4b422d"/>
    <g id="Group_2266" data-name="Group 2266" transform="translate(72.473 51.345)">
      <g id="Group_2265" data-name="Group 2265" transform="translate(0)" clip-path="url(#clip-path-2)">
        <rect id="Rectangle_1047" data-name="Rectangle 1047" width="2.104" height="17.104" transform="translate(2.669 -2.552)" fill="#372f1c"/>
      </g>
    </g>
    <g id="Group_2269" data-name="Group 2269" transform="translate(60.416 54.364)">
      <circle id="Ellipse_125" data-name="Ellipse 125" cx="2.59" cy="2.59" r="2.59" transform="translate(0)" fill="#d8b997"/>
      <path id="Path_646" data-name="Path 646" d="M77.981,76.6a4.192,4.192,0,0,1,.811-2.552,2.578,2.578,0,0,0,0,5.1A4.192,4.192,0,0,1,77.981,76.6Z" transform="translate(-76.579 -74.013)" fill="#f1d2ae"/>
      <path id="Path_647" data-name="Path 647" d="M81.843,76.6a4.192,4.192,0,0,1-.811,2.552,2.578,2.578,0,0,0,0-5.1A4.189,4.189,0,0,1,81.843,76.6Z" transform="translate(-78.065 -74.013)" fill="#c8a57e"/>
    </g>
  </g>
</svg>
