<svg xmlns="http://www.w3.org/2000/svg" width="26.469" height="30" viewBox="0 0 26.469 30">
  <g id="Group_2199" data-name="Group 2199" transform="translate(-176.896 -181)">
    <path id="Path_620" data-name="Path 620" d="M196.42,181.388a.537.537,0,0,0-.093-.388H176.994a.764.764,0,0,0-.093.534q0,13.576,0,27.153c0,.617.027.644.641.644h7.645c.677,0,.69-.012.69-.683v-11.16c0-.453.006-.458.456-.459,1.25,0,2.5,0,3.749,0a.577.577,0,0,0,.614-.387,5.535,5.535,0,0,1,.6-1.039c.09-.13.293-.254.2-.418s-.318-.1-.488-.1q-3.134,0-6.268,0c-.117,0-.235,0-.352,0-.182,0-.267-.081-.268-.265,0-.3,0-.605,0-.908,0-.375.021-.394.4-.394q3.9,0,7.791,0c.366,0,.4.043.418.366.015.261.1.3.349.205.074-.027.143-.065.213-.1a5.173,5.173,0,0,1,2.626-.451c.42.038.5-.027.5-.461Q196.426,187.232,196.42,181.388Zm-12.4,5.192c0-.153.039-.195.193-.194q4.2.007,8.406,0c.151,0,.2.037.2.193-.011.439-.016.879,0,1.318.008.206-.048.257-.254.255-1.386-.009-2.772,0-4.159,0s-2.753,0-4.13,0c-.2,0-.264-.045-.255-.254C184.036,187.46,184.031,187.02,184.021,186.581Zm-3.454-.15c.156-.137.521-.045.792-.038.3.008.7-.13.865.058.147.164.048.557.04.848s.125.651-.055.809c-.156.137-.52.045-.792.038-.3-.009-.7.13-.865-.058-.145-.164-.031-.557-.031-.848S180.387,186.588,180.567,186.43Zm1.7,8.562c0,.165-.059.19-.2.188-.458-.008-.918-.011-1.376,0-.165,0-.19-.059-.188-.2.008-.459.011-.918,0-1.376,0-.165.059-.193.2-.187.234.009.468,0,.7,0,.215,0,.43.009.644,0,.153-.009.224.02.218.2C182.258,194.075,182.258,194.534,182.271,194.992Zm-.063-3.374c-.163.147-.556.049-.847.042s-.651.124-.81-.054c-.137-.154-.046-.519-.039-.791.007-.3-.13-.7.056-.866.162-.145.556-.03.847-.03s.651-.136.81.042c.137.154.046.519.04.791C182.257,191.051,182.394,191.449,182.208,191.618Zm10.61-.219c.011.222-.052.27-.27.269-2.148-.009-4.3-.005-6.443-.005-.625,0-1.25-.005-1.874,0-.166,0-.214-.044-.209-.209.011-.439.014-.879,0-1.318-.006-.193.051-.24.24-.239,1.4.008,2.792,0,4.189,0,1.366,0,2.733.005,4.1-.006.219,0,.28.05.269.27C192.8,190.578,192.8,190.989,192.818,191.4Z" transform="translate(0 0)" fill="#333"/>
    <path id="Path_621" data-name="Path 621" d="M312.767,471.29a12.925,12.925,0,0,0,6.588,1.948,1.246,1.246,0,0,0,.175.011c.2-.015.285.054.273.28-.022.438,0,.878-.009,1.317,0,.145.027.2.189.2.458-.012.918-.014,1.376,0,.183.006.2-.069.2-.221-.009-.38,0-.761,0-1.142,0-.419,0-.42.433-.446a16.805,16.805,0,0,0,3.853-.652,8.9,8.9,0,0,0,2.7-1.281c.076.07.04.152.04.222,0,2.255,0,4.51.008,6.764,0,.217-.048.271-.269.27q-7.643-.011-15.286-.006c-.136,0-.276.053-.275-.2C312.772,476.014,312.767,473.672,312.767,471.29Z" transform="translate(-125.228 -267.563)" fill="#333"/>
    <path id="Path_622" data-name="Path 622" d="M328.573,367.094a11.368,11.368,0,0,1,0-1.2c.012-.235-.04-.309-.294-.306-1.289.015-2.578.005-3.867.009-.144,0-.236.01-.251-.2a3.51,3.51,0,0,0-7.01,0c-.012.175-.069.2-.222.2-.654-.008-1.309,0-1.963,0s-1.289.009-1.933,0c-.215,0-.305.033-.292.277a12.055,12.055,0,0,1,0,1.259,2.357,2.357,0,0,0,1.058,2.1,6.045,6.045,0,0,0,1.937.935,17.459,17.459,0,0,0,9.108.206,7.33,7.33,0,0,0,2.6-1.091A2.386,2.386,0,0,0,328.573,367.094Zm-6.324-1.5c-.537-.01-1.073,0-1.61,0-.518,0-1.034-.007-1.552,0-.164,0-.193-.052-.178-.2a1.763,1.763,0,0,1,3.5.015C322.424,365.551,322.4,365.6,322.249,365.6Z" transform="translate(-125.212 -166.903)" fill="#333"/>
  </g>
</svg>
