<svg xmlns="http://www.w3.org/2000/svg" width="30.6" height="30.6" viewBox="0 0 30.6 30.6">
  <g id="Inbox" transform="translate(0 0.6)">
    <path id="Path_201" data-name="Path 201" d="M34.108,3.5H15.969A3.966,3.966,0,0,0,12,7.463v21.29l5.492-5.53H34.108a3.966,3.966,0,0,0,3.969-3.963V7.463A3.937,3.937,0,0,0,34.108,3.5Z" transform="translate(-8.077 -3.5)" fill="none" stroke="#362d1e" stroke-width="1.2"/>
    <path id="Path_202" data-name="Path 202" d="M25.608,13.8H7.469A3.966,3.966,0,0,0,3.5,17.763v21.29l5.492-5.53H25.608a3.966,3.966,0,0,0,3.969-3.963V17.717A3.987,3.987,0,0,0,25.608,13.8Z" transform="translate(-3.5 -9.053)" fill="#362d1e"/>
  </g>
</svg>
