<svg id="Layer_5" enable-background="new 0 0 64 64" height="512" viewBox="0 0 64 64" width="512" xmlns="http://www.w3.org/2000/svg"><path d="m53 9h-14v-7h14z" fill="#f0bc5e"/><path d="m59 25h-10v-5h10z" fill="#f0bc5e"/><path d="m60 29h-20.424v-2h20.424c.551 0 1-.449 1-1v-22c0-.551-.449-1-1-1h-28c-.551 0-1 .449-1 1v11.263h-2v-11.263c0-1.654 1.346-3 3-3h28c1.654 0 3 1.346 3 3v22c0 1.654-1.346 3-3 3z"/><path d="m22.481 46.925c-.488.048-.981.075-1.481.075-8.271 0-15-6.729-15-15s6.729-15 15-15 15 6.729 15 15c0 3.062-.926 5.909-2.507 8.285l3.706 3.398c2.381-3.291 3.801-7.32 3.801-11.683 0-11.028-8.972-20-20-20s-20 8.972-20 20c0 9.968 7.338 18.232 16.891 19.733z" fill="#f0bc5e"/><path d="m43 5h2v4h-2z"/><path d="m47 5h2v4h-2z"/><path d="m57 23h2v2h-2z"/><path d="m53 23h2v2h-2z"/><path d="m49 23h2v2h-2z"/><path d="m49 19h10v2h-10z"/><path d="m50 31v2h7.586l-14.616 14.616-8.185-7.504c1.446-2.454 2.215-5.238 2.215-8.112 0-8.822-7.178-16-16-16s-16 7.178-16 16c0 8.523 6.705 15.492 15.115 15.955l-11.115 11.645v3.4h44v-22.586l6-6v7.586h2v-11zm-6.97 19.384 1.97-1.97v12.586h-4v-12.477zm-24.03-6.384v-.752c0-.109.009-.22.027-.329l1.794-10.768c.03-.175.327-.175.356 0l1.794 10.769c.02.108.029.219.029.328v.752c0 1.103-.897 2-2 2s-2-.897-2-2zm4 3.829 4-4.19v17.361h-4zm-2 13.171h-4v-6.885l4-4.19zm8-19.456 2.047-2.144 1.953 1.79v19.81h-4zm6 1.479 4 3.667v14.31h-4zm-27.949-10.023h3.949v-2h-3.949c.221-3.108 1.455-5.934 3.381-8.154l2.79 2.79 1.414-1.414-2.79-2.79c2.22-1.926 5.047-3.16 8.154-3.381v3.949h2v-3.949c3.108.221 5.934 1.455 8.154 3.381l-2.79 2.79 1.414 1.414 2.79-2.79c1.926 2.22 3.16 5.047 3.381 8.154h-3.949v2h3.964c-.143 2.017-.719 3.964-1.689 5.729l-2.322-2.128-5.985 6.27c-.009-.093-.008-.187-.023-.279l-1.794-10.77c-.177-1.056-1.081-1.822-2.151-1.822s-1.974.766-2.151 1.821l-1.794 10.769c-.037.218-.055.437-.055.658v.752c0 .526.108 1.026.293 1.486-5.613-1.545-9.816-6.495-10.242-12.486zm3.949 27.4 4-4.19v4.79h-4zm40 .6h-4v-14.586l4-4z"/></svg>