<svg xmlns="http://www.w3.org/2000/svg" width="22.88" height="26" viewBox="0 0 22.88 26">
  <g id="Permit" transform="translate(-5.2 -1)">
    <g id="Group_99" data-name="Group 99" transform="translate(5.2 1)">
      <path id="Path_140" data-name="Path 140" d="M27.709,5.309H25.926V3.526a.372.372,0,0,0-.371-.371H23.771V1.371A.372.372,0,0,0,23.4,1H7.614a.372.372,0,0,0-.371.371V18.457H5.571a.372.372,0,0,0-.371.371v.929a2.94,2.94,0,0,0,2.934,2.934H9.4v1.783a.372.372,0,0,0,.371.371h1.783v1.783a.372.372,0,0,0,.371.371h11.4a.372.372,0,0,0,.371-.371.4.4,0,0,0-.371-.371H12.294V24.846h13.26a.372.372,0,0,0,.371-.371V18.457a.372.372,0,0,0-.371-.371.4.4,0,0,0-.371.371v5.609H10.14V22.654H23.4a.372.372,0,0,0,.371-.371V3.934h1.411v18.46a.372.372,0,0,0,.371.371.4.4,0,0,0,.371-.371V6.089h1.411V26.257H21.283a.372.372,0,0,0-.371.371.4.4,0,0,0,.371.371h6.426a.372.372,0,0,0,.371-.371V5.68A.372.372,0,0,0,27.709,5.309Zm-4.68,16.6H20.911a2.156,2.156,0,0,1-2.154-2.154v-.929a.372.372,0,0,0-.371-.371H12a.372.372,0,0,0-.371.371A.4.4,0,0,0,12,19.2h6.017v.52a2.862,2.862,0,0,0,.966,2.154H8.1A2.156,2.156,0,0,1,5.943,19.72V19.2h7.986a.372.372,0,0,0,.371-.371.4.4,0,0,0-.371-.371H7.986V1.743H23.029Z" transform="translate(-5.2 -1)" fill="#333"/>
      <path id="Path_141" data-name="Path 141" d="M15.771,13.346h4.866a.372.372,0,0,0,.371-.371v-4.9a.372.372,0,0,0-.371-.371H15.771a.372.372,0,0,0-.371.371v4.866A.407.407,0,0,0,15.771,13.346ZM16.18,8.48H20.3V12.6H16.18Z" transform="translate(-11.611 -5.211)" fill="#333"/>
      <path id="Path_142" data-name="Path 142" d="M39.343,19H33.771a.372.372,0,0,0-.371.371.4.4,0,0,0,.371.371h5.571a.371.371,0,1,0,0-.743Z" transform="translate(-22.926 -12.314)" fill="#333"/>
      <path id="Path_143" data-name="Path 143" d="M24.3,28.763a.372.372,0,0,0,.371.371h5.646a.372.372,0,0,0,.371-.371.4.4,0,0,0-.371-.371H24.671A.35.35,0,0,0,24.3,28.763Z" transform="translate(-17.206 -18.215)" fill="#333"/>
      <path id="Path_144" data-name="Path 144" d="M39.343,14.3H33.771a.372.372,0,0,0-.371.371.4.4,0,0,0,.371.371h5.571a.371.371,0,1,0,0-.743Z" transform="translate(-22.926 -9.36)" fill="#333"/>
      <path id="Path_145" data-name="Path 145" d="M39.343,9.5H33.771a.372.372,0,0,0-.371.371.4.4,0,0,0,.371.371h5.571a.371.371,0,1,0,0-.743Z" transform="translate(-22.926 -6.343)" fill="#333"/>
      <path id="Path_146" data-name="Path 146" d="M28.029,40.5H15.771a.372.372,0,0,0-.371.371.4.4,0,0,0,.371.371h12.22a.372.372,0,0,0,.371-.371A.341.341,0,0,0,28.029,40.5Z" transform="translate(-11.611 -25.829)" fill="#333"/>
      <path id="Path_147" data-name="Path 147" d="M37.52,34.4H30.871a.372.372,0,0,0-.371.371.4.4,0,0,0,.371.371H37.52a.371.371,0,0,0,0-.743Z" transform="translate(-21.103 -21.994)" fill="#333"/>
      <path id="Path_148" data-name="Path 148" d="M15.771,35.143H19.6a.372.372,0,0,0,.371-.371A.4.4,0,0,0,19.6,34.4H15.771a.371.371,0,0,0,0,.743Z" transform="translate(-11.611 -21.994)" fill="#333"/>
    </g>
  </g>
</svg>
