<svg xmlns="http://www.w3.org/2000/svg" width="29.999" height="28.125" viewBox="0 0 29.999 28.125">
  <path id="_111039_key_icon" data-name="111039_key_icon" d="M73.46,55.835a2.481,2.481,0,1,1-3.506,3.512l-.7-.693-2.919,2.919a1.267,1.267,0,0,1-1.8,0l-4.35-4.35a1.267,1.267,0,0,1,0-1.8L63.1,52.5,57.9,47.3a8.121,8.121,0,1,1,3.506-3.506ZM57.311,40.073A3.125,3.125,0,1,0,54.186,43.2,3.126,3.126,0,0,0,57.311,40.073Z" transform="translate(-31.948 74.187) rotate(-90)" fill="#424242" fill-rule="evenodd"/>
</svg>
