<svg xmlns="http://www.w3.org/2000/svg" width="24" height="24" viewBox="0 0 24 24">
  <g id="key" transform="translate(-0.001 0.001)">
    <g id="Group_1610" data-name="Group 1610" transform="translate(0.001 0)">
      <path id="Path_556" data-name="Path 556" d="M21.739,2.261a7.73,7.73,0,0,0-12.822,7.85l-8.71,8.71a.7.7,0,0,0-.206.5V23.3a.7.7,0,0,0,.7.7H4.682a.7.7,0,0,0,.5-.206l.994-.995a.7.7,0,0,0,.2-.578l-.124-1.068,1.48-.139a.7.7,0,0,0,.634-.634L8.5,18.9l1.068.124a.692.692,0,0,0,.549-.173.7.7,0,0,0,.236-.525V17.015h1.285a.7.7,0,0,0,.5-.206l1.8-1.779a7.615,7.615,0,0,0,7.8-1.83A7.743,7.743,0,0,0,21.739,2.261ZM19.75,7.233a2.109,2.109,0,1,1,0-2.983A2.111,2.111,0,0,1,19.75,7.233Z" transform="translate(-0.001 0)" fill="#4d463a"/>
    </g>
  </g>
</svg>
