<svg width="12" height="21" viewBox="0 0 12 21" fill="none" xmlns="http://www.w3.org/2000/svg">
<path d="M3.795 10.7349L11.367 3.16293C11.5223 3.02549 11.6441 2.85428 11.7229 2.66244C11.8017 2.47061 11.8356 2.26326 11.8217 2.05632C11.8079 1.84938 11.7469 1.64835 11.6433 1.46869C11.5396 1.28903 11.3962 1.13551 11.224 1.01993C10.9373 0.812322 10.5864 0.7128 10.2334 0.73897C9.88036 0.76514 9.54797 0.915315 9.295 1.16293L0.795003 9.73493C0.656424 9.86205 0.545779 10.0166 0.470087 10.1887C0.394395 10.3609 0.35531 10.5469 0.35531 10.7349C0.35531 10.923 0.394395 11.109 0.470087 11.2811C0.545778 11.4533 0.656424 11.6078 0.795003 11.7349L9.295 20.3069C9.54797 20.5545 9.88036 20.7047 10.2334 20.7309C10.5864 20.7571 10.9373 20.6575 11.224 20.4499C11.3962 20.3343 11.5396 20.1808 11.6433 20.0012C11.7469 19.8215 11.8079 19.6205 11.8217 19.4135C11.8355 19.2066 11.8017 18.9993 11.7229 18.8074C11.6441 18.6156 11.5223 18.4444 11.367 18.3069L3.795 10.7349Z" fill="#333333"/>
</svg>
