<?xml version="1.0" encoding="iso-8859-1"?>
<!-- Generator: Adobe Illustrator 19.0.0, SVG Export Plug-In . SVG Version: 6.00 Build 0)  -->
<svg version="1.1" id="Layer_1" xmlns="http://www.w3.org/2000/svg" xmlns:xlink="http://www.w3.org/1999/xlink" x="0px" y="0px"
	 viewBox="0 0 496.573 496.573" style="enable-background:new 0 0 496.573 496.573;" xml:space="preserve">
<g>
	<rect x="64.287" y="200.573" style="fill:#F9BA48;" width="328" height="16"/>
	<rect x="64.287" y="240.573" style="fill:#F9BA48;" width="328" height="16"/>
	<rect x="64.287" y="280.573" style="fill:#F9BA48;" width="328" height="16"/>
	<rect x="376.287" y="320.573" style="fill:#F9BA48;" width="16" height="16"/>
	<rect x="336.287" y="320.573" style="fill:#F9BA48;" width="16" height="16"/>
	<rect x="296.287" y="320.573" style="fill:#F9BA48;" width="16" height="16"/>
</g>
<g>
	<path style="fill:#333333;" d="M432.287,88.573v-40h-160.76l0.4-3c1.432-10.72-1.424-21.336-8.024-29.896
		s-16.144-14.016-26.872-15.36c-21.824-2.76-41.976,12.808-44.888,34.624l-1.824,13.632H24.287v408h40v40h408v-408H432.287z
		 M207.999,37.061c1.752-13.152,13.88-22.52,27.048-20.864c6.464,0.816,12.208,4.096,16.184,9.256
		c3.976,5.16,5.696,11.552,4.832,18.016l-0.672,5.104h-24.216l1.024-6.816c0.656-4.368-2.352-8.448-6.728-9.104
		c-4.352-0.592-8.44,2.36-9.104,6.728l-1.376,9.192h-8.528L207.999,37.061z M40.287,64.573h147.896l-3.528,26.432
		c-1.432,10.712,1.424,21.328,8.024,29.888s16.152,14.024,26.88,15.368c1.68,0.208,3.344,0.312,4.992,0.312
		c19.84,0,37.216-14.792,39.896-34.936c0.584-4.384-2.496-8.4-6.872-8.984c-4.416-0.56-8.408,2.496-8.984,6.872
		c-1.752,13.152-13.912,22.496-27.04,20.856c-6.464-0.816-12.216-4.104-16.192-9.256c-3.976-5.168-5.696-11.552-4.832-18.016
		l3.8-28.536h211.96v376h-376V64.573z M456.287,480.573h-376v-24h352v-352h24V480.573z"/>
	<rect x="64.287" y="184.573" style="fill:#333333;" width="328" height="16"/>
	<rect x="64.287" y="224.573" style="fill:#333333;" width="328" height="16"/>
	<rect x="64.287" y="264.573" style="fill:#333333;" width="328" height="16"/>
	<rect x="376.287" y="304.573" style="fill:#333333;" width="16" height="16"/>
	<rect x="336.287" y="304.573" style="fill:#333333;" width="16" height="16"/>
	<rect x="296.287" y="304.573" style="fill:#333333;" width="16" height="16"/>
</g>
<g>
</g>
<g>
</g>
<g>
</g>
<g>
</g>
<g>
</g>
<g>
</g>
<g>
</g>
<g>
</g>
<g>
</g>
<g>
</g>
<g>
</g>
<g>
</g>
<g>
</g>
<g>
</g>
<g>
</g>
</svg>
