<svg xmlns="http://www.w3.org/2000/svg" width="37.992" height="35.91" viewBox="0 0 37.992 35.91">
  <g id="Group_2743" data-name="Group 2743" transform="translate(-1210.008 -1987)">
    <path id="chat_1_" data-name="chat (1)" d="M21.639,0H9.278A9.281,9.281,0,0,0,.008,9.27v7.21a9.282,9.282,0,0,0,8.755,9.257v4.3a.877.877,0,0,0,.877.875.867.867,0,0,0,.615-.257l.966-.966a13.345,13.345,0,0,1,9.5-3.935h.917a9.281,9.281,0,0,0,9.27-9.27V9.27A9.281,9.281,0,0,0,21.639,0ZM8.763,14.936a2.06,2.06,0,1,1,2.06-2.06A2.062,2.062,0,0,1,8.763,14.936Zm6.7,0a2.06,2.06,0,1,1,2.06-2.06A2.062,2.062,0,0,1,15.459,14.936Zm6.7,0a2.06,2.06,0,1,1,2.06-2.06A2.062,2.062,0,0,1,22.154,14.936Z" transform="translate(1210 1992)" fill="#707070"/>
    <g id="Group_2742" data-name="Group 2742" transform="translate(1.635 1.635)">
      <g id="Ellipse_171" data-name="Ellipse 171" transform="translate(1230.365 1985.365)" fill="#fff" stroke="#707070" stroke-width="1">
        <circle cx="8" cy="8" r="8" stroke="none"/>
        <circle cx="8" cy="8" r="7.5" fill="none"/>
      </g>
      <g id="Group_2741" data-name="Group 2741" transform="translate(1241.913 1993.365) rotate(135)">
        <line id="Line_256" data-name="Line 256" y2="7.098" transform="translate(5.019 0) rotate(45)" fill="none" stroke="#707070" stroke-linecap="round" stroke-width="1.5"/>
        <line id="Line_257" data-name="Line 257" y2="7.098" transform="translate(5.019 5.019) rotate(135)" fill="none" stroke="#707070" stroke-linecap="round" stroke-width="1.5"/>
      </g>
    </g>
  </g>
</svg>
