<svg xmlns="http://www.w3.org/2000/svg" viewBox="0 0 128 128" width="256px" height="256px"><path fill="#fff" d="M105.7,99H22.3c-4.6,0-8.3-3.7-8.3-8.3V37.3c0-4.6,3.7-8.3,8.3-8.3h83.3c4.6,0,8.3,3.7,8.3,8.3v53.3C114,95.3,110.3,99,105.7,99z"/><path fill="#444b54" d="M101.5 71.3c-1.7 0-3-1.3-3-3 0-2.3-1.8-4.1-4.1-4.1H83.1c-1.7 0-3-1.3-3-3s1.3-3 3-3h11.3c5.6 0 10.1 4.5 10.1 10.1C104.5 70 103.2 71.3 101.5 71.3zM88.8 56.2c-5.6 0-10.1-4.5-10.1-10.1 0-5.6 4.5-10.1 10.1-10.1s10.1 4.5 10.1 10.1C98.8 51.6 94.3 56.2 88.8 56.2zM88.8 42c-2.3 0-4.1 1.8-4.1 4.1s1.8 4.1 4.1 4.1 4.1-1.8 4.1-4.1S91 42 88.8 42zM99 102H22.3C16.1 102 11 96.9 11 90.7V37.3c0-1.7 1.3-3 3-3s3 1.3 3 3v53.3c0 2.9 2.4 5.3 5.3 5.3H99c1.7 0 3 1.3 3 3S100.7 102 99 102z"/><path fill="#444b54" d="M114,93.7c-1.7,0-3-1.3-3-3V37.3c0-2.9-2.4-5.3-5.3-5.3H49c-1.7,0-3-1.3-3-3s1.3-3,3-3h56.7c6.2,0,11.3,5.1,11.3,11.3v53.3C117,92.3,115.7,93.7,114,93.7z"/><path fill="#f8e390" d="M24 58H42V70H24z"/><path fill="#c7d6e2" d="M24 80H36V86H24zM42 80H54V86H42z"/><g><path fill="#c7d6e2" d="M60 80H72V86H60z"/></g><g><path fill="#c7d6e2" d="M78 80H90V86H78z"/></g><g><path fill="#444b54" d="M118,121c-0.2,0-0.4,0-0.6-0.1c-0.2,0-0.4-0.1-0.6-0.2c-0.2-0.1-0.3-0.2-0.5-0.3c-0.2-0.1-0.3-0.2-0.5-0.4c-0.6-0.6-0.9-1.3-0.9-2.1c0-0.2,0-0.4,0.1-0.6c0-0.2,0.1-0.4,0.2-0.6c0.1-0.2,0.2-0.4,0.3-0.5c0.1-0.2,0.2-0.3,0.4-0.5s0.3-0.3,0.5-0.4c0.2-0.1,0.3-0.2,0.5-0.3c0.2-0.1,0.4-0.1,0.6-0.2c0.4-0.1,0.8-0.1,1.2,0c0.2,0,0.4,0.1,0.6,0.2c0.2,0.1,0.4,0.2,0.5,0.3c0.2,0.1,0.3,0.2,0.5,0.4c0.1,0.1,0.3,0.3,0.4,0.5c0.1,0.2,0.2,0.3,0.3,0.5c0.1,0.2,0.1,0.4,0.2,0.6c0,0.2,0.1,0.4,0.1,0.6c0,0.8-0.3,1.6-0.9,2.1c-0.1,0.1-0.3,0.3-0.5,0.4c-0.2,0.1-0.3,0.2-0.5,0.3c-0.2,0.1-0.4,0.1-0.6,0.2C118.4,121,118.2,121,118,121z"/></g><g><path fill="#444b54" d="M108,111c-0.8,0-1.5-0.3-2.1-0.9l-98-98c-1.2-1.2-1.2-3.1,0-4.2c1.2-1.2,3.1-1.2,4.2,0l98,98c1.2,1.2,1.2,3.1,0,4.2C109.5,110.7,108.8,111,108,111z"/></g></svg>