<svg width="180" height="214" viewBox="0 0 180 214" fill="none" xmlns="http://www.w3.org/2000/svg">
<g clip-path="url(#clip0_233:1021)">
<path d="M0.365234 139.1V171.2C0.365234 186.31 17.7852 199.9 43.3652 207.53L59.6852 179.27C25.4852 173.2 0.365234 157.25 0.365234 139.1ZM120.305 179.27L136.625 207.53C162.205 199.9 179.625 186.31 179.625 171.2V139.1C179.625 157.25 154.505 173.2 120.305 179.27Z" fill="#EDBC4F"/>
<path d="M89.9952 129.04C41.4052 129.04 0.365234 109.44 0.365234 86.24V118.34C0.365234 138.4 31.0452 155.77 70.7552 160.1L84.5452 136.21C86.9652 132.02 93.0252 132.02 95.4452 136.21L109.235 160.1C148.945 155.77 179.625 138.4 179.625 118.34V86.24C179.625 109.44 138.585 129.04 89.9952 129.04Z" fill="#EDBC4F"/>
<path d="M179.635 42.8C179.635 19.6 138.595 0 90.0052 0C41.4052 0 0.365234 19.6 0.365234 42.8V64.2C0.365234 87.4 41.4052 107 89.9952 107C138.585 107 179.625 87.4 179.625 64.2V42.8H179.635Z" fill="#EDBC4F"/>
<path d="M134.425 208.17C121.245 211.87 106.035 214 89.9954 214C73.9554 214 58.7454 211.87 45.5654 208.17L62.0154 179.68L86.2854 137.64C87.9354 134.78 92.0554 134.78 93.7054 137.64L117.975 179.68L134.425 208.17Z" fill="#F78248"/>
<path d="M85.625 201.97C85.625 199.54 87.565 197.6 89.995 197.6C92.495 197.6 94.365 199.54 94.365 201.97C94.365 204.4 92.495 206.34 89.995 206.34C87.565 206.34 85.625 204.4 85.625 201.97ZM85.695 156.37H94.305L93.815 191.42H86.175L85.695 156.37Z" fill="white"/>
</g>
<defs>
<clipPath id="clip0_233:1021">
<rect width="179.27" height="214" fill="white" transform="translate(0.365234)"/>
</clipPath>
</defs>
</svg>
