<svg id="Group_1330" data-name="Group 1330" xmlns="http://www.w3.org/2000/svg" width="188.944" height="24.47" viewBox="0 0 188.944 24.47">
  <g id="paypal-seeklogo.com">
    <path id="Path_426" data-name="Path 426" d="M175.058,386.87h6.9c3.706,0,5.1,1.876,4.885,4.632-.356,4.55-3.107,7.067-6.756,7.067h-1.842c-.5,0-.837.331-.973,1.229l-.782,5.22c-.052.338-.23.534-.5.561h-4.336c-.408,0-.552-.312-.445-.987l2.644-16.734A1.052,1.052,0,0,1,175.058,386.87Z" transform="translate(-166.245 -381.11)" fill="#009ee3" fill-rule="evenodd"/>
    <path id="Path_427" data-name="Path 427" d="M319.064,385.13c2.329,0,4.477,1.263,4.183,4.411-.356,3.741-2.361,5.811-5.523,5.82h-2.763c-.4,0-.59.324-.693.989l-.534,3.4c-.08.513-.344.766-.732.766H310.43c-.41,0-.552-.262-.461-.848l2.122-13.617c.105-.67.356-.919.814-.919h6.153Zm-4.187,7.29h2.093c1.309-.05,2.179-.957,2.266-2.592a1.581,1.581,0,0,0-1.714-1.728l-1.97.009-.675,4.311Zm15.359,7.051c.235-.214.474-.324.44-.061l-.084.631c-.043.33.087.5.394.5h2.284c.385,0,.572-.155.666-.75l1.407-8.833c.071-.444-.037-.661-.374-.661h-2.512c-.226,0-.337.127-.4.472l-.093.543c-.048.283-.178.333-.3.048-.426-1.008-1.513-1.461-3.029-1.425a6.286,6.286,0,0,0-6.152,6.175,4.245,4.245,0,0,0,4.208,4.734,4.517,4.517,0,0,0,3.545-1.372h0Zm-1.913-1.359a2.3,2.3,0,0,1-2.353-2.692,3.279,3.279,0,0,1,3.153-2.692,2.3,2.3,0,0,1,2.354,2.692,3.277,3.277,0,0,1-3.153,2.692Zm11.491-7.839H337.5c-.477,0-.672.356-.52.795l2.875,8.42-2.82,4.007c-.237.335-.054.64.28.64h2.6a.8.8,0,0,0,.773-.38l8.844-12.685c.273-.39.144-.8-.3-.8h-2.464c-.422,0-.591.167-.834.518l-3.688,5.345-1.648-5.357a.705.705,0,0,0-.78-.5Z" transform="translate(-280.286 -379.68)" fill="#113984" fill-rule="evenodd"/>
    <path id="Path_428" data-name="Path 428" d="M541.732,385.113c2.329,0,4.477,1.263,4.183,4.411-.356,3.741-2.361,5.811-5.523,5.82h-2.761c-.4,0-.59.324-.693.989l-.534,3.4c-.08.513-.344.766-.732.766H533.1c-.41,0-.552-.262-.461-.848l2.125-13.62c.105-.67.356-.919.814-.919h6.153Zm-4.187,7.29h2.093c1.31-.05,2.179-.957,2.266-2.592a1.581,1.581,0,0,0-1.714-1.728l-1.97.009-.675,4.311Zm15.359,7.051c.235-.214.474-.324.44-.061l-.084.631c-.043.33.087.5.394.5h2.284c.385,0,.572-.155.666-.75l1.407-8.833c.071-.444-.037-.661-.374-.661h-2.509c-.226,0-.337.127-.4.472l-.093.543c-.048.283-.178.333-.3.048-.426-1.008-1.512-1.461-3.029-1.425a6.286,6.286,0,0,0-6.152,6.175,4.245,4.245,0,0,0,4.208,4.734,4.518,4.518,0,0,0,3.545-1.372h0Zm-1.912-1.359a2.3,2.3,0,0,1-2.354-2.692,3.279,3.279,0,0,1,3.153-2.692,2.3,2.3,0,0,1,2.353,2.692,3.279,3.279,0,0,1-3.153,2.692Zm10.534,2.448H558.89a.312.312,0,0,1-.323-.356l2.316-14.673a.454.454,0,0,1,.438-.356h2.637a.312.312,0,0,1,.323.356l-2.316,14.673a.454.454,0,0,1-.438.36Z" transform="translate(-463.286 -379.664)" fill="#009ee3" fill-rule="evenodd"/>
    <path id="Path_429" data-name="Path 429" d="M147.978,354.54h6.909c1.945,0,4.254.062,5.8,1.425a4.683,4.683,0,0,1,1.448,3.919c-.424,5.275-3.579,8.231-7.812,8.231h-3.406c-.581,0-.964.385-1.128,1.425l-.951,6.057c-.062.392-.232.624-.534.652h-4.263c-.472,0-.64-.356-.517-1.144l3.064-19.416A1.226,1.226,0,0,1,147.978,354.54Z" transform="translate(-143.482 -354.54)" fill="#113984" fill-rule="evenodd"/>
    <path id="Path_430" data-name="Path 430" d="M179.43,395.488l1.206-7.638a1.056,1.056,0,0,1,1.2-.991h6.9a6.733,6.733,0,0,1,2.79.508c-.693,4.7-3.731,7.3-7.707,7.3h-3.4A1,1,0,0,0,179.43,395.488Z" transform="translate(-173.026 -381.102)" fill="#172c70" fill-rule="evenodd"/>
  </g>
  <text id="Checkout" transform="translate(107.944 18.56)" fill="#4d463a" font-size="16" font-family="Montserrat-Bold, Montserrat" font-weight="700"><tspan x="0" y="0">Checkout</tspan></text>
</svg>
