<svg id="paypal-seeklogo.com" xmlns="http://www.w3.org/2000/svg" width="123.824" height="30" viewBox="0 0 123.824 30">
  <path id="Path_426" data-name="Path 426" d="M175.934,386.87H184.4c4.543,0,6.253,2.3,5.989,5.679-.437,5.578-3.809,8.665-8.282,8.665h-2.258c-.614,0-1.027.406-1.193,1.507l-.959,6.4c-.063.415-.282.655-.609.688h-5.316c-.5,0-.677-.382-.546-1.21l3.241-20.516A1.29,1.29,0,0,1,175.934,386.87Z" transform="translate(-165.129 -379.809)" fill="#009ee3" fill-rule="evenodd"/>
  <path id="Path_427" data-name="Path 427" d="M321.125,385.13c2.855,0,5.489,1.549,5.128,5.408-.437,4.587-2.894,7.125-6.771,7.136h-3.388c-.487,0-.723.4-.85,1.212l-.655,4.165c-.1.629-.422.939-.9.939H310.54c-.5,0-.677-.321-.566-1.04l2.6-16.694c.129-.821.437-1.127,1-1.127h7.544Zm-5.133,8.938h2.567c1.605-.061,2.671-1.173,2.778-3.178a1.939,1.939,0,0,0-2.1-2.119l-2.416.011-.828,5.286Zm18.83,8.645c.288-.262.581-.4.539-.074l-.1.773c-.052.4.107.618.483.618h2.8c.472,0,.7-.19.817-.919l1.725-10.829c.087-.544-.046-.81-.459-.81h-3.08c-.277,0-.413.155-.485.579l-.114.666c-.059.347-.218.408-.367.059-.522-1.236-1.854-1.791-3.713-1.747-4.318.09-7.23,3.368-7.542,7.57a5.2,5.2,0,0,0,5.159,5.8,5.538,5.538,0,0,0,4.347-1.682h0Zm-2.346-1.666a2.814,2.814,0,0,1-2.885-3.3,4.02,4.02,0,0,1,3.866-3.3,2.814,2.814,0,0,1,2.885,3.3,4.018,4.018,0,0,1-3.866,3.3Zm14.088-9.611h-2.839c-.585,0-.823.437-.638.974l3.525,10.322-3.458,4.912c-.291.411-.066.784.343.784h3.191a.976.976,0,0,0,.948-.465l10.842-15.552c.334-.478.177-.981-.371-.981h-3.021c-.518,0-.725.205-1.022.636l-4.521,6.553-2.02-6.568a.865.865,0,0,0-.957-.616Z" transform="translate(-273.584 -378.448)" fill="#113984" fill-rule="evenodd"/>
  <path id="Path_428" data-name="Path 428" d="M543.793,385.114c2.855,0,5.489,1.549,5.129,5.408-.437,4.587-2.894,7.125-6.771,7.136h-3.385c-.487,0-.723.4-.85,1.212l-.655,4.165c-.1.629-.422.939-.9.939H533.21c-.5,0-.677-.321-.566-1.04l2.606-16.7c.129-.821.437-1.127,1-1.127h7.544Zm-5.133,8.938h2.566c1.606-.061,2.671-1.173,2.778-3.178a1.939,1.939,0,0,0-2.1-2.119l-2.416.011-.828,5.286Zm18.83,8.645c.288-.262.581-.4.539-.074l-.1.773c-.052.4.107.618.483.618h2.8c.472,0,.7-.19.817-.92l1.726-10.829c.087-.544-.046-.81-.459-.81h-3.075c-.277,0-.413.155-.485.579l-.114.666c-.059.347-.218.408-.367.059-.522-1.236-1.854-1.791-3.713-1.747-4.318.09-7.23,3.368-7.542,7.57a5.2,5.2,0,0,0,5.159,5.8A5.539,5.539,0,0,0,557.5,402.7h0Zm-2.344-1.667a2.814,2.814,0,0,1-2.885-3.3,4.02,4.02,0,0,1,3.866-3.3,2.814,2.814,0,0,1,2.885,3.3,4.02,4.02,0,0,1-3.866,3.3Zm12.915,3h-3.233a.382.382,0,0,1-.4-.437l2.84-17.989a.557.557,0,0,1,.537-.437h3.233a.382.382,0,0,1,.4.437l-2.84,17.989a.557.557,0,0,1-.537.441Z" transform="translate(-447.618 -378.433)" fill="#009ee3" fill-rule="evenodd"/>
  <path id="Path_429" data-name="Path 429" d="M148.994,354.54h8.47c2.385,0,5.216.076,7.107,1.747a5.741,5.741,0,0,1,1.776,4.805c-.52,6.467-4.388,10.091-9.578,10.091h-4.176c-.712,0-1.182.472-1.383,1.747l-1.166,7.426c-.076.48-.284.764-.655.8h-5.227c-.579,0-.784-.437-.633-1.4l3.757-23.8A1.5,1.5,0,0,1,148.994,354.54Z" transform="translate(-143.482 -354.54)" fill="#113984" fill-rule="evenodd"/>
  <path id="Path_430" data-name="Path 430" d="M179.43,397.438l1.479-9.364a1.294,1.294,0,0,1,1.474-1.215h8.462a8.255,8.255,0,0,1,3.421.623c-.85,5.758-4.574,8.955-9.449,8.955h-4.17A1.232,1.232,0,0,0,179.43,397.438Z" transform="translate(-171.578 -379.801)" fill="#172c70" fill-rule="evenodd"/>
</svg>
