<svg xmlns="http://www.w3.org/2000/svg" viewBox="0 0 100 100" width="200px" height="200px"><path fill="#f1bc19" d="M77 12A1 1 0 1 0 77 14A1 1 0 1 0 77 12Z"/><path fill="#e6edb7" d="M50 13A37 37 0 1 0 50 87A37 37 0 1 0 50 13Z"/><path fill="#f1bc19" d="M83 11A4 4 0 1 0 83 19A4 4 0 1 0 83 11Z"/><path fill="#88ae45" d="M87 22A2 2 0 1 0 87 26A2 2 0 1 0 87 22Z"/><path fill="#fbcd59" d="M81 74A2 2 0 1 0 81 78 2 2 0 1 0 81 74zM15 59A4 4 0 1 0 15 67 4 4 0 1 0 15 59z"/><path fill="#88ae45" d="M25 85A2 2 0 1 0 25 89A2 2 0 1 0 25 85Z"/><path fill="#fff" d="M18.5 49A2.5 2.5 0 1 0 18.5 54 2.5 2.5 0 1 0 18.5 49zM79.5 32A1.5 1.5 0 1 0 79.5 35 1.5 1.5 0 1 0 79.5 32z"/><path fill="#edf7f5" d="M36.013,75.3c-2.929,0-5.313-2.265-5.313-5.048V29.748c0-2.783,2.383-5.048,5.313-5.048h21.766 L71.3,37.627v32.625c0,2.783-2.383,5.048-5.313,5.048H36.013z"/><path fill="#472b29" d="M57.497,25.4l6.565,6.276l6.538,6.25v32.326c0,2.397-2.069,4.348-4.613,4.348H36.013 c-2.543,0-4.613-1.951-4.613-4.348V29.748c0-2.397,2.069-4.348,4.613-4.348h0.873h8.262H57.497 M58.059,24H45.148h-8.262h-0.873 C32.705,24,30,26.586,30,29.748v40.504C30,73.413,32.705,76,36.013,76h29.975C69.295,76,72,73.414,72,70.252V37.328 C66.578,32.145,63.481,29.183,58.059,24L58.059,24z"/><path fill="#85cfcc" d="M57.5,25.208v7.994c0,2.914,2.396,5.298,5.325,5.298H71"/><path fill="#472b29" d="M71,39h-8.175C59.613,39,57,36.399,57,33.202v-7.994h1v7.994C58,35.848,60.165,38,62.825,38H71V39z"/><g><path fill="#472b29" d="M47.5,28.75h-5.75c-0.138,0-0.25-0.112-0.25-0.25s0.112-0.25,0.25-0.25h5.75 c0.138,0,0.25,0.112,0.25,0.25S47.638,28.75,47.5,28.75z"/></g><g><path fill="#472b29" d="M64.693,71.75H37.307c-1.686,0-3.057-1.361-3.057-3.035v-37.43c0-1.674,1.371-3.035,3.057-3.035 H39.5c0.138,0,0.25,0.112,0.25,0.25s-0.112,0.25-0.25,0.25h-2.193c-1.41,0-2.557,1.138-2.557,2.535v37.43 c0,1.397,1.147,2.535,2.557,2.535h27.387c1.41,0,2.557-1.138,2.557-2.535V57.5c0-0.138,0.112-0.25,0.25-0.25s0.25,0.112,0.25,0.25 v11.215C67.75,70.389,66.379,71.75,64.693,71.75z"/></g><g><path fill="#472b29" d="M67.5,54.75c-0.138,0-0.25-0.112-0.25-0.25v-5c0-0.138,0.112-0.25,0.25-0.25s0.25,0.112,0.25,0.25v5 C67.75,54.638,67.638,54.75,67.5,54.75z"/></g><g><path fill="#472b29" d="M67.5,48.333c-0.138,0-0.25-0.112-0.25-0.25v-2.25c0-0.138,0.112-0.25,0.25-0.25 s0.25,0.112,0.25,0.25v2.25C67.75,48.221,67.638,48.333,67.5,48.333z"/></g><g><path fill="#472b29" d="M52.5,37.75h-13c-0.138,0-0.25-0.112-0.25-0.25s0.112-0.25,0.25-0.25h13 c0.138,0,0.25,0.112,0.25,0.25S52.638,37.75,52.5,37.75z"/></g><g><path fill="#472b29" d="M47.5,40.75h-8c-0.138,0-0.25-0.112-0.25-0.25s0.112-0.25,0.25-0.25h8c0.138,0,0.25,0.112,0.25,0.25 S47.638,40.75,47.5,40.75z"/></g><g><path fill="#472b29" d="M51.5,43.75h-12c-0.138,0-0.25-0.112-0.25-0.25s0.112-0.25,0.25-0.25h12 c0.138,0,0.25,0.112,0.25,0.25S51.638,43.75,51.5,43.75z"/></g><g><path fill="#472b29" d="M54.5,40.75h-5c-0.138,0-0.25-0.112-0.25-0.25s0.112-0.25,0.25-0.25h5c0.138,0,0.25,0.112,0.25,0.25 S54.638,40.75,54.5,40.75z"/></g><g><path fill="#f15b6c" d="M29.608,64.3c-1.604,0-2.908-1.304-2.908-2.907v-9.785c0-1.604,1.304-2.907,2.908-2.907h25.784 c1.604,0,2.908,1.304,2.908,2.907v9.785c0,1.604-1.304,2.907-2.908,2.907H29.608z"/><path fill="#472b29" d="M55.392,49.4c1.217,0,2.208,0.991,2.208,2.208v9.784c0,1.217-0.99,2.208-2.208,2.208H29.608 c-1.217,0-2.208-0.991-2.208-2.208v-9.784c0-1.217,0.99-2.208,2.208-2.208H55.392 M55.392,48H29.608 C27.615,48,26,49.615,26,51.608v9.784C26,63.385,27.615,65,29.608,65h25.785C57.385,65,59,63.385,59,61.392v-9.784 C59,49.615,57.385,48,55.392,48L55.392,48z"/></g><g><path fill="#fff" d="M33.895 57.619v3.006h-1.758v-8.531h3.328c.641 0 1.204.117 1.69.352s.86.567 1.122.999.393.923.393 1.474c0 .836-.286 1.495-.858 1.978s-1.364.724-2.376.724H33.895zM33.895 56.195h1.57c.465 0 .819-.109 1.063-.328s.366-.531.366-.938c0-.418-.123-.756-.369-1.014s-.586-.391-1.02-.398h-1.611V56.195zM39.877 60.625v-8.531h2.625c.75 0 1.421.169 2.013.507s1.054.818 1.386 1.441.498 1.331.498 2.124v.393c0 .793-.163 1.498-.489 2.115s-.786 1.096-1.38 1.436-1.264.512-2.01.516H39.877zM41.635 53.518v5.695h.85c.688 0 1.213-.225 1.576-.674s.549-1.092.557-1.928V56.16c0-.867-.18-1.524-.539-1.972s-.885-.671-1.576-.671H41.635zM52.809 57.139h-3.375v3.486h-1.758v-8.531h5.555v1.424h-3.797v2.203h3.375V57.139z"/></g></svg>