<svg width="24" height="24" viewBox="0 0 24 24" fill="none" xmlns="http://www.w3.org/2000/svg">
<path d="M18 21.9999H6C5.46957 21.9999 4.96086 21.7892 4.58579 21.4141C4.21071 21.039 4 20.5303 4 19.9999V3.9999C4 3.46947 4.21071 2.96076 4.58579 2.58569C4.96086 2.21062 5.46957 1.9999 6 1.9999H13C13.009 1.99873 13.018 1.99873 13.027 1.9999H13.033C13.0424 2.00286 13.0522 2.00486 13.062 2.0059C13.15 2.0119 13.237 2.0289 13.321 2.0569H13.363C13.3815 2.06982 13.3988 2.0842 13.415 2.0999C13.5239 2.14835 13.6232 2.2161 13.708 2.2999L19.708 8.2999C19.7918 8.38469 19.8596 8.48396 19.908 8.5929C19.9167 8.61453 19.9244 8.63655 19.931 8.6589L19.941 8.6869C19.969 8.7699 19.985 8.8569 19.99 8.9449C19.9909 8.95487 19.9932 8.96464 19.997 8.9739V8.9799C19.9986 8.98647 19.9996 8.99316 20 8.9999V19.9999C20 20.5303 19.7893 21.039 19.4142 21.4141C19.0391 21.7892 18.5304 21.9999 18 21.9999ZM14.424 13.9999V18.9999H15.364V16.9599H16.824V16.1219H15.364V14.8409H17V13.9999H14.424ZM10.724 13.9999V18.9999H11.93C12.436 19.0249 12.926 18.8189 13.262 18.4399C13.6069 17.9998 13.7797 17.4491 13.748 16.8909V16.0809C13.7713 15.5285 13.5936 14.9864 13.248 14.5549C12.923 14.1849 12.448 13.9809 11.955 13.9999H10.724V13.9999ZM7 13.9999V18.9999H7.94V17.2409H8.566C8.984 17.2639 9.392 17.1089 9.69 16.8149C9.974 16.4969 10.121 16.0809 10.1 15.6549C10.1186 15.2191 9.97135 14.7925 9.688 14.4609C9.54958 14.3074 9.37889 14.1865 9.18818 14.1068C8.99747 14.027 8.79148 13.9906 8.585 13.9999H7ZM13 3.9999V8.9999H18L13 3.9999ZM11.946 18.1619H11.664V14.8409H12.006C12.1255 14.8339 12.2449 14.8569 12.3532 14.9079C12.4615 14.9589 12.5553 15.0363 12.626 15.1329C12.773 15.4359 12.836 15.7729 12.808 16.1089V16.9779C12.83 17.2979 12.761 17.6179 12.608 17.8989C12.5273 17.9931 12.4248 18.0663 12.3095 18.1122C12.1941 18.158 12.0694 18.175 11.946 18.1619V18.1619ZM8.585 16.3999H7.939V14.8409H8.594C8.67444 14.8418 8.75334 14.8631 8.82331 14.9028C8.89327 14.9425 8.952 14.9993 8.994 15.0679C9.102 15.2469 9.154 15.4529 9.144 15.6619C9.15654 15.8564 9.1049 16.0496 8.997 16.2119C8.94796 16.2735 8.8851 16.3226 8.81351 16.3552C8.74191 16.3879 8.66362 16.4032 8.585 16.3999Z" fill="#332F2F"/>
</svg>
