<?xml version="1.0" encoding="iso-8859-1"?>
<!-- Generator: Adobe Illustrator 19.0.0, SVG Export Plug-In . SVG Version: 6.00 Build 0)  -->
<svg version="1.1" id="Layer_1" xmlns="http://www.w3.org/2000/svg" xmlns:xlink="http://www.w3.org/1999/xlink" x="0px" y="0px"
	 viewBox="0 0 496 496" style="enable-background:new 0 0 496 496;" xml:space="preserve">
<g>
	<path style="fill:#333333;" d="M448.056,112H368V36.688L331.312,0H164.688L128,36.688V112H47.944C21.504,112,0,133.504,0,159.944
		v312.48C0,485.424,10.576,496,23.576,496h448.84C485.424,496,496,485.424,496,472.424v-312.48C496,133.504,474.496,112,448.056,112
		z M352,43.312V152h-32V56v-8V16h4.688L352,43.312z M192,48V16h112v32H192z M192,64h112v48H192V64z M144,43.312L171.312,16H176v32v8
		v96h-32V43.312z M480,472.424c0,4.176-3.4,7.576-7.576,7.576H23.576C19.4,480,16,476.6,16,472.424v-312.48
		C16,142.328,30.328,128,47.944,128H128v24h-16v16h16h64h16v-16h-16v-24h112v24h-16v16h16h64h16v-16h-16v-24h80.056
		C465.672,128,480,142.328,480,159.944V472.424z"/>
	<rect x="296" y="256" style="fill:#333333;" width="168" height="16"/>
	<rect x="32" y="256" style="fill:#333333;" width="168" height="16"/>
</g>
<path style="fill:#F9BA48;" d="M281.544,328h-67.096C202.072,328,192,317.928,192,305.544v-59.096
	C192,234.072,202.072,224,214.456,224h67.096C293.928,224,304,234.072,304,246.456v59.096C304,317.928,293.928,328,281.544,328z"/>
<rect x="224" y="280" style="fill:#333333;" width="48" height="16"/>
<g>
</g>
<g>
</g>
<g>
</g>
<g>
</g>
<g>
</g>
<g>
</g>
<g>
</g>
<g>
</g>
<g>
</g>
<g>
</g>
<g>
</g>
<g>
</g>
<g>
</g>
<g>
</g>
<g>
</g>
</svg>
