<?xml version="1.0" encoding="iso-8859-1"?>
<!-- Generator: Adobe Illustrator 19.0.0, SVG Export Plug-In . SVG Version: 6.00 Build 0)  -->
<svg version="1.1" id="Capa_1" xmlns="http://www.w3.org/2000/svg" xmlns:xlink="http://www.w3.org/1999/xlink" x="0px" y="0px"
	 viewBox="0 0 496 496" style="enable-background:new 0 0 496 496;" xml:space="preserve">
<path style="fill:#FFCB57;" d="M368.004,112h-8.28c-3.528-50.016-39.936-90.88-87.72-101.328V8h-48v2.672
	C176.22,21.12,139.812,61.984,136.284,112h-8.28c-8.84,0-16,7.16-16,16s7.16,16,16,16h240c8.84,0,16-7.16,16-16
	S376.844,112,368.004,112z"/>
<g>
	<rect x="280.004" y="448" style="fill:#E56565;" width="80" height="16"/>
	<rect x="288.004" y="416" style="fill:#E56565;" width="72" height="16"/>
	<rect x="136.004" y="448" style="fill:#E56565;" width="80" height="16"/>
	<rect x="136.004" y="416" style="fill:#E56565;" width="72" height="16"/>
</g>
<g>
	<path style="fill:#3F3A34;" d="M447.812,390.192c-5.368-32.232-27.968-58.68-58.976-69.016l-68.832-22.944V288h-16v15.016
		l-11.944,47.76L259.748,312h-23.496l-32.312,38.776l-11.936-47.76V288h-16v10.232l-68.832,22.944
		c-31,10.336-53.6,36.784-58.976,69.016L30.556,496h434.888L447.812,390.192z M178.34,314.32l17.728,70.904L243.748,328h8.504
		l47.688,57.224l17.728-70.904l57.736,19.24l-7.44,74.44l7.2,72H288.06c0.56-62.88,7.48-85.28,7.544-85.504l-7.6-2.496l-7.592-2.528
		c-0.328,0.992-7.776,24.304-8.352,90.528h-16.056V352h-16v128h-16.056c-0.576-66.224-8.024-89.536-8.352-90.528l-15.192,5.024
		c0.072,0.224,6.992,22.624,7.544,85.504h-87.104l7.2-72l-7.44-74.44L178.34,314.32z M63.98,392.824
		c3.968-23.8,19.48-43.656,41.112-53.536L111.964,408l-7.2,72H49.452L63.98,392.824z M391.244,480l-7.2-72l6.872-68.712
		c21.632,9.88,37.152,29.728,41.112,53.536L446.556,480H391.244z"/>
	<path style="fill:#3F3A34;" d="M121.132,150.88c-5.616,6.888-9.128,15.56-9.128,25.12c0,20.528,15.6,37.296,35.536,39.552
		c4.08,14.04,11.616,26.912,22.24,37.536l31.2,31.192c7.552,7.552,17.6,11.72,28.28,11.72h37.496c10.68,0,20.728-4.168,28.28-11.72
		l31.2-31.192c10.624-10.624,18.16-23.504,22.24-37.536c19.928-2.256,35.528-19.024,35.528-39.552c0-9.56-3.512-18.232-9.128-25.12
		c9.872-2.976,17.128-12.048,17.128-22.88c0-13.232-10.768-24-24-24h-1.136c-6.376-47.224-40.84-86.736-86.864-99.496V0h-64v4.504
		C169.98,17.264,135.508,56.784,129.14,104h-1.136c-13.232,0-24,10.768-24,24C104.004,138.832,111.26,147.904,121.132,150.88z
		 M128.004,176c0-10.416,6.712-19.216,16-22.528v37.392c0,2.616,0.152,5.208,0.376,7.784C134.9,195.44,128.004,186.552,128.004,176z
		 M314.916,241.776l-31.2,31.192c-4.464,4.472-10.648,7.032-16.968,7.032h-37.496c-6.32,0-12.496-2.56-16.968-7.032l-31.2-31.192
		c-13.6-13.6-21.088-31.68-21.088-50.912V152h176v38.864C336.004,210.096,328.516,228.176,314.916,241.776z M351.628,198.64
		c0.224-2.568,0.376-5.16,0.376-7.776v-37.392c9.288,3.312,16,12.112,16,22.528C368.004,186.552,361.108,195.44,351.628,198.64z
		 M216.004,21.168V88h16V16h32v72h16V21.168c37.08,12.024,64.752,44.312,70.768,82.832H145.236
		C151.252,65.48,178.924,33.192,216.004,21.168z M128.004,120h240c4.408,0,8,3.592,8,8s-3.592,8-8,8h-240c-4.408,0-8-3.592-8-8
		S123.596,120,128.004,120z"/>
	<rect x="296.004" y="72" style="fill:#3F3A34;" width="16" height="16"/>
	<rect x="184.004" y="72" style="fill:#3F3A34;" width="16" height="16"/>
</g>
<g>
</g>
<g>
</g>
<g>
</g>
<g>
</g>
<g>
</g>
<g>
</g>
<g>
</g>
<g>
</g>
<g>
</g>
<g>
</g>
<g>
</g>
<g>
</g>
<g>
</g>
<g>
</g>
<g>
</g>
</svg>
