<svg id="PE_Stamp" data-name="PE Stamp" xmlns="http://www.w3.org/2000/svg" width="33.72" height="30" viewBox="0 0 33.72 30">
  <path id="Subtraction_6" data-name="Subtraction 6" d="M2.642,12.863A2.853,2.853,0,0,1,.3,12.045a1.5,1.5,0,0,1-.247-1.307c.2-.79,2.322-7.1,2.976-8.73.646-1.6.9-1.6,2.118-1.6H14.32L16.061,0,26,5.932s0,0,0,0l0-.007.009-.013.012-.018a.066.066,0,0,0,.011-.016l.007-.01a.144.144,0,0,1,.012-.019l.029-.045.022-.034.1-.147c.2-.3.614-.912.819-1.186.248-.33.084-.936,0-1.181L24.5,1.534,25.164.492l.021,0c1-.052,1.873-.08,2.516-.08a4.52,4.52,0,0,1,1.155.082c.3.126,1.472,3.752,2.327,6.4l.045.143.063.2.045.137.011.033c.362,1.111.705,2.161.862,2.554a2.279,2.279,0,0,1-.177,2.1,1.39,1.39,0,0,1-1.167.657c-1.023,0-25.446.075-28.018.15C2.777,12.863,2.71,12.863,2.642,12.863ZM4.323,9.109a.658.658,0,1,0,0,1.316H25.042a.658.658,0,0,0,0-1.316ZM5.685,5.914a.658.658,0,1,0,0,1.316h13.3a.658.658,0,1,0,0-1.316Zm.968-3.195a.658.658,0,1,0,0,1.316h8.465a.658.658,0,0,0,0-1.316Z" transform="translate(0.59 16.569)" fill="#362D1E"/>
  <g id="stamp">
    <path id="Path_21" data-name="Path 21" d="M33.6,26.872l-2.989-9.006a2.306,2.306,0,0,0-2.192-1.582H26.809a1.438,1.438,0,0,0-.038-.227,1.413,1.413,0,0,0-.654-.871L25.807,15l1.543-2.442a5.87,5.87,0,0,1,2.923-2.343,5.3,5.3,0,0,0,2.672-2.251A5.283,5.283,0,1,0,23.17,6.041a5.726,5.726,0,0,1-.62,3.624L21.13,12.24l-.31-.183a1.424,1.424,0,0,0-1.949.5l-.552.934-1.4-.825a1.855,1.855,0,0,0-2.538.653l-.841,1.423a.658.658,0,0,0,.232.9l1.082.639H5.306a2.306,2.306,0,0,0-2.192,1.582L.125,26.872A2.379,2.379,0,0,0,2.383,30H31.34A2.379,2.379,0,0,0,33.6,26.872ZM23.7,10.3a7.033,7.033,0,0,0,.77-4.45A3.966,3.966,0,1,1,31.811,7.3a3.922,3.922,0,0,1-2,1.689,7.175,7.175,0,0,0-3.569,2.87l-1.564,2.475-.121-.072L22.265,12.91Zm-4.25,3.862.552-.934a.106.106,0,0,1,.145-.037L22.8,14.756l1.754,1.037h0l.894.528a.106.106,0,0,1,.037.145l-.084.142h0l-.468.792Zm-3.934-.172a.537.537,0,0,1,.734-.189l1.963,1.16h0l3.306,1.954,5.27,3.113a.536.536,0,0,1,.189.734l-.506.856L17.6,16.376h0l-2.588-1.529ZM32.2,28.243a1.051,1.051,0,0,1-.861.44H2.383a1.062,1.062,0,0,1-1.008-1.4l2.989-9.006a.991.991,0,0,1,.942-.68H17.087l9.285,5.486a.633.633,0,0,0,.071.036l.021.009.056.019.021.006a.7.7,0,0,0,.076.015h.014c.021,0,.043,0,.064,0h.026l.051,0,.025,0a.612.612,0,0,0,.074-.014.657.657,0,0,0,.4-.3l.841-1.423a1.84,1.84,0,0,0,.233-1.243c-.009-.054-.02-.108-.034-.161a1.841,1.841,0,0,0-.852-1.134l-1.4-.825.277-.468h2.074a.991.991,0,0,1,.942.68l2.989,9.006h0a1.052,1.052,0,0,1-.147.956Zm0,0" transform="translate(-0.001 -0.001)" fill="#362D1E"/>
    <path id="Path_22" data-name="Path 22" d="M442.412,41.323a1.277,1.277,0,0,1,.726.823,1.8,1.8,0,0,1-.235,1.35.659.659,0,0,0,1.1.727,3.126,3.126,0,0,0,.409-2.417A2.59,2.59,0,0,0,443,40.145a.659.659,0,0,0-.589,1.178Zm0,0" transform="translate(-412.935 -37.436)" fill="#362D1E"/>
    <path id="Path_23" data-name="Path 23" d="M412.03,30.089a.65.65,0,0,0,.061.113.67.67,0,0,0,.182.182.666.666,0,0,0,.113.061.684.684,0,0,0,.123.037.645.645,0,0,0,.129.013.636.636,0,0,0,.128-.013.661.661,0,0,0,.237-.1.673.673,0,0,0,.1-.082.636.636,0,0,0,.082-.1.664.664,0,0,0,.061-.113.689.689,0,0,0,.038-.123.662.662,0,0,0,.013-.129.651.651,0,0,0-.013-.128.667.667,0,0,0-.038-.123.648.648,0,0,0-.061-.114A.645.645,0,0,0,413,29.29a.659.659,0,0,0-.494-.1.685.685,0,0,0-.123.038.665.665,0,0,0-.113.06.615.615,0,0,0-.1.082.645.645,0,0,0-.082.1.635.635,0,0,0-.061.114.667.667,0,0,0-.038.123.656.656,0,0,0-.012.128.668.668,0,0,0,.012.129A.7.7,0,0,0,412.03,30.089Zm0,0" transform="translate(-384.847 -27.257)" fill="#362D1E"/>
  </g>
</svg>