<svg xmlns="http://www.w3.org/2000/svg" width="16.404" height="14.594" viewBox="0 0 16.404 14.594">
  <g id="Group_416" data-name="Group 416" transform="translate(0)">
    <path id="Subtraction_6" data-name="Subtraction 6" d="M1.259,6.468A1.322,1.322,0,0,1,.144,6.057.785.785,0,0,1,.026,5.4c.1-.4,1.109-3.58,1.418-4.39s.428-.8,1.009-.8h4.37L7.651,0l4.738,2.983.01-.017.016-.027.028-.044c.107-.168.328-.518.434-.667.139-.2.006-.578,0-.594L11.67.772l.319-.525H12c.616-.034.992-.041,1.2-.041a2.073,2.073,0,0,1,.551.041,21.543,21.543,0,0,1,1.1,3.2l0,.007,0,.011.022.072.006.02.012.04c.2.644.37,1.2.449,1.409a1.2,1.2,0,0,1-.084,1.056.656.656,0,0,1-.556.33c-.486,0-12.1.038-13.348.076h-.1Zm.8-2.74c-.173,0-.314.216-.314.481s.141.48.314.48H11.93c.173,0,.313-.215.313-.48s-.141-.481-.313-.481Zm.649-1.156a.331.331,0,0,0,0,.662H9.044a.331.331,0,0,0,0-.662Zm.46-1.2a.331.331,0,0,0,0,.662H7.2a.331.331,0,0,0,0-.662Z" transform="translate(0.43 7.712)" fill="#fff"/>
    <g id="stamp" transform="translate(0)">
      <path id="Path_21" data-name="Path 21" d="M16.345,13.073,14.891,8.692a1.122,1.122,0,0,0-1.066-.77h-.782a.7.7,0,0,0-.018-.111.687.687,0,0,0-.318-.424L12.555,7.3l.751-1.188a2.855,2.855,0,0,1,1.422-1.14,2.577,2.577,0,0,0,1.3-1.095,2.57,2.57,0,1,0-4.755-.937,2.785,2.785,0,0,1-.3,1.763l-.69,1.253-.151-.089a.693.693,0,0,0-.948.244l-.269.455-.679-.4A.9.9,0,0,0,7,6.48l-.409.692a.32.32,0,0,0,.113.439l.526.311H2.582a1.122,1.122,0,0,0-1.066.77L.062,13.073a1.157,1.157,0,0,0,1.1,1.522H15.246a1.158,1.158,0,0,0,1.1-1.522ZM11.531,5.011a3.421,3.421,0,0,0,.374-2.165,1.929,1.929,0,1,1,3.57.7,1.908,1.908,0,0,1-.975.822,3.49,3.49,0,0,0-1.736,1.4L12,6.973l-.059-.035-1.113-.657ZM9.464,6.89l.269-.454a.051.051,0,0,1,.07-.018l1.288.761.853.5h0l.435.257a.051.051,0,0,1,.018.07l-.041.069h0l-.228.385ZM7.55,6.806a.261.261,0,0,1,.357-.092l.955.564h0l1.608.95,2.563,1.515a.261.261,0,0,1,.092.357l-.246.417L8.563,7.967h0L7.3,7.222Zm8.115,6.934a.511.511,0,0,1-.419.214H1.16a.517.517,0,0,1-.49-.679L2.124,8.893a.482.482,0,0,1,.458-.331H8.313l4.517,2.669a.308.308,0,0,0,.035.017l.01,0,.027.009.01,0,.037.008h.007l.031,0H13l.025,0h.012l.036-.007a.32.32,0,0,0,.2-.147l.409-.692a.9.9,0,0,0,.113-.6c0-.026-.01-.052-.016-.078a.9.9,0,0,0-.414-.552l-.679-.4.135-.228h1.009a.482.482,0,0,1,.458.331l1.454,4.381h0a.512.512,0,0,1-.071.465Zm0,0" transform="translate(-0.001 -0.001)" fill="#fff"/>
      <path id="Path_22" data-name="Path 22" d="M442.225,40.682a.621.621,0,0,1,.353.4.875.875,0,0,1-.114.657.32.32,0,0,0,.534.354,1.52,1.52,0,0,0,.2-1.176,1.26,1.26,0,0,0-.686-.808.32.32,0,0,0-.287.573Zm0,0" transform="translate(-427.885 -38.791)" fill="#fff"/>
      <path id="Path_23" data-name="Path 23" d="M412,29.622a.32.32,0,0,0,.07.1.319.319,0,0,0,.049.04.324.324,0,0,0,.055.03.333.333,0,0,0,.06.018.314.314,0,0,0,.063.006.309.309,0,0,0,.063-.006.32.32,0,0,0,.06-.018.317.317,0,0,0,.055-.03.328.328,0,0,0,.049-.04.311.311,0,0,0,.04-.049.323.323,0,0,0,.029-.055.335.335,0,0,0,.018-.06.318.318,0,0,0,.006-.063.312.312,0,0,0-.006-.062.324.324,0,0,0-.018-.06.316.316,0,0,0-.029-.055.314.314,0,0,0-.089-.088.316.316,0,0,0-.055-.029.32.32,0,0,0-.06-.018.315.315,0,0,0-.125,0,.333.333,0,0,0-.06.018.323.323,0,0,0-.055.029.3.3,0,0,0-.049.04.308.308,0,0,0-.04.049.3.3,0,0,0-.03.055.324.324,0,0,0-.018.06.321.321,0,0,0-.006.062.327.327,0,0,0,.006.063A.339.339,0,0,0,412,29.622Zm0,0" transform="translate(-398.781 -28.244)" fill="#fff"/>
    </g>
  </g>
</svg>
