<svg id="document_1_" data-name="document (1)" xmlns="http://www.w3.org/2000/svg" width="22.852" height="30" viewBox="0 0 22.852 30">
  <path id="Path_296" data-name="Path 296" d="M76.762,8.789a2.053,2.053,0,0,1-2.051-2.051V0H64.223A3.226,3.226,0,0,0,61,3.223V26.777A3.226,3.226,0,0,0,64.223,30H80.629a3.226,3.226,0,0,0,3.223-3.223V8.789ZM65.8,21.094h4.261a.879.879,0,0,1,0,1.758H65.8a.879.879,0,0,1,0-1.758Zm-.879-3.809a.879.879,0,0,1,.879-.879H78.7a.879.879,0,0,1,0,1.758H65.8A.879.879,0,0,1,64.926,17.285ZM78.7,11.719a.879.879,0,0,1,0,1.758H65.8a.879.879,0,0,1,0-1.758Z" transform="translate(-61)" fill="#362D1E"/>
  <path id="Path_297" data-name="Path 297" d="M325,12.595a.293.293,0,0,0,.293.293h6.7a3.213,3.213,0,0,0-.616-.8l-5.65-5.345A3.231,3.231,0,0,0,325,6.221v6.374Z" transform="translate(-309.531 -5.856)" fill="#362D1E"/>
</svg>