<svg xmlns="http://www.w3.org/2000/svg" width="10.585" height="13.897" viewBox="0 0 10.585 13.897">
  <g id="document_1_" data-name="document (1)" transform="translate(0)">
    <path id="Path_296" data-name="Path 296" d="M68.3,4.071a.951.951,0,0,1-.95-.95V0H62.493A1.494,1.494,0,0,0,61,1.493V12.4A1.494,1.494,0,0,0,62.493,13.9h7.6A1.494,1.494,0,0,0,71.585,12.4V4.071Zm-5.076,5.7H65.2a.407.407,0,1,1,0,.814H63.226a.407.407,0,0,1,0-.814Zm-.407-1.764a.407.407,0,0,1,.407-.407H69.2a.407.407,0,0,1,0,.814H63.226A.407.407,0,0,1,62.818,8.007ZM69.2,5.428a.407.407,0,0,1,0,.814H63.226a.407.407,0,0,1,0-.814Z" transform="translate(-61)" fill="#fff"/>
    <path id="Path_297" data-name="Path 297" d="M325,9.173a.136.136,0,0,0,.136.136h3.1a1.489,1.489,0,0,0-.285-.373l-2.617-2.476a1.5,1.5,0,0,0-.336-.24V9.173Z" transform="translate(-317.834 -6.052)" fill="#fff"/>
  </g>
</svg>
