<svg xmlns="http://www.w3.org/2000/svg" width="26.25" height="35" viewBox="0 0 26.25 35">
  <g id="Prelim" transform="translate(-9.8 -1)">
    <g id="Group_100" data-name="Group 100" transform="translate(9.8 1)">
      <path id="Path_149" data-name="Path 149" d="M13.35,1V4.55H9.8V36H32.5V32.45h3.55V1Zm18.3,34.2H10.6V5.4H26.2v5.45h5.45ZM27,10V5.95L31.05,10Zm8.2,21.6H32.45V10.25l-5.7-5.7H14.15V1.8H35.2Z" transform="translate(-9.8 -1)" fill="#ccc"/>
      <path id="Path_152" data-name="Path 152" d="M17.592,16.9h5.75a.394.394,0,0,1,.4.4h0a.394.394,0,0,1-.4.4h-5.75a.394.394,0,0,1-.4-.4h0C17.142,17.05,17.342,16.9,17.592,16.9Z" transform="translate(-13.492 -8.95)" fill="#ccc"/>
      <path id="Path_153" data-name="Path 153" d="M17.592,21.2h3.55a.394.394,0,0,1,.4.4h0a.394.394,0,0,1-.4.4h-3.55a.394.394,0,0,1-.4-.4h0C17.142,21.4,17.342,21.2,17.592,21.2Z" transform="translate(-13.492 -11.1)" fill="#ccc"/>
      <path id="Path_154" data-name="Path 154" d="M17.592,27.8h14.5a.394.394,0,0,1,.4.4h0a.394.394,0,0,1-.4.4h-14.5a.394.394,0,0,1-.4-.4h0C17.142,28,17.342,27.8,17.592,27.8Z" transform="translate(-13.492 -14.4)" fill="#ccc"/>
      <path id="Path_155" data-name="Path 155" d="M17.592,32.2h14.5a.394.394,0,0,1,.4.4h0a.394.394,0,0,1-.4.4h-14.5a.394.394,0,0,1-.4-.4h0C17.142,32.35,17.342,32.2,17.592,32.2Z" transform="translate(-13.492 -16.6)" fill="#ccc"/>
      <path id="Path_156" data-name="Path 156" d="M17.592,40.9h14.5a.394.394,0,0,1,.4.4h0a.394.394,0,0,1-.4.4h-14.5a.394.394,0,0,1-.4-.4h0C17.142,41.1,17.342,40.9,17.592,40.9Z" transform="translate(-13.492 -20.95)" fill="#ccc"/>
      <path id="Path_157" data-name="Path 157" d="M17.592,45.3h10.1a.394.394,0,0,1,.4.4h0a.394.394,0,0,1-.4.4h-10.1a.394.394,0,0,1-.4-.4h0C17.142,45.5,17.342,45.3,17.592,45.3Z" transform="translate(-13.492 -23.15)" fill="#ccc"/>
      <path id="Path_158" data-name="Path 158" d="M17.592,36.5h14.5a.394.394,0,0,1,.4.4h0a.394.394,0,0,1-.4.4h-14.5a.394.394,0,0,1-.4-.4h0C17.142,36.7,17.342,36.5,17.592,36.5Z" transform="translate(-13.492 -18.75)" fill="#ccc"/>
      <path id="Path_159" data-name="Path 159" d="M37.2,51.9h4.65a.394.394,0,0,1,.4.4h0a.394.394,0,0,1-.4.4H37.2a.394.394,0,0,1-.4-.4h0A.394.394,0,0,1,37.2,51.9Z" transform="translate(-23.3 -26.45)" fill="#ccc"/>
    </g>
  </g>
</svg>
