<svg id="copy" xmlns="http://www.w3.org/2000/svg" width="27.5" height="30" viewBox="0 0 27.5 30">
  <path id="Path_302" data-name="Path 302" d="M4.75,8.438A5.944,5.944,0,0,1,10.688,2.5H22.1A3.431,3.431,0,0,0,18.813,0H4.438A3.44,3.44,0,0,0,1,3.438V22.813A3.44,3.44,0,0,0,4.438,26.25H4.75Z" transform="translate(-1)" fill="#362D1E"/>
  <path id="Path_303" data-name="Path 303" d="M23.813,4H9.438A3.44,3.44,0,0,0,6,7.438V25.563A3.44,3.44,0,0,0,9.438,29H23.813a3.44,3.44,0,0,0,3.438-3.437V7.438A3.44,3.44,0,0,0,23.813,4Zm-2.5,21.25H11.938a.938.938,0,0,1,0-1.875h9.375a.938.938,0,0,1,0,1.875Zm0-5H11.938a.938.938,0,0,1,0-1.875h9.375a.938.938,0,0,1,0,1.875Zm0-4.375H11.938a.938.938,0,0,1,0-1.875h9.375a.938.938,0,0,1,0,1.875Zm0-5H11.938a.938.938,0,0,1,0-1.875h9.375a.938.938,0,0,1,0,1.875Z" transform="translate(0.25 1)" fill="#362D1E"/>
</svg>