<svg xmlns="http://www.w3.org/2000/svg" width="13.42" height="14.64" viewBox="0 0 13.42 14.64">
  <g id="copy" transform="translate(0)">
    <path id="Path_302" data-name="Path 302" d="M2.83,4.118a2.9,2.9,0,0,1,2.9-2.9H11.3A1.674,1.674,0,0,0,9.693,0H2.678A1.679,1.679,0,0,0,1,1.678v9.455A1.679,1.679,0,0,0,2.678,12.81H2.83Z" transform="translate(-1)" fill="#fff"/>
    <path id="Path_303" data-name="Path 303" d="M14.693,4H7.678A1.679,1.679,0,0,0,6,5.678v8.845A1.679,1.679,0,0,0,7.678,16.2h7.015a1.679,1.679,0,0,0,1.678-1.678V5.678A1.679,1.679,0,0,0,14.693,4Zm-1.22,10.37H8.9a.458.458,0,1,1,0-.915h4.575a.458.458,0,1,1,0,.915Zm0-2.44H8.9a.458.458,0,0,1,0-.915h4.575a.458.458,0,0,1,0,.915Zm0-2.135H8.9a.458.458,0,0,1,0-.915h4.575a.458.458,0,0,1,0,.915Zm0-2.44H8.9a.458.458,0,1,1,0-.915h4.575a.458.458,0,1,1,0,.915Z" transform="translate(-2.95 -1.56)" fill="#fff"/>
  </g>
</svg>
