<svg height="496pt" viewBox="0 0 496 496" width="496pt" xmlns="http://www.w3.org/2000/svg"><path d="m293.769531 496h-91.539062l-10.382813-31.167969c-20.238281-5.222656-39.535156-13.207031-57.488281-23.800781l-29.367187 14.6875-64.726563-64.726562 14.6875-29.367188c-10.585937-17.945312-18.570313-37.242188-23.800781-57.488281l-31.152344-10.367188v-91.539062l31.167969-10.382813c5.222656-20.238281 13.207031-39.535156 23.800781-57.488281l-14.6875-29.367187 64.726562-64.726563 29.367188 14.6875c17.945312-10.585937 37.242188-18.570313 57.488281-23.800781l10.367188-31.152344h91.53125l11.308593 33.953125h14.921876v78.046875h-72c-74.992188 0-136 61.007812-136 136s61.007812 136 136 136c36.40625 0 74.136718-14.480469 98.472656-37.785156l2.328125-2.214844h102.054687l-6.511718 11.847656c-1.0625 1.945313-2.167969 3.871094-3.289063 5.785156l14.6875 29.367188-64.726563 64.726562-29.367187-14.6875c-17.945313 10.585938-37.242187 18.570313-57.488281 23.800782zm0 0" fill="#f0bc5e"/><path d="m240 32h16v16h-16zm0 0"/><path d="m89.605469 100.921875 11.3125-11.3125 11.3125 11.3125-11.3125 11.3125zm0 0"/><path d="m32 240h16v16h-16zm0 0"/><path d="m89.605469 395.078125 11.3125-11.3125 11.3125 11.3125-11.3125 11.3125zm0 0"/><path d="m240 448h16v16h-16zm0 0"/><path d="m383.761719 395.078125 11.3125-11.3125 11.3125 11.3125-11.3125 11.3125zm0 0"/><path d="m480 344h-16v-136h-16v136h-16v-112h-16v112h-16v-88h-16v88h-16v-48h-16v64h21.113281c-31.699219 35.296875-77.328125 56-125.113281 56-46.007812 0-88.945312-18.230469-120.894531-51.34375-31.945313-33.097656-48.632813-76.703125-46.992188-122.785156 3.175781-89.253906 80.382813-161.871094 172.101563-161.871094h195.785156c8.824219 0 16-7.175781 16-16v-28.6875l18.34375 18.34375 11.3125-11.3125-37.65625-37.65625-37.65625 37.65625 11.3125 11.3125 18.34375-18.34375v28.6875h-195.785156c-100.238282 0-184.613282 79.535156-188.085938 177.296875-1.800781 50.464844 16.480469 98.214844 51.464844 134.464844 34.992188 36.261719 82.015625 56.238281 132.40625 56.238281 56.992188 0 111.175781-26.871094 145.902344-72h102.097656v-192h-16zm0 0"/><path d="m368 96h88v16h-88zm0 0"/><path d="m144 192h16v16h-16zm0 0"/><path d="m176 192h128v16h-128zm0 0"/><path d="m144 224h16v16h-16zm0 0"/><path d="m176 224h128v16h-128zm0 0"/><path d="m144 256h16v16h-16zm0 0"/><path d="m176 256h128v16h-128zm0 0"/><path d="m144 288h16v16h-16zm0 0"/><path d="m176 288h128v16h-128zm0 0"/><path d="m480 136h16v16h-16zm0 0"/><path d="m448 176h16v16h-16zm0 0"/><path d="m416 200h16v16h-16zm0 0"/><path d="m384 224h16v16h-16zm0 0"/><path d="m352 264h16v16h-16zm0 0"/><path d="m248 128h208v16h-208zm0 0"/><path d="m248 160h72v16h-72zm0 0"/><path d="m336 160h64v16h-64zm0 0"/><path d="m336 96h16v16h-16zm0 0"/></svg>