<svg id="Page-1_5_" xmlns="http://www.w3.org/2000/svg" width="26" height="26" viewBox="0 0 26 26">
  <g id="_x30_06---Draw-Blueprint">
    <path id="Shape_33_" d="M359.387,202.7l-.178,1.58a.321.321,0,0,0,.093.262.31.31,0,0,0,.266.093l1.583-.18a.923.923,0,0,0,.089-.025l-1.829-1.829A.868.868,0,0,0,359.387,202.7Z" transform="translate(-343.887 -193.962)" fill="#707070"/>
    <path id="Rectangle-path_3_" d="M0,0H7.155V2.873H0Z" transform="translate(16.084 7.893) rotate(-45)" fill="#707070"/>
    <path id="Rectangle-path_1_" d="M0,0H.973V2.871H0Z" transform="translate(21.797 2.172) rotate(-45)" fill="#707070"/>
    <path id="Shape_32_" d="M545.392,2.176a.475.475,0,0,0,.145-.341.487.487,0,0,0-.145-.348L544.052.146A.486.486,0,0,0,543.7,0a.476.476,0,0,0-.339.144l-.683.682,2.03,2.03Z" transform="translate(-519.537 0)" fill="#707070"/>
    <path id="Shape_31_" d="M2.791,19.5h.929a.464.464,0,0,0,.464-.464V.464A.464.464,0,0,0,3.719,0H2.791A2.788,2.788,0,0,0,0,2.786V20.76A3.707,3.707,0,0,1,2.791,19.5Z" transform="translate(-0.005 0)" fill="#707070"/>
    <path id="Shape_30_" d="M2.925,171.907H25.541a.464.464,0,0,0,.464-.464V152.871a.464.464,0,0,0-.464-.464H22.848l-4.408,4.411a1.818,1.818,0,0,1-1.068.508c-1.567.176-1.581.188-1.717.188H8.826v5.107H19.969V160.3a.464.464,0,0,1,.929,0v6.964a.929.929,0,0,1-.929.929H10.684a.464.464,0,1,1,0-.929h3.25V163.55H8.826v6.5a.464.464,0,0,1-.929,0V157.514H6.505a.464.464,0,1,1,0-.929h7.943a1.236,1.236,0,0,1-.043-.459l.176-1.582a1.793,1.793,0,0,1,.527-1.084l1.054-1.054H5.112v12.536a1.393,1.393,0,0,1-1.393,1.393H2.791a2.788,2.788,0,0,0-2.786,2.786v.1a2.878,2.878,0,0,0,2.92,2.684Z" transform="translate(-0.005 -145.907)" fill="#707070"/>
    <path id="Rectangle-path_2_" d="M348.363,413.676h5.107v3.714h-5.107Z" transform="translate(-333.506 -396.033)" fill="#707070"/>
  </g>
</svg>
