<?xml version="1.0"?>
<svg xmlns="http://www.w3.org/2000/svg" height="512px" viewBox="-25 1 511 511.99988" width="512px"><g><path d="m460.242188 114.195312c-1.078126-16.929687-11.996094-31.886718-27.804688-38.105468l-185.621094-73.023438c-10.386718-4.085937-21.832031-4.089844-32.222656 0l-185.617188 73.023438c-15.8125 6.21875-26.726562 21.175781-27.804687 38.105468-1.03125 16.164063-4.605469 101.367188 26.359375 191.382813 15.488281 45.027344 37.222656 84.265625 64.597656 116.625 32.9375 38.933594 74.308594 68.167969 122.964844 86.890625 5.035156 1.9375 10.324219 2.90625 15.613281 2.90625 5.289063 0 10.578125-.96875 15.613281-2.90625 48.65625-18.722656 90.027344-47.957031 122.964844-86.890625 27.375-32.359375 49.105469-71.597656 64.597656-116.625 30.964844-90.015625 27.390626-175.21875 26.359376-191.382813zm-40.589844 186.488282c-14.882813 43.253906-35.691406 80.871094-61.855469 111.800781-31.285156 36.980469-70.609375 64.761719-116.878906 82.566406-6.585938 2.53125-13.839844 2.53125-20.421875 0-46.269532-17.804687-85.59375-45.585937-116.878906-82.566406-26.164063-30.929687-46.976563-68.542969-61.855469-111.800781-30.035157-87.304688-26.574219-169.867188-25.574219-185.53125.707031-11.128906 7.890625-20.964844 18.300781-25.058594l185.613281-73.027344c3.421876-1.34375 7.011719-2.015625 10.605469-2.015625 3.589844 0 7.183594.671875 10.601563 2.015625l185.617187 73.027344c10.40625 4.09375 17.589844 13.929688 18.300781 25.058594.996094 15.664062 4.457032 98.226562-25.574218 185.53125zm0 0" data-original="#000000" class="active-path" data-old_color="#000000" fill="#2D3436"/><path d="m389.207031 112.441406-145.292969-57.15625c-8.519531-3.351562-17.898437-3.351562-26.414062 0l-145.292969 57.15625c-12.964843 5.101563-21.914062 17.367188-22.796875 31.246094-.636718 9.980469-1.628906 37.054688 2.859375 72.78125.519531 4.125 4.289063 7.046875 8.40625 6.527344 4.121094-.519532 7.042969-4.28125 6.523438-8.40625-4.328125-34.453125-3.378907-60.394532-2.773438-69.945313.515625-8.082031 5.734375-15.226562 13.292969-18.199219l145.289062-57.160156c4.964844-1.953125 10.433594-1.953125 15.398438 0l145.289062 57.160156c7.558594 2.972657 12.777344 10.117188 13.292969 18.199219 1.027344 16.105469 7.453125 159.9375-81.863281 248.652344-2.949219 2.925781-2.964844 7.691406-.035156 10.640625 1.46875 1.480469 3.40625 2.21875 5.339844 2.21875 1.914062 0 3.832031-.726562 5.300781-2.183594 94.027343-93.394531 87.34375-243.480468 86.273437-260.285156-.886718-13.878906-9.832031-26.144531-22.796875-31.246094zm0 0" data-original="#000000" class="active-path" data-old_color="#000000" fill="#2D3436"/><path d="m289.269531 415.253906c-15.449219 11.160156-32.664062 20.429688-51.15625 27.546875-4.777343 1.835938-10.035156 1.835938-14.8125 0-98.238281-37.804687-135.992187-126.40625-150.363281-194.082031-.859375-4.066406-4.867188-6.660156-8.921875-5.796875-4.0625.863281-6.660156 4.855469-5.796875 8.921875 15.144531 71.316406 55.144531 164.773438 159.679688 205 4.128906 1.589844 8.46875 2.382812 12.808593 2.382812 4.339844 0 8.679688-.792968 12.808594-2.382812 19.707031-7.582031 38.0625-17.472656 54.566406-29.394531 3.367188-2.429688 4.125-7.132813 1.695313-10.503907-2.4375-3.367187-7.140625-4.125-10.507813-1.691406zm0 0" data-original="#000000" class="active-path" data-old_color="#000000" fill="#2D3436"/><path d="m230.707031 144.109375c-61.695312 0-111.890625 50.191406-111.890625 111.886719 0 61.699218 50.195313 111.890625 111.890625 111.890625 61.695313 0 111.886719-50.191407 111.886719-111.886719s-50.191406-111.890625-111.886719-111.890625zm0 208.730469c-53.398437 0-96.84375-43.441406-96.84375-96.839844s43.445313-96.84375 96.84375-96.84375c53.398438 0 96.839844 43.445312 96.839844 96.84375s-43.441406 96.839844-96.839844 96.839844zm0 0" data-original="#000000" class="active-path" data-old_color="#000000" fill="#2D3436"/><path d="m302.089844 226.855469c-.246094-7.453125-3.617188-14.527344-9.253906-19.414063l-1.828126-1.582031c-10.828124-9.382813-27.074218-8.628906-36.984374 1.71875l-39.851563 41.613281-10.039063-9.035156c-10.980468-9.878906-27.976562-9.003906-37.886718 1.953125-4.917969 5.441406-7.363282 12.46875-6.875 19.789063.484375 7.320312 3.832031 13.964843 9.429687 18.707031l30.339844 25.722656c5.070313 4.296875 11.234375 6.421875 17.378906 6.421875 6.824219 0 13.628907-2.625 18.875-7.8125l58.738281-58.105469c5.300782-5.246093 8.199219-12.527343 7.957032-19.976562zm-18.539063 9.277343-58.738281 58.105469c-4.382812 4.335938-11.238281 4.597657-15.941406.613281l-30.339844-25.722656c-2.460938-2.085937-3.933594-5.007812-4.148438-8.226562-.214843-3.21875.859376-6.308594 3.023438-8.703125 2.328125-2.570313 5.539062-3.878907 8.765625-3.878907 2.816406 0 5.644531.996094 7.894531 3.023438l11.023438 9.921875c5.527344 4.972656 13.886718 4.664063 19.03125-.707031l40.769531-42.570313c4.355469-4.550781 11.5-4.882812 16.261719-.757812l1.828125 1.585937c2.515625 2.175782 3.957031 5.207032 4.066406 8.535156.113281 3.324219-1.128906 6.441407-3.496094 8.78125zm0 0" data-original="#000000" class="active-path" data-old_color="#000000" fill="#2D3436"/></g> </svg>
