<svg width="145" height="144" viewBox="0 0 145 144" fill="none" xmlns="http://www.w3.org/2000/svg">
<g clip-path="url(#clip0_475_84)">
<path d="M72.5 0.222168C32.738 0.222168 0.5 32.3642 0.5 72.0002C0.5 111.636 32.738 143.778 72.5 143.778C112.268 143.778 144.5 111.636 144.5 72.0002C144.5 32.3642 112.262 0.222168 72.5 0.222168ZM69.254 29.0222C80.714 28.2422 92.51 31.3922 101.846 40.6262C110.402 49.2482 116.906 61.2662 116.774 72.5282H129.572L102.908 102.306L76.238 72.5282H90.116C90.11 62.1842 87.554 56.0762 79.436 48.0722C71.486 40.0562 63.434 35.4122 49.568 34.2542C55.7512 31.312 62.4257 29.5402 69.254 29.0282V29.0222ZM42.104 41.7002L68.774 71.4782H54.896C54.896 81.8222 57.452 87.9302 65.564 95.9342C73.52 103.95 81.566 108.606 95.432 109.764C79.328 117.372 58.112 118.152 43.172 103.38C34.61 94.7582 28.1 82.7402 28.238 71.4782H15.428L42.104 41.7002Z" fill="#EDC773"/>
</g>
<defs>
<clipPath id="clip0_475_84">
<rect width="144" height="144" fill="white" transform="translate(0.5)"/>
</clipPath>
</defs>
</svg>
