<svg xmlns="http://www.w3.org/2000/svg" width="21.667" height="26" viewBox="0 0 21.667 26">
  <path id="Report" d="M20.688,0H4.979A2.982,2.982,0,0,0,2,2.979V23.021A2.982,2.982,0,0,0,4.979,26H20.688a2.982,2.982,0,0,0,2.979-2.979V2.979A2.982,2.982,0,0,0,20.688,0ZM11.479,14.083V8.749a5.4,5.4,0,1,1-4.012,9.682l3.773-3.773a.809.809,0,0,0,.238-.574ZM9.854,8.749v5L6.319,17.282A5.372,5.372,0,0,1,9.854,8.749ZM19.6,23.021H6.063a.813.813,0,0,1,0-1.625H19.6a.813.813,0,1,1,0,1.625Zm0-3.521H17.979a.813.813,0,0,1,0-1.625H19.6a.813.813,0,1,1,0,1.625Zm0-2.979H17.979a.813.813,0,1,1,0-1.625H19.6a.813.813,0,1,1,0,1.625Zm0-3.25H17.979a.813.813,0,0,1,0-1.625H19.6a.813.813,0,1,1,0,1.625Zm0-2.979H17.979a.812.812,0,0,1,0-1.625H19.6a.813.813,0,1,1,0,1.625Z" transform="translate(-2)" fill="#362D1E"/>
</svg>