<svg id="Layer_3" enable-background="new 0 0 64 64" height="512" viewBox="0 0 64 64" width="512" xmlns="http://www.w3.org/2000/svg"><path d="m58 39h-4v-4h-6v4h-2v-4h-6v4h-9.861c-2.328-6.606-8.935-10.732-15.988-9.889-6.802.816-12.293 6.351-13.054 13.163-.478 4.272.878 8.545 3.72 11.723 2.843 3.18 6.92 5.003 11.183 5.003 6.331 0 12.039-4.076 14.138-10h27.862c2.757 0 5-2.243 5-5s-2.243-5-5-5zm-48 9c-2.209 0-4-1.791-4-4s1.791-4 4-4 4 1.791 4 4-1.791 4-4 4z" fill="#f0bc5e"/><path d="m49 9h2v4h-2z"/><path d="m43 15h4v2h-4z"/><path d="m49 19h2v4h-2z"/><path d="m53 15h4v2h-4z"/><path d="m10 39c-2.757 0-5 2.243-5 5s2.243 5 5 5 5-2.243 5-5-2.243-5-5-5zm0 8c-1.654 0-3-1.346-3-3s1.346-3 3-3 3 1.346 3 3-1.346 3-3 3z"/><path d="m35 43h24v2h-24z"/><path d="m31 43h2v2h-2z"/><path d="m11.572 33.927.805 1.832c3.424-1.505 7.343-.767 9.987 1.877l1.414-1.414c-3.232-3.232-8.023-4.13-12.206-2.295z"/><path d="m9.903 34.842c-.602.401-1.167.866-1.681 1.38l1.414 1.414c.421-.421.885-.802 1.377-1.13z"/><path d="m49 15h2v2h-2z"/><path d="m31 9h2v4h-2z"/><path d="m25 15h4v2h-4z"/><path d="m31 19h2v4h-2z"/><path d="m35 15h4v2h-4z"/><path d="m31 15h2v2h-2z"/><path d="m13 9h2v4h-2z"/><path d="m7 15h4v2h-4z"/><path d="m13 19h2v4h-2z"/><path d="m17 15h4v2h-4z"/><path d="m13 15h2v2h-2z"/><path d="m57.154 5h-50.308c-3.223 0-5.846 2.622-5.846 5.846v10.309c0 3.223 2.623 5.845 5.846 5.845h50.309c3.222 0 5.845-2.622 5.845-5.846v-10.308c0-3.224-2.623-5.846-5.846-5.846zm3.846 16.154c0 2.12-1.725 3.846-3.846 3.846h-50.308c-2.121 0-3.846-1.726-3.846-3.846v-10.308c0-2.12 1.725-3.846 3.846-3.846h50.309c2.12 0 3.845 1.726 3.845 3.846z"/></svg>