<svg width="13" height="21" viewBox="0 0 13 21" fill="none" xmlns="http://www.w3.org/2000/svg">
<path d="M8.8545 10.7348L1.2825 18.3068C1.12718 18.4442 1.00543 18.6154 0.926595 18.8073C0.847765 18.9991 0.813955 19.2065 0.827764 19.4134C0.841573 19.6204 0.902632 19.8214 1.00625 20.001C1.10987 20.1807 1.25329 20.3342 1.4255 20.4498C1.71221 20.6574 2.06311 20.7569 2.41613 20.7308C2.76915 20.7046 3.10153 20.5544 3.3545 20.3068L11.8545 11.7348C11.9931 11.6077 12.1037 11.4531 12.1794 11.281C12.2551 11.1088 12.2942 10.9228 12.2942 10.7348C12.2942 10.5467 12.2551 10.3607 12.1794 10.1886C12.1037 10.0165 11.9931 9.86192 11.8545 9.7348L3.3545 1.16279C3.10153 0.915178 2.76915 0.765004 2.41613 0.738834C2.06311 0.712665 1.71221 0.812185 1.4255 1.01979C1.25329 1.13538 1.10987 1.2889 1.00625 1.46856C0.902633 1.64822 0.841573 1.84924 0.827764 2.05618C0.813955 2.26312 0.847765 2.47047 0.926595 2.66231C1.00543 2.85414 1.12718 3.02535 1.2825 3.16279L8.8545 10.7348Z" fill="#333333"/>
</svg>
