<svg id="sad" xmlns="http://www.w3.org/2000/svg" width="56" height="56" viewBox="0 0 56 56">
  <g id="Group_1646" data-name="Group 1646">
    <path id="Path_558" data-name="Path 558" d="M28,0A28,28,0,1,0,56,28,28.033,28.033,0,0,0,28,0ZM14,21a3.5,3.5,0,1,1,3.5,3.5A3.506,3.506,0,0,1,14,21ZM40.373,42.6a1.758,1.758,0,0,1-2.478,0,14.331,14.331,0,0,0-19.8,0,1.75,1.75,0,0,1-2.475-2.474,17.5,17.5,0,0,1,24.752,0A1.751,1.751,0,0,1,40.373,42.6ZM38.5,24.5A3.5,3.5,0,1,1,42,21,3.506,3.506,0,0,1,38.5,24.5Z" fill="rgba(51,51,51,0.2)"/>
  </g>
</svg>
