<svg width="28" height="30" viewBox="0 0 28 30" fill="none" xmlns="http://www.w3.org/2000/svg">
<path d="M3.8417 8.438C3.84329 6.86363 4.47037 5.3542 5.58533 4.24095C6.70028 3.12771 8.21203 2.50159 9.78882 2.5H21.2184C21.0159 1.78291 20.5851 1.15111 19.9912 0.700086C19.3973 0.24906 18.6725 0.00331838 17.9263 0L3.52922 0C2.61617 0.000529876 1.74066 0.362917 1.09504 1.00755C0.449412 1.65219 0.0864682 2.52635 0.0859375 3.438V22.813C0.0867335 23.7245 0.449794 24.5984 1.09539 25.2428C1.74099 25.8872 2.61634 26.2495 3.52922 26.25H3.8417V8.438Z" fill="#362D1E"/>
<path d="M24.1859 5H9.78886C8.87581 5.00053 8.00031 5.36292 7.35468 6.00755C6.70906 6.65219 6.34611 7.52635 6.34558 8.438V26.563C6.34638 27.4745 6.70944 28.3484 7.35503 28.9928C8.00063 29.6372 8.87598 29.9995 9.78886 30H24.1859C25.0988 29.9995 25.9742 29.6372 26.6198 28.9928C27.2654 28.3484 27.6284 27.4745 27.6292 26.563V8.438C27.6287 7.52635 27.2657 6.65219 26.6201 6.00755C25.9745 5.36292 25.099 5.00053 24.1859 5V5ZM21.6821 26.25H12.2927C12.049 26.2421 11.8179 26.1398 11.6483 25.9648C11.4787 25.7899 11.3839 25.556 11.3839 25.3125C11.3839 25.069 11.4787 24.8351 11.6483 24.6602C11.8179 24.4852 12.049 24.3829 12.2927 24.375H21.6821C21.9258 24.3829 22.1569 24.4852 22.3265 24.6602C22.4961 24.8351 22.5909 25.069 22.5909 25.3125C22.5909 25.556 22.4961 25.7899 22.3265 25.9648C22.1569 26.1398 21.9258 26.2421 21.6821 26.25V26.25ZM21.6821 21.25H12.2927C12.049 21.2421 11.8179 21.1398 11.6483 20.9648C11.4787 20.7899 11.3839 20.556 11.3839 20.3125C11.3839 20.069 11.4787 19.8351 11.6483 19.6602C11.8179 19.4852 12.049 19.3829 12.2927 19.375H21.6821C21.9258 19.3829 22.1569 19.4852 22.3265 19.6602C22.4961 19.8351 22.5909 20.069 22.5909 20.3125C22.5909 20.556 22.4961 20.7899 22.3265 20.9648C22.1569 21.1398 21.9258 21.2421 21.6821 21.25V21.25ZM21.6821 16.875H12.2927C12.049 16.8671 11.8179 16.7648 11.6483 16.5898C11.4787 16.4149 11.3839 16.181 11.3839 15.9375C11.3839 15.694 11.4787 15.4601 11.6483 15.2852C11.8179 15.1102 12.049 15.0079 12.2927 15H21.6821C21.9258 15.0079 22.1569 15.1102 22.3265 15.2852C22.4961 15.4601 22.5909 15.694 22.5909 15.9375C22.5909 16.181 22.4961 16.4149 22.3265 16.5898C22.1569 16.7648 21.9258 16.8671 21.6821 16.875ZM21.6821 11.875H12.2927C12.049 11.8671 11.8179 11.7648 11.6483 11.5898C11.4787 11.4149 11.3839 11.181 11.3839 10.9375C11.3839 10.694 11.4787 10.4601 11.6483 10.2852C11.8179 10.1102 12.049 10.0079 12.2927 10H21.6821C21.9258 10.0079 22.1569 10.1102 22.3265 10.2852C22.4961 10.4601 22.5909 10.694 22.5909 10.9375C22.5909 11.181 22.4961 11.4149 22.3265 11.5898C22.1569 11.7648 21.9258 11.8671 21.6821 11.875Z" fill="#362D1E"/>
</svg>
