<svg xmlns="http://www.w3.org/2000/svg" width="36.787" height="36.632" viewBox="0 0 36.787 36.632">
  <g id="Search" transform="translate(0.046 -0.046)">
    <g id="Path_500" data-name="Path 500" transform="translate(-0.046 18.046) rotate(-45)" fill="none">
      <path d="M12.771,0A12.623,12.623,0,0,1,25.456,12.684,12.833,12.833,0,0,1,12.684,25.456,12.623,12.623,0,0,1,0,12.771,12.833,12.833,0,0,1,12.771,0Z" stroke="none"/>
      <path d="M 12.81591320037842 3.999996185302734 L 12.78513336181641 4.000055313110352 C 7.95753288269043 4.016565322875977 4.016563415527344 7.957534790039063 4.000053405761719 12.78513526916504 C 3.99211311340332 15.10582542419434 4.885282516479492 17.28451538085938 6.515033721923828 18.91984558105469 C 8.14482307434082 20.55521583557129 10.32002353668213 21.45585632324219 12.63993358612061 21.45585632324219 L 12.67071342468262 21.45579528808594 C 17.49831390380859 21.43928527832031 21.43928337097168 17.49831581115723 21.4557933807373 12.67070484161377 C 21.4637336730957 10.35001564025879 20.57056427001953 8.171335220336914 18.9408130645752 6.536005020141602 C 17.3110237121582 4.900634765625 15.13582324981689 3.999996185302734 12.81591320037842 3.999996185302734 M 12.81591796875 0 C 19.82511901855469 0 25.47976303100586 5.669582366943359 25.45577430725098 12.68438529968262 C 25.43173408508301 19.71378517150879 19.71378326416016 25.43173599243164 12.68439292907715 25.45577621459961 C 12.66980648040771 25.45582580566406 12.65450477600098 25.45585060119629 12.63992881774902 25.45585060119629 C 5.630727767944336 25.45585060119629 -0.02391624450683594 19.78626823425293 7.2479248046875e-05 12.77145576477051 C 0.02411270141601563 5.7420654296875 5.742063522338867 0.02411460876464844 12.77145385742188 7.43865966796875e-05 C 12.78604030609131 2.47955322265625e-05 12.80134201049805 0 12.81591796875 0 Z" stroke="none" fill="#333"/>
    </g>
    <line id="Line_11" data-name="Line 11" x1="0.046" y2="13.435" transform="translate(25.79 25.759) rotate(-45)" fill="none" stroke="#333" stroke-width="4"/>
  </g>
</svg>
