<svg id="Layer_5" enable-background="new 0 0 64 64" height="512" viewBox="0 0 64 64" width="512" xmlns="http://www.w3.org/2000/svg"><g><g><path d="m11 11h-6v-6h6z" fill="#f0bc5e"/></g><g><path d="m19 11h-6v-6h6z" fill="#f0bc5e"/></g><g><path d="m27 11h-6v-6h6z" fill="#f0bc5e"/></g><g><path d="m54 49h-28.838c-1.719-3.932-5.889-6.548-10.582-5.902-4.456.613-8.023 4.291-8.517 8.762-.667 6.033 4.039 11.14 9.937 11.14 4.1 0 7.619-2.47 9.162-6h16.838l2-2 2 2h2l2-2 2 2h2l4-3v-2zm-41 8c-2.206 0-4-1.794-4-4s1.794-4 4-4 4 1.794 4 4-1.794 4-4 4z" fill="#f0bc5e"/></g><g><path d="m32 37c-2.206 0-4-1.794-4-4s1.794-4 4-4 4 1.794 4 4-1.794 4-4 4z" fill="#f0bc5e"/></g><g><path d="m60 1h-56c-1.654 0-3 1.346-3 3v47c0 1.654 1.346 3 3 3h2.053c-.065-.65-.064-1.319.002-2h-2.055c-.552 0-1-.449-1-1v-36h58v36c0 .551-.448 1-1 1h-2v2h2c1.654 0 3-1.346 3-3v-47c0-1.654-1.346-3-3-3zm-57 12v-9c0-.551.448-1 1-1h56c.552 0 1 .449 1 1v9z"/><path d="m13 48c-2.757 0-5 2.243-5 5s2.243 5 5 5 5-2.243 5-5-2.243-5-5-5zm0 8c-1.654 0-3-1.346-3-3s1.346-3 3-3 3 1.346 3 3-1.346 3-3 3z"/><path d="m31 36h2v3h-2z"/><path d="m57 17h2v2h-2z"/><path d="m53 17h2v2h-2z"/><path d="m49 17h2v2h-2z"/><path d="m5 17h2v2h-2z"/><path d="m5 21h2v2h-2z"/><path d="m5 25h2v2h-2z"/><path d="m49.774 29.004c-.914-4.056-4.526-7.004-8.774-7.004-1.286 0-2.558.28-3.728.815-2.165-3.611-6.013-5.815-10.272-5.815-5.087 0-9.629 3.254-11.307 8.005-4.821.162-8.693 4.135-8.693 8.995 0 4.962 4.037 9 9 9h34c3.859 0 7-3.14 7-7 0-3.935-3.293-7.122-7.226-6.996zm.226 11.996h-34c-3.859 0-7-3.14-7-7s3.141-7 7-7c.074 0 .146.005.219.01l.947.051.217-.77c1.206-4.292 5.161-7.291 9.617-7.291 3.835 0 7.271 2.146 8.969 5.601l.481.98.934-.565c1.097-.665 2.347-1.016 3.616-1.016 3.565 0 6.555 2.67 6.952 6.21l.119 1.06 1.051-.187c.312-.056.6-.083.878-.083 2.757 0 5 2.243 5 5s-2.243 5-5 5z"/></g></g></svg>