<?xml version="1.0" encoding="iso-8859-1"?>
<!-- Generator: Adobe Illustrator 19.0.0, SVG Export Plug-In . SVG Version: 6.00 Build 0)  -->
<svg version="1.1" id="Capa_1" xmlns="http://www.w3.org/2000/svg" xmlns:xlink="http://www.w3.org/1999/xlink" x="0px" y="0px"
	 viewBox="0 0 496 496" style="enable-background:new 0 0 496 496;" xml:space="preserve">
<g>
	<rect x="208" y="448" style="fill:#F0BC5E;" width="80" height="40"/>
	<polygon style="fill:#F0BC5E;" points="248,152 200,248 248,344 296,248 	"/>
</g>
<path d="M375.896,120.104l-88.24,56.16L248,4.424l-39.656,171.832l-88.24-56.16l56.16,88.24L4.424,248l171.832,39.656l-56.16,88.24
	l88.24-56.16L226.864,400H224c-13.232,0-24,10.768-24,24v72h96v-72c0-13.232-10.768-24-24-24h-2.864l18.52-80.256l88.24,56.16
	l-56.16-88.24L491.576,248l-171.832-39.656L375.896,120.104z M280,424v56h-64v-56c0-4.416,3.584-8,8-8h48
	C276.416,416,280,419.584,280,424z M420.424,248l-126.32,29.16l29.64,46.584l-46.584-29.64L252.712,400h-9.424l-24.44-105.896
	l-46.584,29.64l29.64-46.584L75.576,248l126.32-29.16l-29.64-46.584l46.584,29.64L248,75.576l29.16,126.32l46.584-29.64
	l-29.64,46.584L420.424,248z"/>
<path d="M215.056,248L248,313.888L280.944,248L248,182.112L215.056,248z M248,278.112L232.944,248L248,217.888L263.056,248
	L248,278.112z"/>
<rect x="464" width="16" height="16"/>
<rect x="448" y="16" width="16" height="16"/>
<rect x="464" y="32" width="16" height="16"/>
<rect x="480" y="16" width="16" height="16"/>
<rect x="72" y="56" width="16" height="16"/>
<rect x="56" y="72" width="16" height="16"/>
<rect x="72" y="88" width="16" height="16"/>
<rect x="88" y="72" width="16" height="16"/>
<rect x="416" y="400" width="16" height="16"/>
<rect x="400" y="416" width="16" height="16"/>
<rect x="416" y="432" width="16" height="16"/>
<rect x="432" y="416" width="16" height="16"/>
<rect x="16" y="448" width="16" height="16"/>
<rect y="464" width="16" height="16"/>
<rect x="16" y="480" width="16" height="16"/>
<rect x="32" y="464" width="16" height="16"/>
<g>
</g>
<g>
</g>
<g>
</g>
<g>
</g>
<g>
</g>
<g>
</g>
<g>
</g>
<g>
</g>
<g>
</g>
<g>
</g>
<g>
</g>
<g>
</g>
<g>
</g>
<g>
</g>
<g>
</g>
</svg>
