<svg id="Group_1512" data-name="Group 1512" xmlns="http://www.w3.org/2000/svg" width="15.602" height="26" viewBox="0 0 15.602 26">
  <g id="compass" transform="translate(0)">
    <g id="Group_12" data-name="Group 12" transform="translate(6.501 4.334)">
      <g id="Group_11" data-name="Group 11" transform="translate(0)">
        <path id="Path_13" data-name="Path 13" d="M217.272,80a1.3,1.3,0,0,0-.165,2.589,1.4,1.4,0,0,0,.165.012,1.449,1.449,0,0,0,.166-.012A1.3,1.3,0,0,0,217.272,80Zm.351,1.554a.433.433,0,0,1-.291.173.539.539,0,0,1-.118,0,.433.433,0,0,1-.293-.176.419.419,0,0,1-.082-.251.433.433,0,0,1,.867,0A.421.421,0,0,1,217.623,81.554Z" transform="translate(-215.972 -80)" fill="#362D1E"/>
      </g>
    </g>
    <g id="Group_14" data-name="Group 14">
      <g id="Group_13" data-name="Group 13">
        <path id="Path_14" data-name="Path 14" d="M111.14,14.3h-2.023l-2.311-8.628V5.634a3.028,3.028,0,0,0-1.3-2.481V1.3a1.3,1.3,0,0,0-1.3-1.3h-.867a1.3,1.3,0,0,0-1.3,1.3V3.153a3.028,3.028,0,0,0-1.3,2.481v.039L98.428,14.3H96.405a.433.433,0,0,0,0,.867H98.2l-1.455,5.426a3.034,3.034,0,0,0,1.734,3.57l-.347,1.289a.433.433,0,0,0,.306.531h0a.439.439,0,0,0,.112.015.433.433,0,0,0,.419-.321l2.819-10.51h1.556v1.3a.433.433,0,0,0,.867,0v-1.3h1.556l2.817,10.51A.433.433,0,0,0,109,26a.439.439,0,0,0,.112-.015.433.433,0,0,0,.306-.531h0l-.347-1.289a3.034,3.034,0,0,0,1.734-3.57l-1.453-5.426h1.79a.433.433,0,1,0,0-.867ZM103.34.867h.867a.433.433,0,0,1,.433.433V2.73c-.084-.026-.173-.04-.257-.058-.041-.008-.081-.02-.122-.027a2.8,2.8,0,0,0-.975,0c-.043.007-.087.02-.13.029-.083.018-.168.031-.249.056V1.3A.433.433,0,0,1,103.34.867Zm-.654,2.9a2.2,2.2,0,0,1,.369-.17,2.09,2.09,0,0,1,.563-.112c.051,0,.1-.013.153-.013a2.208,2.208,0,0,1,1.09.3,2.173,2.173,0,0,1,1.08,1.889.39.39,0,0,0-.005.055,2.162,2.162,0,0,1-1.694,2.044,2.2,2.2,0,0,1-.939,0,2.162,2.162,0,0,1-1.694-2.044.678.678,0,0,0,0-.073A2.16,2.16,0,0,1,102.685,3.763ZM98.7,23.32a2.171,2.171,0,0,1-1.124-2.5l1.514-5.651h1.794Zm2.417-9.018H99.325l1.887-7.041c.039.062.087.117.13.176s.082.117.13.171c.06.071.13.133.194.2.049.048.1.1.148.143.074.062.154.116.234.171.054.038.1.079.162.113.087.052.179.093.27.137.058.027.113.059.173.083l.029.014Zm3.087,0V13a.433.433,0,0,0-.867,0v1.3h-1.324l1.513-5.647c.081.007.162.013.244.013s.163-.007.244-.013L105.53,14.3Zm.657-5.835.026-.013c.07-.028.135-.065.2-.1s.164-.076.241-.122.123-.087.184-.13.145-.1.212-.156.108-.1.161-.156.126-.12.182-.185.09-.119.135-.179.089-.11.127-.169L108.22,14.3h-1.793Zm5.1,12.353a2.17,2.17,0,0,1-1.124,2.5l-2.184-8.151h1.794Z" transform="translate(-95.972)" fill="#362D1E"/>
      </g>
    </g>
  </g>
  <path id="Path_293" data-name="Path 293" d="M-7623.657,7183.062s.9,1.646,1.97,1.938-4.2,15.726-4.2,15.726-2.455-.678-1.776-2.874S-7623.657,7183.062-7623.657,7183.062Z" transform="translate(7628.837 -7176.816)" fill="#362D1E"/>
  <path id="Path_294" data-name="Path 294" d="M-7617.151,7182.993l-2.308,2.014,4.643,15.659s1.863-1.291,1.54-3.055S-7617.151,7182.993-7617.151,7182.993Z" transform="translate(7627.728 -7176.807)" fill="#362D1E"/>
  <path id="Path_295" data-name="Path 295" d="M-7621.56,7179.062s-.487-2.924.948-2.843,1.584.216,1.665.907.095,2.357.095,2.357Z" transform="translate(7628.019 -7175.903)" fill="#362D1E"/>
</svg>