<svg version="1.1" viewBox="0.0 0.0 900.0 900.0" fill="none" stroke="none" stroke-linecap="square" stroke-miterlimit="10" xmlns:xlink="http://www.w3.org/1999/xlink" xmlns="http://www.w3.org/2000/svg"><clipPath id="p.0"><path d="m0 0l900.0 0l0 900.0l-900.0 0l0 -900.0z" clip-rule="nonzero"/></clipPath><g clip-path="url(#p.0)"><path fill="#000000" fill-opacity="0.0" d="m0 0l900.0 0l0 900.0l-900.0 0z" fill-rule="evenodd"/><path fill="#f3c259" fill-opacity="0.6034" d="m78.24534 373.6725l0 0c-35.22721 -24.544281 -43.886204 -72.99783 -19.340405 -108.224l398.2614 -571.55286c11.7872925 -16.916199 29.81195 -28.457336 50.108765 -32.084534c20.296783 -3.6271667 41.203094 0.9567261 58.119843 12.743317l536.7144 373.95187c35.227295 24.5443 43.88623 72.99783 19.340454 108.224l-398.2614 571.55286c-24.545837 35.226135 -73.0014 43.885498 -108.22864 19.341248z" fill-rule="evenodd"/><path fill="#f3c259" fill-opacity="0.933" d="m55.739178 660.9611l0 0c-56.614388 -39.446106 -70.53091 -117.31775 -31.083418 -173.93115l449.99838 -645.81934c18.94336 -27.186737 47.91092 -45.735 80.53012 -51.564423c32.6192 -5.8294067 66.21814 1.5375519 93.405334 20.48024l596.5874 415.6727c56.61438 39.44609 70.531006 117.31773 31.083496 173.93117l-449.9984 645.81934c-39.44751 56.613403 -117.321045 70.53027 -173.93542 31.084106z" fill-rule="evenodd"/></g></svg>