<?xml version="1.0" encoding="utf-8"?>
<!-- Generator: Adobe Illustrator 24.3.0, SVG Export Plug-In . SVG Version: 6.00 Build 0)  -->
<svg version="1.1" id="Layer_1" xmlns="http://www.w3.org/2000/svg" xmlns:xlink="http://www.w3.org/1999/xlink" x="0px" y="0px"
	 viewBox="0 0 72 72" style="enable-background:new 0 0 72 72;" xml:space="preserve">
<style type="text/css">
	.st0{fill:#F0BC5E;}
</style>
<g>
	<path d="M64.8,4.7h-0.4l0,0c-3.5,0-6.2,2.8-6.2,6.2c0,1.7,0.6,3.1,1.8,4.2l0.4,0.6L46.7,43.1L46,42.9c-0.2,0-0.6,0-0.7,0
		c-0.7,0-1.5,0.2-2.2,0.4l-0.6,0.2l-11-12.3l0.4-0.6c0.6-0.9,0.7-1.8,0.7-2.9c0-1.7-0.6-3.3-1.8-4.4c-1.1-1.3-2.8-1.8-4.4-1.8l0,0
		c-3.5,0-6.2,2.8-6.2,6.2c0,1.5,0.6,2.9,1.5,4l0.4,0.6l-13,22.6H8.3c-0.4,0-0.7-0.2-1.1-0.2l0,0c-3.5,0-6.2,2.8-6.2,6.2
		s2.8,6.4,6.2,6.4c1.8,0,3.3-0.6,4.4-1.8c1.3-1.3,1.8-2.8,1.8-4.4c0-1.5-0.6-3.1-1.5-4.2l-0.4-0.6l13-22.8l0.6,0.2
		c1.1,0.2,2.4,0.2,3.5-0.4l0.6-0.2l11,12.3L40,46c-0.6,0.9-0.7,1.8-0.7,2.9c0,1.7,0.7,3.3,1.8,4.4s2.8,1.8,4.4,1.8l0,0
		c1.7,0,3.3-0.7,4.4-1.8c1.1-1.1,1.8-2.8,1.8-4.4c0-1.7-0.6-3.1-1.8-4.4l-0.4-0.4l13.6-27.4l0.7,0.2c0.2,0,0.6,0,0.7,0.2
		c1.7,0,3.3-0.6,4.4-1.7c1.3-1.1,1.8-2.8,2-4.4C70.8,7.6,68.2,4.7,64.8,4.7z M7.2,64.2c-1.8,0-3.3-1.5-3.3-3.3s1.5-3.3,3.3-3.3
		s3.3,1.5,3.3,3.3C10.6,62.7,9.1,64.2,7.2,64.2z M26.4,30.9c-1.8,0-3.3-1.5-3.3-3.3s1.5-3.3,3.3-3.3s3.3,1.5,3.3,3.3
		C29.7,29.5,28.2,30.9,26.4,30.9z M45.3,52.3c-1.8,0-3.3-1.5-3.3-3.3s1.5-3.3,3.3-3.3s3.3,1.5,3.3,3.3S47.1,52.3,45.3,52.3z
		 M64.4,14.2c-1.8,0-3.3-1.5-3.3-3.3s1.5-3.3,3.3-3.3c1.8,0,3.3,1.5,3.3,3.3C67.7,12.8,66.2,14.2,64.4,14.2z"/>
	<path class="st0" d="M67.7,10.9c0,1.8-1.5,3.3-3.3,3.3c-1.8,0-3.3-1.5-3.3-3.3s1.5-3.3,3.3-3.3C66.2,7.6,67.7,9.1,67.7,10.9z"/>
	<circle class="st0" cx="45.3" cy="49" r="3.3"/>
	<path class="st0" d="M29.7,27.6c0,1.8-1.5,3.3-3.3,3.3s-3.3-1.5-3.3-3.3s1.5-3.3,3.3-3.3C28.2,24.3,29.7,25.8,29.7,27.6z"/>
	<circle class="st0" cx="7.2" cy="60.9" r="3.3"/>
</g>
</svg>
