<svg xmlns="http://www.w3.org/2000/svg" width="29.839" height="26" viewBox="0 0 29.839 26">
  <g id="stats" transform="translate(0 -32.932)">
    <g id="Group_1838" data-name="Group 1838" transform="translate(0 32.932)">
      <path id="Path_579" data-name="Path 579" d="M26.954,32.932a2.883,2.883,0,0,0-1.875,5.075l-5.326,8.911a2.876,2.876,0,0,0-1.758-.054l-4.551-4.881a2.885,2.885,0,1,0-4.606.858L3.294,53.192a2.889,2.889,0,1,0,1.628.814l5.561-10.385a2.905,2.905,0,0,0,.349.022,2.867,2.867,0,0,0,1.356-.339l4.293,4.6a2.885,2.885,0,1,0,4.716.14l5.59-9.352c.056,0,.112.005.168.005a2.885,2.885,0,0,0,0-5.77Z" transform="translate(0 -32.932)" fill="#362D1E"/>
    </g>
  </g>
</svg>