<svg xmlns="http://www.w3.org/2000/svg" width="15.13" height="17.292" viewBox="0 0 15.13 17.292">
  <path id="stopwatch" d="M14.9,4.913l1.162-1.161A.72.72,0,1,0,15.04,2.733L13.878,3.894A7.529,7.529,0,0,0,9.785,2.2V1.441h1.441a.72.72,0,0,0,0-1.441H6.9a.72.72,0,0,0,0,1.441H8.345V2.2A7.569,7.569,0,1,0,14.9,4.913Zm-3.238,8.272a.72.72,0,0,1-1.009-.144L8.489,10.159a.718.718,0,0,1-.144-.432V5.764a.72.72,0,1,1,1.441,0V9.487l2.017,2.69a.721.721,0,0,1-.144,1.009Z" transform="translate(-1.5)" fill="#dbdad9"/>
</svg>
