<?xml version="1.0" encoding="iso-8859-1"?>
<!-- Generator: Adobe Illustrator 19.0.0, SVG Export Plug-In . SVG Version: 6.00 Build 0)  -->
<svg version="1.1" id="Layer_1" xmlns="http://www.w3.org/2000/svg" xmlns:xlink="http://www.w3.org/1999/xlink" x="0px" y="0px"
	 viewBox="0 0 496 496" style="enable-background:new 0 0 496 496;" xml:space="preserve">
<circle style="fill:#F9BA48;" cx="243.976" cy="288" r="152"/>
<g>
	<path style="fill:#333333;" d="M140.008,256c-13.232,0-24,10.768-24,24v24c0,13.232,10.768,24,24,24s24-10.768,24-24v-24
		C164.008,266.768,153.24,256,140.008,256z M148.008,304c0,4.416-3.592,8-8,8s-8-3.584-8-8v-24c0-4.416,3.592-8,8-8s8,3.584,8,8V304
		z"/>
	<path style="fill:#333333;" d="M196.008,256c-13.232,0-24,10.768-24,24v24c0,13.232,10.768,24,24,24s24-10.768,24-24v-24
		C220.008,266.768,209.24,256,196.008,256z M204.008,304c0,4.416-3.592,8-8,8s-8-3.584-8-8v-24c0-4.416,3.592-8,8-8s8,3.584,8,8V304
		z"/>
	<polygon style="fill:#333333;" points="276.008,272 284.008,272 284.008,328 300.008,328 300.008,256 276.008,256 	"/>
	<path style="fill:#333333;" d="M340.008,280h-8v-8h24v-16h-40v40h24c4.408,0,8,3.584,8,8s-3.592,8-8,8h-8c-4.408,0-8-3.584-8-8h-16
		c0,13.232,10.768,24,24,24h8c13.232,0,24-10.768,24-24S353.24,280,340.008,280z"/>
	<rect x="235.976" y="264" style="fill:#333333;" width="16" height="16"/>
	<rect x="235.976" y="304" style="fill:#333333;" width="16" height="16"/>
	<path style="fill:#333333;" d="M412.424,154.88c4.992,3.296,10.92,5.12,16.936,5.12c16.896,0,30.632-13.744,30.632-30.632
		c0-8.064-3.272-15.952-8.976-21.656l-42.744-42.744C402.488,59.184,394.8,56,386.616,56c-16.888,0-30.624,13.736-30.624,30.624
		c0,6.12,1.784,11.968,5.104,16.952l-7.64,7.64c-21.504-13.368-44.816-22.544-69.464-27.344V72h2.416
		c20.048,0,36.536-14.968,37.536-34.08c0.528-9.992-2.968-19.472-9.832-26.704C307.344,4.088,297.832,0,288,0h-86.416
		c-20.04,0-36.528,14.968-37.528,34.072c-0.52,9.984,2.968,19.472,9.832,26.704C180.656,67.912,190.176,72,200.008,72h4v11.88
		C101.696,103.72,30.048,195.816,36.4,300.912c6.504,107.52,96.088,193.2,203.952,195.056c1.232,0.024,2.464,0.032,3.696,0.032
		c54.896,0,106.536-21.104,145.744-59.656c40.112-39.432,62.2-92.112,62.2-148.352c0-46.456-15.72-91.72-44.416-128.264
		L412.424,154.88z M436.008,288c0,51.912-20.392,100.544-57.416,136.936c-37.016,36.384-85.968,55.984-137.968,55.032
		c-99.56-1.704-182.256-80.784-188.256-180.024C46.376,200.808,115.552,114.2,213.28,98.472l6.728-1.08V72h32V56h-32h-8h-12
		c-5.544,0-10.696-2.216-14.512-6.24c-3.816-4.016-5.76-9.288-5.464-14.848C180.576,24.488,190.248,16,201.584,16v0.008h86.432
		c5.536,0,10.688,2.216,14.504,6.232s5.752,9.288,5.464,14.848C307.432,47.512,297.76,56,286.424,56h-18.416v41.4l6.728,1.08
		c27.008,4.344,52.376,14.304,75.4,29.616l5.456,3.632l16.416-16.408l10.336,10.336l11.312-11.312l-16-16l0,0l-1.368-1.368
		c-2.76-2.76-4.28-6.432-4.28-10.344c0-8.064,6.56-14.624,14.624-14.624c3.912,0,7.584,1.52,10.344,4.28l42.744,42.744
		c2.728,2.72,4.288,6.496,4.288,10.344c0,8.072-6.568,14.632-14.632,14.632c-3.848,0-7.624-1.568-10.344-4.288l-7.024-7.024
		l-26.04,26.032l4.744,5.616C419.92,198.944,436.008,242.856,436.008,288z"/>
	<rect x="235.976" y="168" style="fill:#333333;" width="16" height="16"/>
	<rect x="267.976" y="168" style="fill:#333333;" width="16" height="16"/>
	<rect x="203.976" y="168" style="fill:#333333;" width="16" height="16"/>
	<rect x="235.976" y="392" style="fill:#333333;" width="16" height="16"/>
	<rect x="267.976" y="392" style="fill:#333333;" width="16" height="16"/>
	<rect x="203.976" y="392" style="fill:#333333;" width="16" height="16"/>
</g>
<g>
</g>
<g>
</g>
<g>
</g>
<g>
</g>
<g>
</g>
<g>
</g>
<g>
</g>
<g>
</g>
<g>
</g>
<g>
</g>
<g>
</g>
<g>
</g>
<g>
</g>
<g>
</g>
<g>
</g>
</svg>
