<svg xmlns="http://www.w3.org/2000/svg" width="12.188" height="20.31" viewBox="0 0 12.188 20.31">
  <g id="Group_417" data-name="Group 417" transform="translate(0)">
    <g id="compass" transform="translate(0)">
      <g id="Group_12" data-name="Group 12" transform="translate(5.078 3.385)">
        <g id="Group_11" data-name="Group 11" transform="translate(0)">
          <path id="Path_13" data-name="Path 13" d="M216.988,80a1.015,1.015,0,0,0-.129,2.022,1.1,1.1,0,0,0,.129.009,1.131,1.131,0,0,0,.13-.009,1.015,1.015,0,0,0-.13-2.022Zm.274,1.214a.338.338,0,0,1-.227.135.421.421,0,0,1-.092,0,.339.339,0,0,1-.229-.137.327.327,0,0,1-.064-.2.339.339,0,0,1,.677,0A.329.329,0,0,1,217.262,81.214Z" transform="translate(-215.972 -80)" fill="#fff"/>
        </g>
      </g>
      <g id="Group_14" data-name="Group 14">
        <g id="Group_13" data-name="Group 13">
          <path id="Path_14" data-name="Path 14" d="M107.821,11.172h-1.58l-1.805-6.74V4.4a2.366,2.366,0,0,0-1.016-1.938V1.016A1.016,1.016,0,0,0,102.4,0h-.677a1.016,1.016,0,0,0-1.016,1.016V2.463A2.366,2.366,0,0,0,99.7,4.4v.031l-1.805,6.74h-1.58a.339.339,0,0,0,0,.677h1.4l-1.136,4.239a2.37,2.37,0,0,0,1.354,2.789l-.271,1.007a.339.339,0,0,0,.239.415h0a.342.342,0,0,0,.088.012.339.339,0,0,0,.327-.251l2.2-8.21h1.215v1.016a.339.339,0,0,0,.677,0V11.849h1.215l2.2,8.21a.339.339,0,0,0,.327.251.343.343,0,0,0,.088-.012.339.339,0,0,0,.239-.415h0l-.271-1.007a2.37,2.37,0,0,0,1.354-2.789l-1.135-4.239h1.4a.339.339,0,0,0,0-.677ZM101.727.677h.677a.339.339,0,0,1,.339.339V2.133c-.066-.02-.135-.031-.2-.045-.032-.006-.063-.016-.1-.021a2.191,2.191,0,0,0-.762,0c-.034.006-.068.016-.1.023-.065.014-.131.024-.194.044V1.016A.339.339,0,0,1,101.727.677Zm-.511,2.262a1.715,1.715,0,0,1,.288-.133,1.633,1.633,0,0,1,.44-.087c.04,0,.079-.01.119-.01a1.725,1.725,0,0,1,.851.231,1.7,1.7,0,0,1,.843,1.476.3.3,0,0,0,0,.043,1.689,1.689,0,0,1-1.323,1.6,1.717,1.717,0,0,1-.733,0,1.689,1.689,0,0,1-1.323-1.6.526.526,0,0,0,0-.057A1.687,1.687,0,0,1,101.216,2.939ZM98.1,18.216a1.7,1.7,0,0,1-.878-1.953l1.183-4.414h1.4Zm1.888-7.044h-1.4l1.474-5.5c.031.048.068.091.1.137s.064.091.1.134.1.1.152.155.074.077.116.112c.058.049.121.091.182.134.042.029.082.062.126.088.068.04.139.073.211.107.045.021.088.046.135.065l.022.011Zm2.412,0V10.156a.339.339,0,0,0-.677,0v1.016h-1.034l1.182-4.411c.063.005.126.01.19.01s.127-.005.19-.01l1.182,4.411Zm.513-4.558.021-.01c.055-.022.105-.05.158-.076s.128-.059.188-.1.1-.068.144-.1.113-.077.166-.122.084-.081.126-.122.1-.093.142-.145.07-.093.105-.14.07-.086.1-.132l1.474,5.5h-1.4Zm3.987,9.65a1.7,1.7,0,0,1-.878,1.953l-1.706-6.367h1.4Z" transform="translate(-95.972)" fill="#fff"/>
        </g>
      </g>
    </g>
    <path id="Path_293" data-name="Path 293" d="M-7624.56,7183.061s.706,1.286,1.539,1.515-3.28,12.283-3.28,12.283-1.917-.529-1.386-2.242S-7624.56,7183.061-7624.56,7183.061Z" transform="translate(7628.606 -7178.182)" fill="#fff"/>
    <path id="Path_294" data-name="Path 294" d="M-7617.657,7182.994l-1.8,1.573,3.625,12.232s1.457-1.009,1.2-2.387S-7617.657,7182.994-7617.657,7182.994Z" transform="translate(7625.917 -7178.162)" fill="#fff"/>
    <path id="Path_295" data-name="Path 295" d="M-7621.578,7178.44s-.381-2.284.741-2.222,1.238.169,1.3.71.075,1.841.075,1.841Z" transform="translate(7626.623 -7175.972)" fill="#fff"/>
  </g>
</svg>
