<svg id="Team" xmlns="http://www.w3.org/2000/svg" width="26" height="22.057" viewBox="0 0 26 22.057">
  <g id="Group_405" data-name="Group 405" transform="translate(20.236 11.907)">
    <g id="Group_404" data-name="Group 404">
      <path id="Path_286" data-name="Path 286" d="M400.5,273.32h-2.011a5.23,5.23,0,0,1,.317,1.8v7.6a2.24,2.24,0,0,1-.129.751h3.324a2.255,2.255,0,0,0,2.252-2.252v-4.143A3.757,3.757,0,0,0,400.5,273.32Z" transform="translate(-398.494 -273.32)" fill="#362D1E"/>
    </g>
  </g>
  <g id="Group_407" data-name="Group 407" transform="translate(0 11.907)">
    <g id="Group_406" data-name="Group 406">
      <path id="Path_287" data-name="Path 287" d="M5.447,275.119a5.23,5.23,0,0,1,.317-1.8H3.753A3.757,3.757,0,0,0,0,277.074v4.143a2.255,2.255,0,0,0,2.252,2.252H5.576a2.242,2.242,0,0,1-.129-.751Z" transform="translate(0 -273.321)" fill="#362D1E"/>
    </g>
  </g>
  <g id="Group_409" data-name="Group 409" transform="translate(6.948 9.952)">
    <g id="Group_408" data-name="Group 408">
      <path id="Path_288" data-name="Path 288" d="M145.179,234.815h-4.6a3.758,3.758,0,0,0-3.753,3.753v7.6a.751.751,0,0,0,.751.751h10.6a.751.751,0,0,0,.751-.751v-7.6A3.758,3.758,0,0,0,145.179,234.815Z" transform="translate(-136.829 -234.815)" fill="#362D1E"/>
    </g>
  </g>
  <g id="Group_411" data-name="Group 411" transform="translate(8.486)">
    <g id="Group_410" data-name="Group 410">
      <path id="Path_289" data-name="Path 289" d="M171.628,38.84a4.513,4.513,0,1,0,4.514,4.514A4.519,4.519,0,0,0,171.628,38.84Z" transform="translate(-167.114 -38.84)" fill="#362D1E"/>
    </g>
  </g>
  <g id="Group_413" data-name="Group 413" transform="translate(1.698 4.207)">
    <g id="Group_412" data-name="Group 412">
      <path id="Path_290" data-name="Path 290" d="M36.819,121.689a3.374,3.374,0,1,0,3.376,3.376A3.379,3.379,0,0,0,36.819,121.689Z" transform="translate(-33.443 -121.689)" fill="#362D1E"/>
    </g>
  </g>
  <g id="Group_415" data-name="Group 415" transform="translate(17.55 4.207)">
    <g id="Group_414" data-name="Group 414">
      <path id="Path_291" data-name="Path 291" d="M348.983,121.689a3.376,3.376,0,1,0,3.376,3.376A3.379,3.379,0,0,0,348.983,121.689Z" transform="translate(-345.607 -121.689)" fill="#362D1E"/>
    </g>
  </g>
</svg>
