<svg id="group" xmlns="http://www.w3.org/2000/svg" width="35" height="22.223" viewBox="0 0 35 22.223">
  <g id="Group_30" data-name="Group 30" transform="translate(0 0)">
    <path id="Path_29" data-name="Path 29" d="M30.27,102.028a4,4,0,1,0-4.584,0,6.923,6.923,0,0,0-2.361,1.385,8.959,8.959,0,0,0-3.241-1.766,5.062,5.062,0,1,0-5.235,0,9.034,9.034,0,0,0-3.206,1.745,6.979,6.979,0,0,0-2.334-1.357,4,4,0,1,0-4.584,0A7.014,7.014,0,0,0,0,108.663v.457a.03.03,0,0,0,.028.028H8.5a9.315,9.315,0,0,0-.076,1.17v.471a3.683,3.683,0,0,0,3.684,3.684H22.839a3.683,3.683,0,0,0,3.684-3.684v-.471a9.314,9.314,0,0,0-.076-1.17h8.525A.03.03,0,0,0,35,109.12v-.457A7.041,7.041,0,0,0,30.27,102.028Zm-5.18-3.276a2.888,2.888,0,1,1,2.943,2.888h-.111A2.884,2.884,0,0,1,25.09,98.753ZM13.5,97.312a3.954,3.954,0,1,1,4.183,3.947h-.457A3.96,3.96,0,0,1,13.5,97.312Zm-9.391,1.44a2.888,2.888,0,1,1,2.943,2.888H6.939A2.888,2.888,0,0,1,4.107,98.753Zm4.584,9.28H1.122a5.917,5.917,0,0,1,5.831-5.284h.083a5.855,5.855,0,0,1,3.774,1.406A9.093,9.093,0,0,0,8.691,108.033ZM25.4,110.789a2.58,2.58,0,0,1-2.576,2.576H12.091a2.58,2.58,0,0,1-2.576-2.576v-.471a7.955,7.955,0,0,1,7.708-7.943c.076.007.159.007.235.007s.159,0,.235-.007a7.955,7.955,0,0,1,7.708,7.943Zm.824-2.756a9.069,9.069,0,0,0-2.1-3.85,5.884,5.884,0,0,1,3.809-1.434h.083a5.917,5.917,0,0,1,5.831,5.284Z" transform="translate(0 -92.25)" fill="rgba(51,51,51,0.6)"/>
  </g>
</svg>
