<svg xmlns="http://www.w3.org/2000/svg" width="35" height="35" viewBox="0 0 35 35">
  <g id="Group_86" data-name="Group 86" transform="translate(-1416 -556)">
    <g id="transfer" transform="translate(1416 556)">
      <path id="Path_62" data-name="Path 62" d="M12.229,15.8a.729.729,0,0,1-.729-.729v-1.1a.729.729,0,0,1,1.458,0v1.1A.729.729,0,0,1,12.229,15.8Z" transform="translate(5.271 6.072)" fill="#f9ba48"/>
      <path id="Path_63" data-name="Path 63" d="M13.281,16.75H10.729a.729.729,0,0,1,0-1.458h2.552a1.094,1.094,0,0,0,0-2.187h-.729a2.552,2.552,0,1,1,0-5.1H15.1a.729.729,0,1,1,0,1.458H12.552a1.094,1.094,0,1,0,0,2.187h.729a2.552,2.552,0,0,1,0,5.1Z" transform="translate(4.583 3.667)" fill="#f9ba48"/>
      <path id="Path_64" data-name="Path 64" d="M12.229,9.554a.729.729,0,0,1-.729-.729v-1.1a.729.729,0,1,1,1.458,0v1.1A.729.729,0,0,1,12.229,9.554Z" transform="translate(5.271 3.208)" fill="#f9ba48"/>
      <path id="Path_65" data-name="Path 65" d="M14.75,22.5a8.75,8.75,0,1,1,8.75-8.75A8.759,8.759,0,0,1,14.75,22.5Zm0-16.042a7.292,7.292,0,1,0,7.292,7.292A7.3,7.3,0,0,0,14.75,6.458Z" transform="translate(2.75 2.292)" fill="#f9ba48"/>
      <path id="Path_66" data-name="Path 66" d="M12.229,27.271a.729.729,0,0,1,0-1.458A14.6,14.6,0,0,0,26.813,11.229a.729.729,0,1,1,1.458,0A16.061,16.061,0,0,1,12.229,27.271Z" transform="translate(5.271 4.813)" fill="#11110f"/>
      <path id="Path_67" data-name="Path 67" d="M29.651,11.74a.732.732,0,0,1-.69-.49A14.568,14.568,0,0,0,15.2,1.458,14.214,14.214,0,0,0,6.206,4.607a.729.729,0,1,1-.913-1.136A15.65,15.65,0,0,1,15.2,0,16.031,16.031,0,0,1,30.341,10.771a.731.731,0,0,1-.451.929A.761.761,0,0,1,29.651,11.74Z" transform="translate(2.301 0)" fill="#11110f"/>
      <path id="Path_68" data-name="Path 68" d="M11.938,29.076a.74.74,0,0,1-.242-.041A16.024,16.024,0,0,1,1,13.924,15.771,15.771,0,0,1,3.782,4.936a.728.728,0,1,1,1.2.825,14.337,14.337,0,0,0-2.524,8.162A14.561,14.561,0,0,0,12.18,27.659a.729.729,0,0,1-.242,1.417Z" transform="translate(0.458 2.118)" fill="#11110f"/>
      <path id="Path_69" data-name="Path 69" d="M14.646,26.291a.732.732,0,0,1-.516-.213l-2.917-2.917a.73.73,0,0,1,0-1.031l2.917-2.917a.729.729,0,0,1,1.031,1.031l-2.4,2.4,2.4,2.4a.73.73,0,0,1,0,1.031A.722.722,0,0,1,14.646,26.291Z" transform="translate(5.042 8.709)" fill="#11110f"/>
      <path id="Path_70" data-name="Path 70" d="M6.087,9.786a.73.73,0,0,1-.7-.54L4.439,5.724.917,6.668A.729.729,0,1,1,.541,5.259L4.767,4.127a.734.734,0,0,1,.892.515L6.791,8.867a.729.729,0,0,1-.515.894.778.778,0,0,1-.19.025Z" transform="translate(0 1.881)" fill="#11110f"/>
      <path id="Path_71" data-name="Path 71" d="M23.42,10.247a.721.721,0,0,1-.365-.1L19.267,7.962A.729.729,0,1,1,20,6.7l3.157,1.823,1.823-3.157a.729.729,0,0,1,1.263.729L24.051,9.883A.731.731,0,0,1,23.42,10.247Z" transform="translate(8.663 2.291)" fill="#11110f"/>
    </g>
  </g>
</svg>
