<svg xmlns="http://www.w3.org/2000/svg" width="35" height="35" viewBox="0 0 35 35">
  <g id="Group_186" data-name="Group 186" transform="translate(-1416 -556)">
    <g id="transfer" transform="translate(1416 556)">
      <path id="Union_8" data-name="Union 8" d="M-1227.812-932.062v-.729h-1.458a.73.73,0,0,1-.73-.729.729.729,0,0,1,.73-.729h2.552a1.1,1.1,0,0,0,1.093-1.094,1.1,1.1,0,0,0-1.093-1.094h-.729A2.555,2.555,0,0,1-1230-938.99a2.556,2.556,0,0,1,2.188-2.526v-.756a.729.729,0,0,1,.729-.729.729.729,0,0,1,.729.729v.73h1.459a.729.729,0,0,1,.729.729.729.729,0,0,1-.729.729h-2.552a1.1,1.1,0,0,0-1.094,1.094,1.1,1.1,0,0,0,1.094,1.094h.729a2.555,2.555,0,0,1,2.552,2.552,2.556,2.556,0,0,1-2.188,2.526v.755a.729.729,0,0,1-.729.729A.729.729,0,0,1-1227.812-932.062Z" transform="translate(1244.583 953.208)" fill="rgba(51,51,51,0.6)"/>
      <path id="Path_65" data-name="Path 65" d="M14.75,22.5a8.75,8.75,0,1,1,8.75-8.75A8.759,8.759,0,0,1,14.75,22.5Zm0-16.042a7.292,7.292,0,1,0,7.292,7.292A7.3,7.3,0,0,0,14.75,6.458Z" transform="translate(2.75 2.292)" fill="rgba(51,51,51,0.6)"/>
      <path id="Union_6" data-name="Union 6" d="M-1226.87-923.525l-2.917-2.917a.73.73,0,0,1,0-1.031l2.917-2.916a.73.73,0,0,1,1.031,0,.729.729,0,0,1,0,1.03l-1.632,1.632a14.6,14.6,0,0,0,13.513-14.545.729.729,0,0,1,.729-.729.729.729,0,0,1,.729.729,16.062,16.062,0,0,1-15.041,16.011l1.7,1.7a.73.73,0,0,1,0,1.031.721.721,0,0,1-.515.214A.733.733,0,0,1-1226.87-923.525Z" transform="translate(1246.041 958.313)" fill="rgba(51,51,51,0.6)"/>
      <path id="Union_5" data-name="Union 5" d="M-1205.6-930.559l-3.788-2.188a.729.729,0,0,1-.267-1,.728.728,0,0,1,1-.266l2.226,1.285a14.57,14.57,0,0,0-13.385-8.817,14.214,14.214,0,0,0-8.994,3.148.731.731,0,0,1-1.025-.111.729.729,0,0,1,.112-1.025A15.653,15.653,0,0,1-1219.82-943,16.033,16.033,0,0,1-1205-933.067l1.314-2.276a.728.728,0,0,1,1-.266.729.729,0,0,1,.267,1l-2.188,3.789a.732.732,0,0,1-.632.365A.726.726,0,0,1-1205.6-930.559Z" transform="translate(1237.321 943)" fill="rgba(51,51,51,0.6)"/>
      <path id="Union_7" data-name="Union 7" d="M-1217.846-917.833a16.023,16.023,0,0,1-10.7-15.111,15.783,15.783,0,0,1,2.307-8.256l-2.848.763a.734.734,0,0,1-.893-.516.73.73,0,0,1,.516-.893l4.226-1.131a.734.734,0,0,1,.893.515l1.131,4.225a.729.729,0,0,1-.515.894.766.766,0,0,1-.189.025.731.731,0,0,1-.7-.54l-.592-2.21a14.357,14.357,0,0,0-1.874,7.125,14.559,14.559,0,0,0,9.722,13.734.73.73,0,0,1,.445.93.728.728,0,0,1-.688.488A.731.731,0,0,1-1217.846-917.833Z" transform="translate(1230 948.986)" fill="rgba(51,51,51,0.6)"/>
    </g>
  </g>
</svg>
