<svg id="Layer_1" enable-background="new 0 0 511.684 511.684" height="512" viewBox="0 0 511.684 511.684" width="512" xmlns="http://www.w3.org/2000/svg"><g><path d="m377.455 308.893 82.548-82.789c48.183-48.324 48.183-126.524 0-174.848-48.101-48.242-126.238-48.242-174.339 0l-82.583 82.824c-3.256 3.265-3.256 8.549 0 11.814l33.307 33.404c3.269 3.279 8.579 3.279 11.848 0l78.483-78.712c23.203-23.271 60.895-23.271 84.098 0 23.243 23.311 23.243 61.033 0 84.343l-78.517 78.746c-3.256 3.265-3.256 8.549 0 11.814l33.307 33.404c3.269 3.278 8.579 3.278 11.848 0z" fill="#1766a0"/><path d="m130.841 206.531-79.489 79.721c-48.183 48.324-48.183 126.524 0 174.848 48.101 48.242 126.238 48.242 174.339 0l79.523-79.755c3.256-3.265 3.256-8.549 0-11.814l-33.307-33.404c-3.269-3.279-8.579-3.279-11.848 0l-75.424 75.644c-23.203 23.271-60.895 23.271-84.098 0-23.243-23.311-23.243-61.033 0-84.343l75.458-75.678c3.256-3.265 3.256-8.549 0-11.814l-33.307-33.404c-3.268-3.28-8.578-3.28-11.847-.001z" fill="#00337a"/><g><g><path d="m86.089 187.512c-1.228 0-2.475-.149-3.72-.461l-70.623-17.708c-8.17-2.049-13.132-10.332-11.084-18.501 2.049-8.17 10.331-13.132 18.501-11.084l70.623 17.708c8.17 2.049 13.132 10.332 11.084 18.501-1.737 6.925-7.953 11.545-14.781 11.545z" fill="#ff405c"/></g><g><path d="m129.039 144.421c-3.91 0-7.82-1.494-10.799-4.482l-54.733-54.893c-5.947-5.965-5.933-15.621.031-21.567 5.965-5.947 15.621-5.933 21.567.031l54.733 54.893c5.947 5.965 5.933 15.621-.031 21.567-2.976 2.968-6.872 4.451-10.768 4.451z" fill="#ff405c"/></g><g><path d="m171.991 101.337c-6.838 0-13.058-4.631-14.786-11.565l-17.656-70.829c-2.037-8.172 2.936-16.449 11.109-18.486 8.175-2.037 16.449 2.937 18.486 11.109l17.656 70.828c2.037 8.172-2.936 16.449-11.109 18.486-1.239.309-2.48.457-3.7.457z" fill="#ff405c"/></g></g><g><g><path d="m496.215 372.142c-1.23 0-2.48-.149-3.727-.462l-70.747-17.739c-8.184-2.052-13.155-10.35-11.103-18.534s10.349-13.158 18.534-11.103l70.747 17.739c8.184 2.052 13.155 10.35 11.103 18.534-1.74 6.937-7.966 11.565-14.807 11.565z" fill="#c1126b"/></g><g><path d="m437.247 452.553c-3.917 0-7.834-1.497-10.818-4.49l-54.829-54.989c-5.957-5.975-5.943-15.648.031-21.605 5.975-5.957 15.648-5.944 21.605.031l54.829 54.989c5.957 5.975 5.943 15.648-.031 21.605-2.982 2.973-6.884 4.459-10.787 4.459z" fill="#c1126b"/></g><g><path d="m357.056 511.684c-6.85 0-13.08-4.639-14.812-11.586l-17.687-70.954c-2.04-8.187 2.942-16.478 11.129-18.518 8.188-2.04 16.477 2.942 18.518 11.129l17.687 70.954c2.04 8.187-2.942 16.477-11.129 18.518-1.24.31-2.483.457-3.706.457z" fill="#c1126b"/></g></g><path d="m460.004 51.256c-.01-.01-.021-.02-.031-.03l-49.26 49.26c.034.034.07.065.104.099 23.267 23.267 23.294 60.981.061 84.282l-78.578 78.808c-3.256 3.265-3.256 8.549 0 11.814l33.307 33.404c3.269 3.279 8.579 3.279 11.848 0l82.676-82.917c48.163-48.303 48.106-126.487-.127-174.72z" fill="#145481"/><path d="m271.905 336.129c-3.269-3.279-8.579-3.279-11.848 0l-75.424 75.644c-23.223 23.291-60.875 23.291-84.098 0-.186-.186-.357-.381-.539-.569l-49.264 49.264c.207.211.408.425.617.635 48.192 48.192 126.344 48.135 174.466-.127l79.397-79.628c3.256-3.265 3.256-8.549 0-11.814z" fill="#002659"/></g></svg>