<svg xmlns="http://www.w3.org/2000/svg" width="43.395" height="40.111" viewBox="0 0 43.395 40.111">
  <g id="upload" transform="translate(0)">
    <g id="Group_125" data-name="Group 125" transform="translate(0 0)">
      <path id="Path_203" data-name="Path 203" d="M35.292,28.876A12.57,12.57,0,0,0,12,24.7a7.2,7.2,0,0,0-1.321-.125,6.889,6.889,0,0,0-6.88,6.88,7.521,7.521,0,0,0,.143,1.428A9.574,9.574,0,0,0,0,40.6a10.235,10.235,0,0,0,2.6,6.773A9.268,9.268,0,0,0,9.022,50.6h7.746a1.2,1.2,0,1,0,0-2.409H9.129c-3.65-.223-6.719-3.694-6.719-7.6a7.152,7.152,0,0,1,3.543-6.157,1.215,1.215,0,0,0,.526-1.463,4.371,4.371,0,0,1-.268-1.535,4.479,4.479,0,0,1,4.471-4.471,4.394,4.394,0,0,1,1.526.268,1.21,1.21,0,0,0,1.508-.616,10.16,10.16,0,0,1,19.3,3.346,1.2,1.2,0,0,0,1,1.071A8.684,8.684,0,0,1,33.2,48.187H26.619a1.2,1.2,0,0,0,0,2.409h6.71a10.676,10.676,0,0,0,7.157-3.534,11.106,11.106,0,0,0-5.193-18.186Z" transform="translate(0 -18.4)" fill="#787878"/>
      <path id="Path_204" data-name="Path 204" d="M173.036,193.842a1.2,1.2,0,0,0,0-1.7l-6.38-6.38a1.219,1.219,0,0,0-.848-.357,1.182,1.182,0,0,0-.848.357l-6.38,6.38a1.209,1.209,0,0,0,.848,2.061,1.175,1.175,0,0,0,.848-.357l4.328-4.328V209.4a1.2,1.2,0,0,0,2.409,0v-19.89l4.328,4.328A1.19,1.19,0,0,0,173.036,193.842Z" transform="translate(-144.106 -170.498)" fill="#f9ba48"/>
    </g>
  </g>
</svg>