<svg xmlns="http://www.w3.org/2000/svg" width="19.091" height="15" viewBox="0 0 19.091 15">
  <path id="_1608943_tasks_icon" data-name="1608943_tasks_icon" d="M10.909,141.636h6.818v-1.364H10.909Zm-4.091-5.455H17.727v-1.364H6.818Zm6.818-5.455h4.091v-1.364H13.636Zm5.455,8.864v2.727a.691.691,0,0,1-.682.682H.682a.655.655,0,0,1-.479-.2.655.655,0,0,1-.2-.479v-2.727a.655.655,0,0,1,.2-.479.655.655,0,0,1,.479-.2H18.409a.691.691,0,0,1,.682.682Zm0-5.455v2.727a.691.691,0,0,1-.682.682H.682a.655.655,0,0,1-.479-.2.655.655,0,0,1-.2-.479v-2.727a.655.655,0,0,1,.2-.479.655.655,0,0,1,.479-.2H18.409a.691.691,0,0,1,.682.682Zm0-5.455v2.727a.691.691,0,0,1-.682.682H.682a.655.655,0,0,1-.479-.2.655.655,0,0,1-.2-.479v-2.727a.655.655,0,0,1,.2-.479.655.655,0,0,1,.479-.2H18.409a.691.691,0,0,1,.682.682Z" transform="translate(0 -128)" fill="#444"/>
</svg>
