<svg xmlns="http://www.w3.org/2000/svg" xmlns:xlink="http://www.w3.org/1999/xlink" width="106" height="84" viewBox="0 0 106 84">
  <defs>
    <clipPath id="clip-path">
      <rect id="Rectangle_806" data-name="Rectangle 806" width="106" height="84" rx="7" transform="translate(258 523)" fill="#fff"/>
    </clipPath>
  </defs>
  <g id="Mask_Group_9" data-name="Mask Group 9" transform="translate(-258 -523)" clip-path="url(#clip-path)">
    <g id="Group_1898" data-name="Group 1898" transform="matrix(0.966, -0.259, 0.259, 0.966, 855.834, -264.561)">
      <g id="Group_1894" data-name="Group 1894" transform="translate(-782.201 627.616)">
        <path id="Path_575" data-name="Path 575" d="M-752.975,689.112a5.758,5.758,0,0,0-5.758,5.758h0a5.758,5.758,0,0,0,5.758,5.758h71.846a5.758,5.758,0,0,0,5.758-5.758h0a5.758,5.758,0,0,0-5.758-5.758Z" transform="translate(758.733 -660.67)" fill="#3d3626"/>
        <path id="Path_576" data-name="Path 576" d="M-743.09,707.9h76.127v-5.259h-70.869A5.258,5.258,0,0,0-743.09,707.9Z" transform="translate(750.325 -667.942)" fill="#fffad1"/>
        <g id="Group_1887" data-name="Group 1887" transform="translate(11.26 0)">
          <g id="Group_1886" data-name="Group 1886" transform="translate(0 0)">
            <rect id="Rectangle_794" data-name="Rectangle 794" width="70.163" height="38.745" transform="translate(0 22.067) rotate(-18.331)" fill="#00a083"/>
            <path id="Path_577" data-name="Path 577" d="M-654.494,663.872l-5.8-17.509a6.34,6.34,0,0,1-8.012-4.024L-715.64,658.02a6.34,6.34,0,0,1-4.024,8.012l5.8,17.509a6.341,6.341,0,0,1,8.012,4.024l47.333-15.682A6.34,6.34,0,0,1-654.494,663.872Z" transform="translate(726.473 -635.529)" fill="#007863"/>
            <circle id="Ellipse_110" data-name="Ellipse 110" cx="10.79" cy="10.79" r="10.79" transform="translate(27.833 19.464) rotate(-4.257)" fill="#00a083"/>
          </g>
          <path id="Path_578" data-name="Path 578" d="M-656.525,686.132a8.01,8.01,0,0,0,1.436.031,4.6,4.6,0,0,0,1.054-.191,1.153,1.153,0,0,0,.575-.393.609.609,0,0,0,.1-.591.782.782,0,0,0-.071-.154.668.668,0,0,0-.1-.135,1.527,1.527,0,0,0-.174-.144,1.444,1.444,0,0,0-.191-.122q-.076-.038-.6-.291-1.508-.726-2.038-1.058a2.845,2.845,0,0,1-.717-.645,2.624,2.624,0,0,1-.445-.806,2.344,2.344,0,0,1-.118-.677,2.5,2.5,0,0,1,.082-.7,2.623,2.623,0,0,1,.276-.661,2.565,2.565,0,0,1,.447-.563,5.812,5.812,0,0,1,.824-.609c-.041-.155-.066-.247-.075-.276l-.161-.462-.27-.814q.783-.243,1.3-.414.571-.189,1.28-.44.227.8.272.94l.2.614a11.223,11.223,0,0,1,1.489-.168q.432,1.137.928,2.346a6.064,6.064,0,0,0-1.192-.025,3.912,3.912,0,0,0-.848.154,1.082,1.082,0,0,0-.548.368.534.534,0,0,0-.1.511.775.775,0,0,0,.281.383,3.124,3.124,0,0,0,.543.311,18.95,18.95,0,0,1,1.829.939,3.731,3.731,0,0,1,.945.784,2.725,2.725,0,0,1,.485.865,2.654,2.654,0,0,1,.139.742,2.316,2.316,0,0,1-.08.7,2.856,2.856,0,0,1-.263.642,3.467,3.467,0,0,1-.375.544,5.989,5.989,0,0,1-.636.615l.286.912q.148.45.3.869-.783.243-1.24.395t-1.344.462q-.13-.512-.383-1.276l-.1-.293q-.6.113-1.022.156a10.413,10.413,0,0,1-1.043.044Q-656.238,686.781-656.525,686.132Z" transform="translate(693.234 -653.633)" fill="#fffad1"/>
        </g>
        <g id="Group_1889" data-name="Group 1889" transform="translate(25.147 31.746)">
          <g id="Group_1888" data-name="Group 1888">
            <rect id="Rectangle_795" data-name="Rectangle 795" width="70.163" height="38.745" fill="#00a083"/>
            <path id="Path_579" data-name="Path 579" d="M-633.579,729.278V710.833a6.34,6.34,0,0,1-6.34-6.34h-49.863a6.34,6.34,0,0,1-6.34,6.34v18.445a6.34,6.34,0,0,1,6.34,6.34h49.863A6.34,6.34,0,0,1-633.579,729.278Z" transform="translate(699.932 -700.683)" fill="#007863"/>
            <circle id="Ellipse_111" data-name="Ellipse 111" cx="10.79" cy="10.79" r="10.79" transform="matrix(0.161, -0.987, 0.987, 0.161, 22.698, 28.287)" fill="#00a083"/>
          </g>
          <path id="Path_580" data-name="Path 580" d="M-636.109,732.352a7.94,7.94,0,0,0,1.354.481,4.569,4.569,0,0,0,1.06.15,1.151,1.151,0,0,0,.669-.191.609.609,0,0,0,.278-.53.79.79,0,0,0-.019-.168.688.688,0,0,0-.056-.162,1.541,1.541,0,0,0-.12-.191,1.414,1.414,0,0,0-.143-.177c-.04-.04-.2-.2-.481-.466q-1.2-1.164-1.6-1.646a2.859,2.859,0,0,1-.477-.838,2.619,2.619,0,0,1-.169-.905,2.319,2.319,0,0,1,.1-.68,2.473,2.473,0,0,1,.3-.635,2.608,2.608,0,0,1,.47-.541,2.567,2.567,0,0,1,.6-.394,5.775,5.775,0,0,1,.974-.32q.015-.24.015-.285l-.008-.489v-.858q.819.015,1.361.015.6,0,1.353-.015-.038.835-.037.978v.647a11.2,11.2,0,0,1,1.467.308q.053,1.215.143,2.519a6.044,6.044,0,0,0-1.124-.4,3.883,3.883,0,0,0-.854-.12,1.081,1.081,0,0,0-.635.177.535.535,0,0,0-.252.455.771.771,0,0,0,.147.451,3.092,3.092,0,0,0,.417.466,19.023,19.023,0,0,1,1.44,1.466,3.72,3.72,0,0,1,.65,1.042,2.717,2.717,0,0,1,.188.974,2.663,2.663,0,0,1-.1.748,2.31,2.31,0,0,1-.3.643,2.83,2.83,0,0,1-.451.526,3.416,3.416,0,0,1-.527.4,5.974,5.974,0,0,1-.8.384l-.015.955q0,.473.007.917-.819-.015-1.3-.015t-1.421.015q.038-.527.038-1.331V735.4q-.609-.083-1.019-.173t-1-.286Q-636.042,733.058-636.109,732.352Z" transform="translate(667.675 -710.904)" fill="#fffad1"/>
        </g>
        <g id="Group_1890" data-name="Group 1890" transform="translate(0 34.219)">
          <path id="Path_581" data-name="Path 581" d="M-758.732,701.6h0v51.514a5.758,5.758,0,0,0,5.758,5.758h71.846a5.758,5.758,0,0,0,5.758-5.758V707.342h-77.6A5.758,5.758,0,0,1-758.732,701.6Z" transform="translate(758.733 -701.602)" fill="#615740"/>
          <path id="Path_582" data-name="Path 582" d="M-578.492,701.6s0,.009,0,.013V701.6Z" transform="translate(661.853 -701.602)" fill="#615740"/>
        </g>
        <g id="Group_1893" data-name="Group 1893" transform="translate(3.365 42.439)">
          <g id="Group_1891" data-name="Group 1891" transform="translate(0.499 34.544)">
            <path id="Path_583" data-name="Path 583" d="M-676.638,812.057h-2.72v-1.063h2.72a2.208,2.208,0,0,0,.67-.1l.322,1.013A3.266,3.266,0,0,1-676.638,812.057Zm-6.275,0h-3.553v-1.063h3.553Zm-7.106,0h-3.552v-1.063h3.552Zm-7.1,0h-3.55v-1.063h3.55Zm-7.1,0h-3.55v-1.063h3.55Zm-7.1,0h-3.549v-1.063h3.549Zm-7.1,0h-3.55v-1.063h3.55Zm-7.1,0h-3.55v-1.063h3.55Zm-7.1,0h-3.551v-1.063h3.551Zm-7.1,0h-3.552v-1.063h3.552Zm-7.1,0h-3.55v-1.063h3.55Zm73.467-3.351h-1.063v-3.543h1.063Z" transform="translate(750.378 -800.031)" fill="#fffad1"/>
            <rect id="Rectangle_796" data-name="Rectangle 796" width="1.063" height="1.771" transform="translate(75.954)" fill="#fffad1"/>
          </g>
          <g id="Group_1892" data-name="Group 1892">
            <rect id="Rectangle_797" data-name="Rectangle 797" width="1.063" height="1.771" transform="translate(76.453 11.728)" fill="#fffad1"/>
            <rect id="Rectangle_798" data-name="Rectangle 798" width="1.063" height="3.142" transform="translate(76.453 5.444)" fill="#fffad1"/>
            <path id="Path_584" data-name="Path 584" d="M-586.53,721.679h-1.063v-1.24h-1.24v-1.063h2.3Z" transform="translate(664.046 -719.376)" fill="#fffad1"/>
            <path id="Path_585" data-name="Path 585" d="M-679.662,720.439h-3.419v-1.063h3.419Zm-6.838,0h-3.419v-1.063h3.419Zm-6.838,0h-3.419v-1.063h3.419Zm-6.838,0h-3.419v-1.063h3.419Zm-6.838,0h-3.419v-1.063h3.419Zm-6.838,0h-3.419v-1.063h3.419Zm-6.838,0h-3.419v-1.063h3.419Zm-6.838,0h-3.419v-1.063h3.419Zm-6.838,0h-3.419v-1.063h3.419Zm-6.838,0h-3.419v-1.063h3.419Zm-6.838,0h-3.419v-1.063h3.419Z" transform="translate(751.457 -719.376)" fill="#fffad1"/>
          </g>
          <path id="Path_586" data-name="Path 586" d="M-592.833,755.077h-8.718a6.549,6.549,0,0,0-6.549,6.549v1.922a6.549,6.549,0,0,0,6.549,6.549h8.718a2.947,2.947,0,0,0,2.948-2.948v-9.124A2.948,2.948,0,0,0-592.833,755.077Z" transform="translate(674.402 -738.565)" fill="#4d463a"/>
          <path id="Path_587" data-name="Path 587" d="M-592.547,767.3A3.458,3.458,0,0,1-596,770.754a3.458,3.458,0,0,1-3.458-3.458A3.458,3.458,0,0,1-596,763.839,3.458,3.458,0,0,1-592.547,767.3Z" transform="translate(669.759 -743.275)" fill="#fffad1"/>
        </g>
      </g>
      <g id="Group_1897" data-name="Group 1897" transform="translate(-801.037 674.985)">
        <rect id="Rectangle_799" data-name="Rectangle 799" width="59.775" height="39.074" rx="6" transform="translate(2.295)" fill="#c99b36"/>
        <rect id="Rectangle_800" data-name="Rectangle 800" width="59.775" height="39.074" rx="8" fill="#edc773"/>
        <rect id="Rectangle_801" data-name="Rectangle 801" width="59.775" height="7.877" transform="translate(0 22.495)" fill="#615740"/>
        <g id="Group_1896" data-name="Group 1896" transform="translate(5.156 9.914)">
          <rect id="Rectangle_802" data-name="Rectangle 802" width="8.769" height="8.769" transform="translate(40.693)" fill="#fffad1"/>
          <g id="Group_1895" data-name="Group 1895">
            <rect id="Rectangle_803" data-name="Rectangle 803" width="18.73" height="1.65" transform="translate(0 7.118)" fill="#fffad1"/>
            <rect id="Rectangle_804" data-name="Rectangle 804" width="18.73" height="1.65" transform="translate(0 3.559)" fill="#fffad1"/>
            <rect id="Rectangle_805" data-name="Rectangle 805" width="18.73" height="1.65" fill="#fffad1"/>
          </g>
        </g>
      </g>
    </g>
  </g>
</svg>
