<svg xmlns="http://www.w3.org/2000/svg" width="302.869" height="225.871" viewBox="0 0 302.869 225.871">
  <g id="Group_1413" data-name="Group 1413" transform="translate(3097.869 -921.853)">
    <rect id="Rectangle_540" data-name="Rectangle 540" width="294.051" height="30.78" transform="translate(-3089.05 1018.31)" fill="#f47257"/>
    <g id="Group_1314" data-name="Group 1314" transform="translate(-3085.487 974.453)">
      <path id="Path_431" data-name="Path 431" d="M-2900.836,1217.174A423.792,423.792,0,0,0-3059.26,1169.7l6.133-71.835a489.981,489.981,0,0,1,183.174,54.885Z" transform="translate(3059.26 -1097.869)" fill="#00a083"/>
      <path id="Path_432" data-name="Path 432" d="M-3031.834,1181.559q2.09-22.4,4.18-44.8c5.8.594,11-3.148,11.627-8.512a486.42,486.42,0,0,1,153.58,46.018c-2.159,4.907.375,10.965,5.6,13.674l-18.96,40.372a9.118,9.118,0,0,0-12.656,4.472,427.141,427.141,0,0,0-134.867-40.411A9.665,9.665,0,0,0-3031.834,1181.559Z" transform="translate(3036.698 -1122.858)" fill="#007863"/>
      <g id="Group_1313" data-name="Group 1313" transform="translate(24.279 27.936)">
        <path id="Path_433" data-name="Path 433" d="M-2618.167,1288.6a24.865,24.865,0,0,1-30.975,15.468,26.535,26.535,0,0,1-18.077-30.609c2.859-13.314,17.013-21.293,31.361-16.855C-2621.506,1261.022-2613.711,1275.775-2618.167,1288.6Z" transform="translate(2712.948 -1255.367)" fill="#50bfa5"/>
        <path id="Path_434" data-name="Path 434" d="M-2588.464,1333.286q.536-2.151,1.069-4.3a23.286,23.286,0,0,1-5.2-2.435,2.777,2.777,0,0,1-1-3.6l.08-.151a2.667,2.667,0,0,1,3.848-.939,17.133,17.133,0,0,0,4.767,2.207c2.606.729,4.644.259,5.116-1.548.446-1.713-.742-3.234-3.895-5.326-4.559-3.011-7.469-6.153-6.464-10.572.908-4,4.6-6.4,9.982-5.926q.529-2.152,1.055-4.305,2.373.657,4.741,1.34l-1.015,3.977a21.931,21.931,0,0,1,4.212,1.876,2.763,2.763,0,0,1,1.1,3.747h0a2.8,2.8,0,0,1-3.915.829,15.652,15.652,0,0,0-4.019-1.771c-3.089-.877-4.4.126-4.708,1.393-.367,1.5,1.062,2.893,4.672,5.485,5.082,3.517,6.6,6.7,5.486,10.737-1.114,4-4.906,6.515-10.327,5.92q-.594,2.3-1.191,4.606Q-2586.265,1333.895-2588.464,1333.286Z" transform="translate(2652.163 -1289.11)" fill="#3c8f7c"/>
        <path id="Path_435" data-name="Path 435" d="M-2884.207,1289.56q-18.92-4.366-38.173-7.1.446-3.454.89-6.907,19.507,2.772,38.707,7.2Q-2883.494,1286.156-2884.207,1289.56Z" transform="translate(2922.379 -1271.969)" fill="#50bfa5"/>
        <path id="Path_436" data-name="Path 436" d="M-2318.7,1448.446q-17.606-8.611-35.8-15.669l2.3-6.538q18.431,7.152,36.3,15.888Q-2317.3,1445.287-2318.7,1448.446Z" transform="translate(2455.223 -1395.932)" fill="#50bfa5"/>
      </g>
    </g>
    <g id="Group_1316" data-name="Group 1316" transform="translate(-3082.598 940.715)">
      <path id="Path_437" data-name="Path 437" d="M-2864.312,978.511a382.674,382.674,0,0,0-143.3,63.006L-3042.97,980.5c50.435-35.8,106.652-60.515,165.687-72.849Q-2870.8,943.083-2864.312,978.511Z" transform="translate(3042.97 -907.656)" fill="#00a083"/>
      <path id="Path_438" data-name="Path 438" d="M-2965.554,1059.557l-21.79-38.276c4.611-3.215,6.368-9.494,3.856-14.161a439.139,439.139,0,0,1,138.919-61.08,9.7,9.7,0,0,0,11.725,7.311l8.422,44.154c-4.933,1.077-7.99,6.333-6.859,11.6a385.625,385.625,0,0,0-121.992,53.637C-2955.785,1058.082-2961.311,1056.6-2965.554,1059.557Z" transform="translate(2997.211 -939.232)" fill="#007863"/>
      <g id="Group_1315" data-name="Group 1315" transform="translate(31.549 33.492)">
        <path id="Path_439" data-name="Path 439" d="M-2597.316,1112.651c3.84,13.049-2.681,27-14.276,32-11.607,4.966-25.051-.412-30.339-12.839-5.282-12.4.736-27.747,13.791-33.344C-2615.092,1092.851-2601.146,1099.624-2597.316,1112.651Z" transform="translate(2683.087 -1096.478)" fill="#00a083"/>
        <path id="Path_440" data-name="Path 440" d="M-2553.906,1175.462l-1.6-4.1a20.251,20.251,0,0,1-5.191,1.372,2.522,2.522,0,0,1-2.74-2.229c-.008-.057-.017-.113-.025-.171a2.758,2.758,0,0,1,2.318-3.193,14.911,14.911,0,0,0,4.745-1.277c2.329-1.078,3.572-2.748,2.917-4.484-.623-1.645-2.344-2.1-5.832-1.758-5.037.5-8.93-.143-10.642-4.294-1.552-3.759-.155-8.011,4.078-11.059q-.8-2.047-1.612-4.094,2.117-.987,4.244-1.95.73,1.9,1.459,3.808a19.106,19.106,0,0,1,4.151-1.187,2.508,2.508,0,0,1,2.891,2.281h0a2.886,2.886,0,0,1-2.429,3.148,13.661,13.661,0,0,0-3.95,1.148c-2.767,1.267-3.177,2.9-2.7,4.1.561,1.425,2.39,1.625,6.494,1.39,5.7-.436,8.594,1.128,10.011,5.047,1.4,3.89,0,8.3-4.335,11.273q.839,2.21,1.678,4.42Q-2551.945,1174.548-2553.906,1175.462Z" transform="translate(2622.81 -1130.821)" fill="#fffad1"/>
        <path id="Path_441" data-name="Path 441" d="M-2829.8,1291.217q-16.391,8.56-32.122,18.626l-3.178-6.057q15.938-10.2,32.572-18.888Z" transform="translate(2865.1 -1251.478)" fill="#50bfa5"/>
      </g>
    </g>
    <g id="Group_1318" data-name="Group 1318" transform="translate(-3073.365 983.373)">
      <path id="Path_442" data-name="Path 442" d="M-2813.344,1220.989a388.315,388.315,0,0,0-156.732,22.971l-20.84-68.425a448.974,448.974,0,0,1,181.218-26.56Q-2811.521,1184.982-2813.344,1220.989Z" transform="translate(2990.917 -1148.159)" fill="#3c8f7c"/>
      <path id="Path_443" data-name="Path 443" d="M-2935.168,1247.367l-12.685-42.823c5.32-1.889,8.525-7.5,7.121-12.682a445.579,445.579,0,0,1,151.941-22.269,10.243,10.243,0,0,0,9.92,10.185q-.968,22.483-1.937,44.966c-5.141-.267-9.4,4.01-9.5,9.41a391.3,391.3,0,0,0-133.427,19.555A8.807,8.807,0,0,0-2935.168,1247.367Z" transform="translate(2955.492 -1165.647)" fill="#007863"/>
      <g id="Group_1317" data-name="Group 1317" transform="translate(28.259 13.905)">
        <path id="Path_444" data-name="Path 444" d="M-2532.239,1248.7c.767,13.647-8.947,25.419-21.605,27.179-12.663,1.728-24.737-7.043-27.086-20.473-2.347-13.405,7.193-26.658,21.438-28.613C-2545.248,1224.829-2533,1235.081-2532.239,1248.7Z" transform="translate(2625.682 -1226.555)" fill="#50bfa5"/>
        <path id="Path_445" data-name="Path 445" d="M-2488.963,1302.92q-.315-2.2-.631-4.392a20.922,20.922,0,0,1-5.466-.049,2.647,2.647,0,0,1-2.2-2.884c0-.057.01-.115.015-.172a2.679,2.679,0,0,1,3.042-2.476,15.39,15.39,0,0,0,5,.023c2.56-.425,4.181-1.712,3.937-3.566-.234-1.757-1.834-2.654-5.372-3.248-5.111-.847-8.819-2.506-9.548-6.978-.664-4.049,1.712-7.794,6.618-9.621q-.322-2.2-.644-4.39,2.329-.393,4.661-.761.281,2.036.56,4.073a19.674,19.674,0,0,1,4.39-.048,2.634,2.634,0,0,1,2.335,2.974h0a2.8,2.8,0,0,1-3.141,2.4,14.1,14.1,0,0,0-4.183.063c-3.038.492-3.825,1.962-3.633,3.253.224,1.528,1.991,2.206,6.114,3.068,5.756,1.091,8.257,3.37,8.748,7.54.484,4.137-1.936,8.031-6.923,9.76q.317,2.361.634,4.723Q-2486.807,1302.555-2488.963,1302.92Z" transform="translate(2559.056 -1257.692)" fill="#fffad1"/>
        <path id="Path_446" data-name="Path 446" d="M-2793.673,1372.829q-18.242,3.938-36.182,9.508-.87-3.353-1.74-6.705,18.175-5.646,36.689-9.641Z" transform="translate(2831.595 -1341.259)" fill="#50bfa5"/>
        <path id="Path_447" data-name="Path 447" d="M-2232.3,1319.3q-18.637-.5-37.221.661-.182-3.479-.364-6.958,18.829-1.178,37.742-.67Q-2232.224,1315.815-2232.3,1319.3Z" transform="translate(2369.519 -1296.99)" fill="#50bfa5"/>
      </g>
    </g>
    <rect id="Rectangle_541" data-name="Rectangle 541" width="294.051" height="129.414" transform="translate(-3089.05 1018.31)" fill="#615740"/>
    <rect id="Rectangle_542" data-name="Rectangle 542" width="267.681" height="10.05" transform="translate(-3078.214 1024.682)" fill="#3d3626"/>
    <g id="Group_1319" data-name="Group 1319" transform="translate(-3097.869 1067.351)">
      <rect id="Rectangle_543" data-name="Rectangle 543" width="140.557" height="80.373" rx="15" transform="translate(0 0)" fill="#edc773"/>
      <rect id="Rectangle_544" data-name="Rectangle 544" width="34.613" height="20.124" transform="translate(9.037 15.983)" fill="#fffad1"/>
      <rect id="Rectangle_545" data-name="Rectangle 545" width="61.38" height="3.756" transform="translate(70.278 10.885)" fill="#fffad1"/>
      <rect id="Rectangle_546" data-name="Rectangle 546" width="140.557" height="13.38" transform="translate(0 53.816)" fill="#615740"/>
    </g>
    <rect id="Rectangle_547" data-name="Rectangle 547" width="124.81" height="3.336" transform="translate(-3074.814 1051.351)" fill="#fffad1"/>
    <g id="Group_1321" data-name="Group 1321" transform="translate(-2942.024 965.836)">
      <circle id="Ellipse_84" data-name="Ellipse 84" cx="22.922" cy="22.922" r="22.922" fill="#c99b36"/>
      <path id="Path_448" data-name="Path 448" d="M-2251.768,1153.539a19.235,19.235,0,0,1-4.694,26.794,19.235,19.235,0,0,1-26.794-4.694,19.235,19.235,0,0,1,4.694-26.794A19.235,19.235,0,0,1-2251.768,1153.539Z" transform="translate(2290.434 -1141.667)" fill="#edc773"/>
      <g id="Group_1320" data-name="Group 1320" transform="translate(14.792 8.918)">
        <path id="Path_449" data-name="Path 449" d="M-2219.731,1199.583l-.839-3.1a15.608,15.608,0,0,1-4.095.36,1.954,1.954,0,0,1-1.853-1.927l0-.124a1.951,1.951,0,0,1,2.07-1.976,11.386,11.386,0,0,0,3.7-.347c1.859-.5,2.938-1.565,2.585-2.87-.336-1.24-1.592-1.741-4.227-1.9-3.809-.23-6.632-1.218-7.488-4.383-.777-2.872.638-5.67,3.944-7.3l-.839-3.1,3.2-.865.777,2.871a14.424,14.424,0,0,1,3.093-.375,1.951,1.951,0,0,1,1.952,1.93h0a1.952,1.952,0,0,1-1.994,1.979,10.388,10.388,0,0,0-2.977.369c-2.121.573-2.558,1.673-2.312,2.586.292,1.077,1.618,1.453,4.674,1.747,4.253.32,6.3,1.692,7.1,4.628.786,2.9-.6,5.94-4.175,7.607l.9,3.328Z" transform="translate(2230.082 -1172.049)" fill="#fff"/>
      </g>
    </g>
    <g id="Group_1326" data-name="Group 1326" transform="translate(-3033.241 921.853)">
      <circle id="Ellipse_84-2" data-name="Ellipse 84" cx="15.806" cy="15.806" r="15.806" fill="#c99b36"/>
      <path id="Path_448-2" data-name="Path 448" d="M-2262.627,1151a13.264,13.264,0,0,1-3.237,18.476,13.264,13.264,0,0,1-18.476-3.237,13.264,13.264,0,0,1,3.237-18.476A13.264,13.264,0,0,1-2262.627,1151Z" transform="translate(2289.29 -1142.811)" fill="#edc773"/>
      <g id="Group_1320-2" data-name="Group 1320" transform="translate(10.2 6.15)">
        <path id="Path_449-2" data-name="Path 449" d="M-2222.944,1191.035l-.578-2.138a10.751,10.751,0,0,1-2.823.249,1.348,1.348,0,0,1-1.278-1.328v-.086a1.345,1.345,0,0,1,1.428-1.363,7.854,7.854,0,0,0,2.554-.239c1.282-.347,2.027-1.079,1.783-1.979-.232-.855-1.1-1.2-2.915-1.313-2.626-.159-4.573-.84-5.163-3.022-.536-1.98.44-3.91,2.719-5.033l-.578-2.138,2.205-.6.535,1.98a9.941,9.941,0,0,1,2.133-.259,1.345,1.345,0,0,1,1.346,1.33h0a1.347,1.347,0,0,1-1.375,1.365,7.146,7.146,0,0,0-2.052.254c-1.462.4-1.764,1.153-1.594,1.783.2.742,1.115,1,3.223,1.2,2.934.221,4.348,1.166,4.9,3.191.542,2-.413,4.1-2.879,5.246l.621,2.295Z" transform="translate(2230.082 -1172.049)" fill="#fff"/>
      </g>
    </g>
    <g id="Group_1323" data-name="Group 1323" transform="translate(-2937.158 1025.371)">
      <circle id="Ellipse_85" data-name="Ellipse 85" cx="27.796" cy="27.796" r="27.796" transform="translate(2.541 3.467) rotate(-0.955)" fill="#c99b36"/>
      <circle id="Ellipse_86" data-name="Ellipse 86" cx="23.325" cy="23.325" r="23.325" transform="translate(0 18.979) rotate(-24.006)" fill="#edc773"/>
      <g id="Group_1322" data-name="Group 1322" transform="translate(19.677 14.399)">
        <path id="Path_450" data-name="Path 450" d="M-2348.454,1433.776l1.328-3.661a18.9,18.9,0,0,1-4.316-2.495,2.37,2.37,0,0,1-.5-3.2l.085-.125a2.365,2.365,0,0,1,3.431-.519,13.81,13.81,0,0,0,3.918,2.235c2.2.8,4.007.493,4.566-1.047.531-1.465-.367-2.836-2.869-4.834-3.62-2.882-5.734-5.829-4.379-9.567,1.229-3.391,4.582-5.183,9-4.5l1.328-3.66,3.776,1.369-1.229,3.391a17.516,17.516,0,0,1,3.332,1.782,2.367,2.367,0,0,1,.593,3.274h0a2.368,2.368,0,0,1-3.358.575,12.587,12.587,0,0,0-3.211-1.708c-2.5-.908-3.7-.122-4.1.957-.461,1.272.594,2.57,3.423,4.99,4,3.281,5.08,6.071,3.823,9.539-1.244,3.429-4.733,5.478-9.444,4.642l-1.425,3.931Z" transform="translate(2352.351 -1402.402)" fill="#fff"/>
      </g>
    </g>
    <rect id="Rectangle_548" data-name="Rectangle 548" width="125.892" height="67.47" transform="translate(-2936.425 1072.197)" fill="#3d3626"/>
  </g>
</svg>
