<svg xmlns="http://www.w3.org/2000/svg" width="195.884" height="50.5" viewBox="0 0 195.884 50.5">
  <g id="logo_2" data-name="logo 2" transform="translate(-30.1 -110.4)">
    <g id="Group_2178" data-name="Group 2178" transform="translate(30.1 110.4)">
      <path id="Path_603" data-name="Path 603" d="M58.122,110.4,44.159,135.481H30.1Z" transform="translate(-30.1 -110.4)" fill="#fff"/>
      <path id="Path_604" data-name="Path 604" d="M177.462,110.4v25.081H163.5Z" transform="translate(-149.442 -110.4)" fill="rgba(255,255,255,0.6)"/>
      <path id="Path_605" data-name="Path 605" d="M324.024,135.481H310.4L296,110.4Z" transform="translate(-267.979 -110.4)" fill="rgba(255,255,255,0.6)"/>
      <path id="Path_606" data-name="Path 606" d="M135.406,348.4l-6.745,6.747h6.323L124.15,365.978h5.09l-7.84,7.841,17.167-8.717h-6.534l14.122-10.749h-6.8l6.271-5.953Z" transform="translate(-111.779 -323.32)" fill="#fff"/>
      <path id="Path_607" data-name="Path 607" d="M310.4,135.481H296V110.4Z" transform="translate(-267.979 -110.4)" fill="#fff"/>
    </g>
    <g id="Group_2180" data-name="Group 2180" transform="translate(91.909 124.648)">
      <g id="Group_2179" data-name="Group 2179">
        <path id="Path_608" data-name="Path 608" d="M641.7,255.8l-4.993,17.883h-4.223l-3.354-12.731-3.509,12.731-4.2.021L616.6,255.8h3.842l3.152,13.889,3.635-13.889h3.988l3.443,13.806,3.166-13.806Z" transform="translate(-616.6 -254.724)" fill="#fff"/>
        <path id="Path_609" data-name="Path 609" d="M869.052,292.055a6.361,6.361,0,0,1,2.33-2.557,6.151,6.151,0,0,1,3.288-.9,5.7,5.7,0,0,1,4.688,2.255V288.83h3.617v14.2h-3.617v-2.078a5.477,5.477,0,0,1-1.907,1.656,5.864,5.864,0,0,1-2.8.653,5.976,5.976,0,0,1-3.269-.928,6.48,6.48,0,0,1-2.33-2.6,8.323,8.323,0,0,1-.855-3.856A8.079,8.079,0,0,1,869.052,292.055Zm9.8,1.625a3.552,3.552,0,0,0-1.381-1.435,3.752,3.752,0,0,0-3.71-.009,3.718,3.718,0,0,0-1.362,1.423,4.46,4.46,0,0,0-.526,2.212,4.633,4.633,0,0,0,.526,2.243,3.766,3.766,0,0,0,1.381,1.477,3.554,3.554,0,0,0,1.832.519,3.726,3.726,0,0,0,1.86-.5,3.607,3.607,0,0,0,1.381-1.433,4.641,4.641,0,0,0,.517-2.243A4.711,4.711,0,0,0,878.85,293.68Z" transform="translate(-841.683 -284.069)" fill="#fff"/>
        <path id="Path_610" data-name="Path 610" d="M1036.488,263.86v6.872a1.359,1.359,0,0,0,.348,1.031,1.746,1.746,0,0,0,1.174.319h1.663V275.1h-2.255c-3.024,0-4.527-1.463-4.527-4.4V263.86H1031.2v-2.952h1.691V257.4h3.616v3.509h3.166v2.952Z" transform="translate(-987.504 -256.158)" fill="#fff"/>
        <path id="Path_611" data-name="Path 611" d="M1130.789,263.86v6.872a1.359,1.359,0,0,0,.348,1.031,1.736,1.736,0,0,0,1.165.319h1.672V275.1h-2.245c-3.034,0-4.537-1.463-4.537-4.4V263.86H1125.5v-2.952h1.691V257.4h3.607v3.509h3.175v2.952Z" transform="translate(-1071.868 -256.158)" fill="#fff"/>
        <path id="Path_612" data-name="Path 612" d="M1249.892,255.8v17.883H1246.3V262.049l-4.8,11.634H1238.8l-4.829-11.634v11.634H1230.4V255.8h4.067l5.692,13.3,5.684-13.3Z" transform="translate(-1165.709 -254.724)" fill="#fff"/>
        <path id="Path_613" data-name="Path 613" d="M1443.913,302.341a6.535,6.535,0,0,1-2.574-2.572,7.752,7.752,0,0,1-.939-3.847,7.6,7.6,0,0,1,.958-3.847,6.664,6.664,0,0,1,2.63-2.569,8.067,8.067,0,0,1,7.431,0,6.786,6.786,0,0,1,2.63,2.569,7.567,7.567,0,0,1,.958,3.847,7.324,7.324,0,0,1-.986,3.847,6.773,6.773,0,0,1-2.677,2.572,7.631,7.631,0,0,1-3.748.906A7.433,7.433,0,0,1,1443.913,302.341Zm5.523-2.684a3.517,3.517,0,0,0,1.372-1.425,4.959,4.959,0,0,0,.517-2.309,4.286,4.286,0,0,0-1.062-3.107,3.544,3.544,0,0,0-2.611-1.087,3.432,3.432,0,0,0-2.574,1.087,4.357,4.357,0,0,0-1.033,3.107,4.425,4.425,0,0,0,1.015,3.112,3.344,3.344,0,0,0,2.555,1.085A3.654,3.654,0,0,0,1449.437,299.656Z" transform="translate(-1353.59 -284.069)" fill="#fff"/>
        <path id="Path_614" data-name="Path 614" d="M1616.166,290.491a6.15,6.15,0,0,1,1.541,4.469v8.325h-3.589v-7.841a3.782,3.782,0,0,0-.826-2.6,2.984,2.984,0,0,0-2.311-.906,3.073,3.073,0,0,0-2.348.906,3.7,3.7,0,0,0-.846,2.6v7.841H1604.2V289.1h3.588v1.768a4.837,4.837,0,0,1,1.841-1.442,5.581,5.581,0,0,1,2.442-.528A5.469,5.469,0,0,1,1616.166,290.491Z" transform="translate(-1500.116 -284.337)" fill="#fff"/>
        <path id="Path_615" data-name="Path 615" d="M1773.214,264.559l-4.828-6.052v6.052H1764.8V245.6h3.589v10.779l4.771-6.017h4.659l-6.256,7.123,6.313,7.073Z" transform="translate(-1643.798 -245.6)" fill="#fff"/>
      </g>
    </g>
  </g>
</svg>
