<svg xmlns="http://www.w3.org/2000/svg" width="35.001" height="29.039" viewBox="0 0 35.001 29.039">
  <g id="line_icons" data-name="line icons" transform="translate(-2 -7.962)">
    <path id="Union_10" data-name="Union 10" d="M873.725-7390a2.312,2.312,0,0,1-2.309-2.309v-13.115H866.24a2.245,2.245,0,0,1-2.24-2.242v-9.131a2.244,2.244,0,0,1,2.24-2.242h30.519A2.244,2.244,0,0,1,899-7416.8v9.131a2.247,2.247,0,0,1-2.242,2.242h-4.3v13.115a2.312,2.312,0,0,1-2.309,2.309Zm-1.309-2.309a1.311,1.311,0,0,0,1.309,1.309h16.428a1.311,1.311,0,0,0,1.309-1.309v-13.575a.287.287,0,0,1,0-.041.284.284,0,0,1,0-.041v-7.381H889.4v16.573a.5.5,0,0,1-.5.5,2.719,2.719,0,0,0-2.717,2.714.5.5,0,0,1-.5.5h-7.5a.5.5,0,0,1-.5-.5,2.718,2.718,0,0,0-2.717-2.714.5.5,0,0,1-.5-.5v-16.573h-2.056Zm3.055-4.93a3.722,3.722,0,0,1,3.184,3.182h6.567a3.72,3.72,0,0,1,3.182-3.182v-16.108H875.472Zm16.99-9.185h4.3a1.242,1.242,0,0,0,1.24-1.242v-9.131a1.242,1.242,0,0,0-1.24-1.242H866.24A1.242,1.242,0,0,0,865-7416.8v9.131a1.242,1.242,0,0,0,1.24,1.242h5.176v-3.29h-2.8a.5.5,0,0,1-.5-.5v-3.633a.5.5,0,0,1,.5-.5h25.771a.5.5,0,0,1,.5.5v3.633a.5.5,0,0,1-.5.5h-1.923Zm0-4.29h1.424v-2.633h-1.424Zm-23.349,0h2.3v-2.633h-2.3Z" transform="translate(-862 7427)" fill="rgba(17,17,15,0.6)"/>
    <path id="Path_212" data-name="Path 212" d="M32.86,33.453a5.018,5.018,0,1,1,5.018-5.018A5.018,5.018,0,0,1,32.86,33.453Zm0-9.036a4.018,4.018,0,1,0,4.018,4.018A4.018,4.018,0,0,0,32.86,24.417Z" transform="translate(-12.921 -7.727)" fill="rgba(17,17,15,0.6)"/>
    <path id="Path_215" data-name="Path 215" d="M36.078,50.43a1.8,1.8,0,1,1,1.8-1.8A1.8,1.8,0,0,1,36.078,50.43Zm0-2.6a.8.8,0,1,0,.8.8.8.8,0,0,0-.8-.8Z" transform="translate(-16.139 -19.434)" fill="rgba(17,17,15,0.6)"/>
    <path id="Path_216" data-name="Path 216" d="M32.231,31.729h.409a2.275,2.275,0,0,1,.344-1.194l.523.187a2.079,2.079,0,0,0-.335,1.124c0,.554.32.928.764.928.429,0,.695-.3.929-.882.312-.8.671-1.287,1.35-1.287a1.28,1.28,0,0,1,1.257,1.178h.409v.484H37.5a2.079,2.079,0,0,1-.273,1.015l-.512-.2a1.886,1.886,0,0,0,.265-.983c0-.6-.359-.827-.671-.827-.406,0-.609.288-.89.968-.327.8-.733,1.209-1.428,1.209a1.358,1.358,0,0,1-1.327-1.233h-.432Z" transform="translate(-15.115 -11.287)" fill="rgba(17,17,15,0.6)"/>
  </g>
</svg>
